<?xml version="1.0" encoding="UTF-8" standalone="no"?>
<svg width="30px" height="29px" viewBox="0 0 30 29" version="1.1" xmlns="http://www.w3.org/2000/svg" xmlns:xlink="http://www.w3.org/1999/xlink" xmlns:sketch="http://www.bohemiancoding.com/sketch/ns">
    <!-- Generator: Sketch 3.3.2 (12043) - http://www.bohemiancoding.com/sketch -->
    <title>Fill 578</title>
    <desc>Created with Sketch.</desc>
    <defs></defs>
    <g id="Page-1" stroke="none" stroke-width="1" fill="none" fill-rule="evenodd" sketch:type="MSPage">
        <g id="Desktop-Copy" sketch:type="MSArtboardGroup" transform="translate(-880.000000, -2323.000000)" fill="#FFFFFF">
            <path d="M909.13,2337.29 C909.13,2329.55386 902.670759,2323.283 894.704,2323.283 C886.736841,2323.283 880.278,2329.55386 880.278,2337.29 C880.278,2344.50438 885.896126,2350.44296 893.115537,2351.21062 L893.115537,2340.53223 L890.657106,2340.53223 L890.657106,2336.51417 L893.115537,2336.51417 C893.115136,2336.51417 893.115537,2333.82794 893.115537,2333.2268 C893.115537,2332.6245 892.990913,2328.60177 898.292868,2328.60177 L902.034812,2328.60177 L902.034812,2332.78636 L899.281851,2332.78636 C898.738071,2332.78636 898.187078,2333.33925 898.187078,2333.75012 L898.187078,2336.49822 L902.028801,2336.49822 C901.874924,2338.60549 901.557953,2340.53223 901.557953,2340.53223 L898.167442,2340.53223 L898.167442,2350.88768 C904.461586,2349.38115 909.13,2343.8659 909.13,2337.29" id="Fill-578" sketch:type="MSShapeGroup"></path>
        </g>
    </g>
</svg>