<?xml version="1.0" encoding="UTF-8" standalone="no"?>
<svg width="462px" height="188px" viewBox="0 0 462 188" version="1.1" xmlns="http://www.w3.org/2000/svg" xmlns:xlink="http://www.w3.org/1999/xlink" xmlns:sketch="http://www.bohemiancoding.com/sketch/ns">
    <!-- Generator: Sketch 3.3.2 (12043) - http://www.bohemiancoding.com/sketch -->
    <title>oneness-logo</title>
    <desc>Created with Sketch.</desc>
    <defs></defs>
    <g id="Page-1" stroke="none" stroke-width="1" fill="none" fill-rule="evenodd" sketch:type="MSPage">
        <g id="oneness-logo" sketch:type="MSLayerGroup">
            <g id="Group" fill="#3C5896" sketch:type="MSShapeGroup">
                <path d="M458.5,116.8 C458.2,116.8 457.9,117 457.6,117.3 C451.4,124.2 445.5,129.4 439.9,133 C442.6,129.4 444.3,125.6 444.8,121.6 C445.2,119.4 445.1,117.3 444.3,115.4 C444.2,114.7 443.7,113.5 442.8,112 C441.9,110.5 440.7,108.5 439.1,106.1 C436.5,102 435.3,98.8 435.6,96.4 C436,90.1 439.3,85.7 445.6,83.2 C444.3,82.3 443.1,81.8 442,81.8 C438.9,81.8 436.6,82.9 434.9,85 L420,102.5 C413.2,110.5 410.3,113.5 403,121.9 C398.4,126.5 394,130.1 389.8,132.9 C392.5,129.3 394.2,125.5 394.7,121.5 C395.1,119.3 395,117.2 394.2,115.3 C394.1,114.6 393.6,113.4 392.7,111.9 C391.8,110.4 390.6,108.4 389,106 C386.4,101.9 385.2,98.7 385.5,96.3 C385.9,90 389.2,85.6 395.5,83.1 C394.2,82.2 393,81.7 391.9,81.7 C388.8,81.7 386.5,82.8 384.8,84.9 L370,102.5 C368.9,103.8 367.8,105.2 366.7,106.6 L366.7,106.6 L356.2,119 C346.8,131.5 338.2,139.5 330.9,139.5 C326.7,139.5 324.6,136.8 324.6,131.4 C324.6,126.1 325.4,122.7 327,121.1 C330,118.9 332.7,117 335.2,115.3 C337.7,113.7 339.9,112.3 341.8,111.1 C351.4,105.7 356.2,100.5 356.2,95.4 C356.2,90.3 353.5,87.8 348.1,87.8 C343.9,87.8 339,90 333.4,94.3 C321.6,103.5 315.7,113.5 315.7,124.4 L315.7,125.3 C307.3,135.1 301.5,140.1 298.2,140.1 C295.4,140.1 295.6,137.4 295.8,136.6 C296.5,131.4 300.1,125.9 300.1,125.4 C306,112.8 309,103.5 309,97.4 C309,90.3 305.7,86.8 299,86.8 C293.1,86.8 287,89.5 280.6,94.9 C280.8,93.5 280.9,92.4 281,91.4 C281.1,90.5 281.2,89.6 281.4,88.9 C273.6,88.9 269.7,89.7 269.7,91.3 C269.7,91.5 269.8,91.7 270,91.8 C271.7,94.3 272.5,96.5 272.5,98.3 C272.4,99.9 272.2,102.1 270,105.9 C266.6,111.4 264.4,115.9 261.1,121.1 L261.1,121.1 C260.7,121.7 260.3,122.2 259.9,122.8 C259.7,123.1 259.5,123.4 259.3,123.7 C251.7,134.3 244.6,139.6 237.8,139.6 C233.6,139.6 231.5,136.9 231.5,131.5 C231.5,126.2 232.3,122.8 233.9,121.2 C236.9,119 239.6,117.1 242.1,115.4 C244.6,113.8 246.8,112.4 248.7,111.2 C258.3,105.8 263.1,100.6 263.1,95.5 C263.1,90.4 260.4,87.9 255,87.9 C250.8,87.9 245.9,90.1 240.3,94.4 C228.5,103.6 222.6,113.6 222.6,124.5 L222.6,125.4 C214.2,135.2 208.4,140.2 205.1,140.2 C202.3,140.2 202.5,137.5 202.7,136.7 C203,134.6 204.2,131.3 206.3,126.9 C207.8,123.3 215.8,103.6 215.8,97.4 C215.8,90.3 212.5,86.8 205.8,86.8 C199.9,86.8 193.8,89.5 187.4,94.9 C187.6,93.5 187.7,92.4 187.8,91.4 C187.9,90.5 188,89.6 188.2,88.9 C180.4,88.9 176.5,89.7 176.5,91.3 C176.5,91.5 176.6,91.7 176.8,91.8 C178.5,94.3 179.3,96.5 179.3,98.3 C179.2,99.9 178,102.6 175.8,106.4 C173.4,110.9 169.3,120.3 168.4,122.3 C164.4,130.5 160,137 154,144.8 C154.7,146.7 163.2,143.8 166.5,143.2 C170.5,135.1 173.9,128 176.8,122 C179.6,116 182.1,111 184.1,107 C191.5,96.2 198,90.8 203.6,90.8 C207,90.8 208.2,93.1 207.4,97.6 C206.2,106.7 195.7,127.7 195.8,134.5 C195.9,140.3 198.8,143.2 204.8,143.2 C208.6,143.2 214.6,138.6 223,129.4 C223.6,132.2 224.8,134.7 226.6,137 C229.3,140.5 233.1,142.2 237.8,142.2 C245.5,142.2 255.3,139.7 264.1,130 C265.6,128.7 267.5,126.3 270,121.9 C273.4,116.1 275.9,110 277.9,106 C285.3,95.2 291.2,90.7 296.8,90.7 C300.2,90.7 301.4,93 300.6,97.5 C299.4,106.6 296.8,112.6 290.7,124.9 C290.3,126.1 289,130.6 289,134.4 C289,140.2 292,143.1 298,143.1 C301.8,143.1 307.8,138.5 316.2,129.3 C316.8,132.1 318,134.6 319.8,136.9 C322.5,140.4 326.3,142.1 331,142.1 C340.5,142.1 347.7,135.8 361.3,119 L361.3,119 C363.8,116 365.7,113.6 366.3,113.1 C368,111.4 370.2,109 373,106 C375.7,102.9 379,99.1 382.8,94.4 C381.4,99.7 381.4,104.6 382.8,109.1 C385.1,117.1 386.1,122.2 385.7,124.3 C385.4,126.4 384.7,128.4 383.6,130.2 C382.5,132 381.1,133.6 379.5,135 C377.9,136.4 376,137.5 374,138.3 C372,139.1 369.9,139.5 367.8,139.5 C364.5,139.5 362.9,137.8 362.9,134.4 C362.9,132.7 363.2,131.1 363.9,129.5 C364.5,127.9 365.4,126.5 366.5,125.2 C367.6,123.9 368.9,122.9 370.3,122.2 C371.7,121.5 373.3,121.1 375,121.1 C375.7,121.1 376.7,121.3 377.9,121.7 C379.1,122.1 380.5,122.5 382.2,123 C378.6,120.4 375.5,119 373,119 C368.6,119 365,120.2 362.2,122.5 C359.5,124.8 357.4,128.3 356,133 C355.9,133.2 355.8,133.5 355.7,133.9 C355.6,134.3 355.5,134.6 355.5,134.9 C355.5,135.8 355.8,136.7 356.4,137.6 C357,138.4 357.8,139.2 358.8,139.8 C359.8,140.4 360.8,141 361.9,141.4 C363,141.8 365.9,142.5 367.2,142.5 L369.3,142.5 C376.1,142.5 383.6,140.1 392,135.2 C398.3,131.5 402.9,128.2 408.1,122.1 C411.5,118.3 415.5,113.9 416.5,113 C418.2,111.3 420.4,108.9 423.2,105.9 C425.9,102.8 429.2,99 433,94.3 C431.6,99.6 431.6,104.5 433,109 C435.3,117 436.3,122.1 435.9,124.2 C435.6,126.3 434.9,128.3 433.8,130.1 C432.7,131.9 431.3,133.5 429.7,134.9 C428.1,136.3 426.2,137.4 424.2,138.2 C422.2,139 420.1,139.4 418,139.4 C414.7,139.4 413.1,137.7 413.1,134.3 C413.1,132.6 413.4,131 414.1,129.4 C414.7,127.8 415.6,126.4 416.7,125.1 C417.8,123.8 419.1,122.8 420.5,122.1 C421.9,121.4 423.5,121 425.2,121 C425.9,121 426.9,121.2 428.1,121.6 C429.3,122 430.7,122.4 432.4,122.9 C428.8,120.3 425.7,118.9 423.2,118.9 C418.8,118.9 415.2,120.1 412.4,122.4 C409.7,124.7 407.6,128.2 406.2,132.9 C406.1,133.1 406,133.4 405.9,133.8 C405.8,134.2 405.7,134.5 405.7,134.8 C405.7,135.7 406,136.6 406.6,137.5 C407.2,138.3 408,139.1 409,139.7 C410,140.3 411,140.9 412.1,141.3 C413.2,141.7 416.1,142.4 417.4,142.4 L419.5,142.4 C426.3,142.4 433.8,140 442.2,135.1 C449.3,130.9 455.5,125.7 460.7,119.6 C460.8,119.2 461,118.8 461.3,118.5 C461.1,117.4 460.4,116.8 458.5,116.8 L458.5,116.8 Z M336.6,101.6 C341.7,94.1 345.6,90.4 348.5,90.4 C348.9,90.4 350.1,90.6 350.6,90.9 C353.1,92.1 351.9,95.2 352.1,94.1 C351.6,96.2 351.6,97.5 348.3,101.4 C344.1,105.1 340.3,108.2 337,110.7 C333.7,113.2 330.8,115.3 328.4,116.9 C329.5,112.9 332.2,107.8 336.6,101.6 L336.6,101.6 Z M243.3,101.6 C248.4,94.1 252.3,90.4 255.2,90.4 C257,90.4 257.6,91 258.2,91.6 C259.7,93 259.1,94.8 259.1,94.9 C258.7,97 258.4,98.2 255.1,101.4 C250.9,105.1 247.1,108.2 243.8,110.7 C240.5,113.2 237.6,115.3 235.2,116.9 C236.3,112.9 239,107.8 243.3,101.6 L243.3,101.6 Z" id="Shape"></path>
                <path d="M170,57.1 C173.6,53.6 176.8,49.9 179.5,46.6 C192.2,30.9 194.1,18.8 185.7,9.3 C178.3,0.8 164.8,2 164.8,2 C164.8,2 194.9,7.3 180.2,33.6 C177,39.3 172.9,44.7 168.3,49.5 C166.5,43.8 163.9,39.1 160.9,35.1 C159,32.6 140.4,11.2 109.9,23.7 C78.2,36.7 62.2,66.6 62.2,66.6 C46.8,95.1 49.1,112.6 55.2,122.5 C62.5,134.3 80.1,145.6 104,121.5 C123.9,101.4 116.7,68.8 116.7,68.8 C116.7,68.8 128.2,73.2 136.4,73.3 C145,73.4 152.8,70.2 159.7,65.7 C160,84 150.9,107.8 132.3,133.3 C104.8,171.1 61.5,188.3 30.5,162.3 C13.4,148 4,121.5 20.5,86.5 C37.4,50.4 62.6,28.7 85.3,16.1 C107.8,3.7 127,2.4 127,2.4 C127,2.4 78.4,-14.7 23.1,59.7 C-26,125.7 14.6,176.5 51,182.8 C87.4,189.2 120.2,169.7 149.6,122.4 C167.8,93.1 172.1,72.3 170,57.1 L170,57.1 Z M137.5,66.4 C118.7,66.4 101.9,53.1 101.9,53.1 C101.9,53.1 107.6,64.5 109.6,73.4 C111.6,82.5 110.4,94.9 106.5,106.6 C102.9,117.4 82.9,139.1 66.5,123.1 C51.7,108.6 67,76.5 81.1,58.5 C89.2,48.1 115.4,17.7 144.6,36.2 C152.3,41.1 157,48.5 158.8,57.9 C151.5,63.1 143.9,66.4 137.5,66.4 L137.5,66.4 Z" id="Shape"></path>
            </g>
            <g id="Group" transform="translate(145.000000, 156.000000)" fill="#636969" sketch:type="MSShapeGroup">
                <path d="M6,1.2 L22.6,1.2 L21.7,5.6 L10.4,5.6 L8.8,14.1 L19.3,14.1 L18.5,18.5 L8,18.5 L5.6,31.3 L0.4,31.3 L6,1.2 L6,1.2 Z" id="Shape"></path>
                <path d="M52.4,13.1 C52.4,18.5 50.5,24 47,27.5 C44.3,30.2 40.6,31.7 36.2,31.7 C28.4,31.7 24.4,26 24.4,19.3 C24.4,13.9 26.4,8.3 30,4.8 C32.7,2.2 36.5,0.6 40.6,0.6 C48.6,0.7 52.4,6.3 52.4,13.1 L52.4,13.1 Z M34,7.6 C31.4,10.2 29.9,15.1 29.9,19 C29.9,23.6 32,27.3 37,27.3 C39.2,27.3 41.3,26.4 42.8,24.8 C45.4,22.2 46.9,17.1 46.9,13.3 C46.9,9.3 45.5,5 40,5 C37.6,5.1 35.6,6 34,7.6 L34,7.6 Z" id="Shape"></path>
                <path d="M65.9,1.2 L62.6,18.7 C62.4,19.8 62.2,21.1 62.2,22.4 C62.2,25.5 64.1,27.4 67.2,27.4 C70.9,27.4 73.4,24.9 74.6,18.8 L77.9,1.2 L83.1,1.2 L79.8,18.7 C78.1,27.8 73.9,31.8 66.5,31.8 C60.8,31.8 57,28.9 57,22.5 C57,21.2 57.2,19.7 57.4,18.4 L60.7,1.3 L65.9,1.3 L65.9,1.2 Z" id="Shape"></path>
                <path d="M84.7,31.2 L90.4,1.1 L96.4,1.1 L101.7,15.1 C103,18.8 103.8,21.5 104.4,24.5 L104.5,24.5 C104.7,21.6 105,18.7 105.8,14.3 L108.3,1.1 L113.2,1.1 L107.5,31.2 L102.2,31.2 L96.8,17 C95.4,13.1 94.7,10.6 93.9,7.3 L93.7,7.3 C93.4,10.2 92.8,13.9 92,18.3 L89.5,31.1 L84.7,31.1 L84.7,31.2 Z" id="Shape"></path>
                <path d="M120.5,1.6 C123,1.2 125.6,0.9 128.4,0.9 C133.2,0.9 137,2.1 139.4,4.5 C141.5,6.4 142.8,9.2 142.8,13.3 C142.8,19 140.5,24.1 136.7,27.3 C133.2,30.2 128.8,31.4 122.6,31.4 C119.4,31.4 116.5,31.2 114.8,31 L120.5,1.6 L120.5,1.6 Z M121,27 C122,27.1 123.1,27.2 124.3,27.2 C128.4,27.2 131.6,25.9 133.8,23.5 C136.2,21 137.4,17.4 137.4,13.5 C137.4,8.5 134.8,5.2 128.5,5.2 C127.3,5.2 126,5.3 125.2,5.5 L121,27 L121,27 Z" id="Shape"></path>
                <path d="M153,22.7 L148.9,31.3 L143.4,31.3 L158.5,1.2 L165,1.2 L168.8,31.3 L163.4,31.3 L162.6,22.7 L153,22.7 L153,22.7 Z M162.2,18.7 L161.4,11.2 C161.3,9.6 161.1,7.3 161,5.5 L160.9,5.5 C160.1,7.3 159.3,9.4 158.4,11.2 L154.7,18.7 L162.2,18.7 L162.2,18.7 Z" id="Shape"></path>
                <path d="M183.6,5.7 L175.3,5.7 L176.2,1.1 L198.1,1.1 L197.2,5.7 L188.8,5.7 L184,31.2 L178.8,31.2 L183.6,5.7 L183.6,5.7 Z" id="Shape"></path>
                <path d="M207.8,1.2 L202.1,31.3 L196.9,31.3 L202.6,1.2 L207.8,1.2 L207.8,1.2 Z" id="Shape"></path>
                <path d="M238.6,13.1 C238.6,18.5 236.7,24 233.2,27.5 C230.5,30.2 226.8,31.7 222.4,31.7 C214.6,31.7 210.6,26 210.6,19.3 C210.6,13.9 212.6,8.3 216.2,4.8 C218.9,2.2 222.7,0.6 226.8,0.6 C234.8,0.7 238.6,6.3 238.6,13.1 L238.6,13.1 Z M220.2,7.6 C217.6,10.2 216.1,15.1 216.1,19 C216.1,23.6 218.2,27.3 223.2,27.3 C225.4,27.3 227.5,26.4 229,24.8 C231.6,22.2 233.1,17.1 233.1,13.3 C233.1,9.3 231.7,5 226.2,5 C223.8,5.1 221.8,6 220.2,7.6 L220.2,7.6 Z" id="Shape"></path>
                <path d="M241.3,31.2 L247,1.1 L253,1.1 L258.3,15.1 C259.6,18.8 260.4,21.5 261,24.5 L261.1,24.5 C261.3,21.6 261.6,18.7 262.4,14.3 L264.9,1.1 L269.8,1.1 L264.1,31.2 L258.8,31.2 L253.4,17 C252,13.1 251.3,10.6 250.5,7.3 L250.3,7.3 C250,10.2 249.4,13.9 248.6,18.3 L246.1,31.1 L241.3,31.1 L241.3,31.2 Z" id="Shape"></path>
            </g>
            <g id="Group" transform="translate(205.000000, 40.000000)" fill="#636969" sketch:type="MSShapeGroup">
                <path d="M6.5,1.2 C9,0.8 11.6,0.5 14.4,0.5 C19.2,0.5 23,1.7 25.4,4.1 C27.5,6 28.8,8.8 28.8,12.9 C28.8,18.6 26.5,23.7 22.7,26.9 C19.2,29.8 14.8,31 8.6,31 C5.4,31 2.5,30.8 0.8,30.6 L6.5,1.2 L6.5,1.2 Z M6.9,26.6 C7.9,26.7 9,26.8 10.2,26.8 C14.3,26.8 17.5,25.5 19.7,23.1 C22.1,20.6 23.3,17 23.3,13.1 C23.3,8.1 20.7,4.8 14.4,4.8 C13.2,4.8 11.9,4.9 11.1,5.1 L6.9,26.6 L6.9,26.6 Z" id="Shape"></path>
                <path d="M44.1,0.7 L38.4,30.8 L33.2,30.8 L38.9,0.7 L44.1,0.7 L44.1,0.7 Z" id="Shape"></path>
                <path d="M48.3,24.9 C50,26 52.4,26.8 55.1,26.8 C58,26.8 60.7,25.2 60.7,22.3 C60.7,20.3 59.4,19 56.5,17.4 C53,15.5 50.4,13.1 50.4,9.5 C50.4,3.7 55.4,0.1 61.5,0.1 C64.8,0.1 67,0.9 68.2,1.6 L66.5,5.9 C65.5,5.4 63.5,4.5 61.1,4.6 C57.8,4.6 55.9,6.5 55.9,8.5 C55.9,10.6 57.6,11.8 60.4,13.4 C64.1,15.3 66.2,17.7 66.2,21.4 C66.2,27.4 61.3,31.1 54.6,31.1 C50.9,31.1 48,30.1 46.6,29 L48.3,24.9 L48.3,24.9 Z" id="Shape"></path>
                <path d="M93.7,29.9 C92.1,30.6 89.4,31.2 85.8,31.2 C78,31.2 73,26.4 73,18.6 C73,12.4 75.7,7 80,3.8 C83.1,1.4 86.9,0.2 91.2,0.2 C94.5,0.2 96.9,1 97.8,1.6 L96.3,5.8 C95.3,5.3 93.3,4.7 90.6,4.7 C87.7,4.7 85,5.7 82.9,7.5 C80.3,9.8 78.6,13.6 78.6,18 C78.6,23 81.2,26.8 87.1,26.8 C89.3,26.8 91.5,26.4 93.1,25.6 L93.7,29.9 L93.7,29.9 Z" id="Shape"></path>
                <path d="M129.1,12.7 C129.1,18.1 127.2,23.6 123.7,27.1 C121,29.8 117.3,31.3 112.9,31.3 C105.1,31.3 101.1,25.6 101.1,18.9 C101.1,13.5 103.1,7.9 106.7,4.4 C109.4,1.8 113.2,0.2 117.3,0.2 C125.3,0.2 129.1,5.8 129.1,12.7 L129.1,12.7 Z M110.7,7.2 C108.1,9.8 106.6,14.7 106.6,18.6 C106.6,23.2 108.7,26.9 113.7,26.9 C115.9,26.9 118,26 119.5,24.4 C122.1,21.8 123.6,16.7 123.6,12.9 C123.6,8.9 122.2,4.6 116.7,4.6 C114.4,4.6 112.3,5.6 110.7,7.2 L110.7,7.2 Z" id="Shape"></path>
                <path d="M139.7,30.8 L136,0.7 L141.3,0.7 L143,17.3 C143.4,20.4 143.5,22.8 143.7,25.4 L143.8,25.4 C144.8,22.9 145.9,20.2 147.5,17.1 L155.5,0.8 L161.3,0.8 L145.6,30.9 L139.7,30.9 L139.7,30.8 Z" id="Shape"></path>
                <path d="M180.5,17.4 L169.7,17.4 L168,26.4 L180.1,26.4 L179.3,30.8 L161.9,30.8 L167.6,0.7 L184.3,0.7 L183.5,5.1 L172,5.1 L170.5,13 L181.3,13 L180.5,17.4 L180.5,17.4 Z" id="Shape"></path>
                <path d="M192.4,1.2 C194.3,0.8 197.1,0.5 199.8,0.5 C202.7,0.5 205.5,1.1 207.3,2.5 C209,3.7 210.2,5.5 210.2,7.9 C210.2,12.3 207.1,15.4 203.2,16.5 L203.2,16.6 C205.2,17.4 206,19.5 206.3,22.3 C206.7,26 206.9,29.5 207.4,30.7 L202,30.7 C201.8,30 201.5,27.1 201.2,23.5 C201,19.7 199.6,18.3 196.8,18.3 L194.3,18.3 L191.9,30.7 L186.8,30.7 L192.4,1.2 L192.4,1.2 Z M195,14.4 L197.9,14.4 C202,14.4 204.7,11.9 204.7,8.6 C204.7,5.8 202.5,4.6 199.6,4.6 C198.3,4.6 197.5,4.7 196.8,4.9 L195,14.4 L195,14.4 Z" id="Shape"></path>
            </g>
        </g>
    </g>
</svg>