<?xml version="1.0" standalone="no"?><!DOCTYPE svg PUBLIC "-//W3C//DTD SVG 1.1//EN" "http://www.w3.org/Graphics/SVG/1.1/DTD/svg11.dtd"><svg width="100%" height="100%" viewBox="0 0 3100 945" version="1.1" xmlns="http://www.w3.org/2000/svg" xmlns:xlink="http://www.w3.org/1999/xlink" xml:space="preserve" style="fill-rule:evenodd;clip-rule:evenodd;stroke-linejoin:round;stroke-miterlimit:1.41421;"><path d="M235.27,718.629c36.1945,356.75 678.833,-111.847 516.097,-426.945c-43.8889,-84.986 -159.972,-42.8333 -160.903,-31.6944c43.4305,54.3056 80.0972,123.306 74.2222,194.069c-8.06942,97.375 -75.6805,250.028 -220.528,244.25c-84.0833,-3.36107 -92.4166,-94.9583 -87.9583,-148.708c7.97221,-96.0138 64.625,-193.806 200.306,-293c-14.5694,-15.2639 -32.5,-22.375 -50.4166,-33.0833c-159.139,120.764 -289.028,315.556 -270.819,495.111l-0.0003,0.0007ZM370.812,564.879c-3.94446,47.6111 14.25,106.181 84,104.556c161.472,-3.79168 222.014,-319.264 115.861,-401.194c-131.903,87.625 -190.889,188.597 -199.861,296.639l0,-0.001ZM828.104,280.324c25.5,-165.181 -155.153,-170.569 -304.486,-68.9583l52.6111,34.9027c177.806,-69.9028 232.958,85.3889 214.611,196.5c-27.3889,165.903 -216.444,469.403 -462.111,467.903c-131.181,-0.805569 -173.375,-137.486 -168.528,-223.694c9.15279,-162.625 100,-317.625 311.458,-475.847c-232.681,-65.2639 -345.514,147.611 -371.347,248.736l-0.0138919,0.0277837c-3.56944,3.94446 -8.23612,5.88894 -12.5972,4.72221c-5.91669,-1.58329 -9.44446,-8.38884 -9.00002,-16.25c24.8333,-143.25 166.611,-311.056 415.222,-250.792c289.208,-172.528 374.403,15.736 357.958,85.2083c-1.43064,6.04172 -6.72226,10.3334 -12.9584,9.73612c-6.22215,-0.597254 -11.7778,-5.97216 -10.8194,-12.1944l0.0008119,-0.0004137Z" style="fill:#5a49d6;fill-rule:nonzero;"/><path d="M2395.89,644.132c0,12.8034 0,24.6812 -0.0771452,35.6142c-0.0578148,11.0101 -0.250678,20.8248 -0.520598,29.3861c-0.270008,8.61914 -0.732792,15.715 -1.38835,21.3454c-0.462783,3.83715 -1.11834,7.36579 -1.92819,10.4124c-0.790606,3.12372 -1.92828,5.6304 -3.4515,7.61647c-1.46549,2.00535 -3.5094,3.33581 -6.17038,3.85643c-1.85104,0.404924 -3.83714,0.790573 -5.95819,1.13765c-2.12105,0.250667 -4.12639,0.462772 -5.97743,0.462772c-1.19549,0 -1.98609,0.250667 -2.44888,0.713439c-0.53984,0.462772 -0.732703,1.06053 -0.732703,1.65827c0,1.1955 0.520598,1.98607 1.52331,2.46812c1.07977,0.52062 2.66089,0.713439 4.83985,0.713439c3.06586,-0.0578369 6.71014,-0.192819 10.8173,-0.385638c4.10715,-0.269953 8.2142,-0.404924 12.2634,-0.404924c4.24211,-0.19283 7.88647,-0.327801 10.8174,-0.327801c2.91157,-0.0771232 4.62766,-0.0771232 5.09044,-0.0771232c2.9309,0 6.90309,0.0771232 11.9357,0.269942c5.05195,0.212105 11.4344,0.539906 19.1086,0.925544c7.77075,0.212105 17.1804,0.482058 28.2484,0.732725c11.1452,0.269953 24.1413,0.462772 39.0079,0.462772c5.09053,0.0771342 9.08196,-0.0578479 11.8587,-0.385638c2.77652,-0.327801 4.83967,-1.1955 6.22811,-2.66095c1.38826,-1.46544 2.52602,-3.91428 3.39368,-7.28867c0.38555,-1.73539 0.848421,-4.04925 1.31112,-6.90302c0.482114,-2.91162 0.925566,-6.03532 1.33053,-9.35186c0.462695,-3.37439 0.925566,-6.63308 1.25321,-9.81464c0.404968,-3.12371 0.674889,-5.82322 0.925566,-8.07924c0.212194,-2.25601 0.347065,-3.7793 0.347065,-4.45418c0.0579031,-1.44618 -0.0769687,-2.77664 -0.26992,-4.02999c-0.26992,-1.19549 -1.00271,-1.87038 -2.12105,-1.92821c-0.983293,0 -1.71608,0.385638 -2.25592,1.33047c-0.520598,0.925544 -0.925566,2.44883 -1.31129,4.62773c-1.33036,8.07923 -3.39351,14.3267 -6.1123,18.8387c-2.79594,4.4349 -6.69098,7.75144 -11.8008,9.81464c-3.50931,1.46545 -7.61655,2.44884 -12.2057,3.04659c-4.58917,0.655591 -9.21683,1.06052 -13.7868,1.1955c-4.56975,0.134971 -8.69623,0.134971 -12.2055,0.134971c-9.6797,0.0578479 -17.5083,-0.32779 -23.4858,-1.25333c-6.01601,-0.867707 -10.6052,-2.46813 -13.7868,-4.78199c-3.18158,-2.31386 -5.36045,-5.64969 -6.63308,-9.89176c-1.2533,-4.29993 -2.06315,-9.87248 -2.25601,-16.6984c-0.0578148,-1.79324 -0.11563,-4.78198 -0.11563,-9.02406c-0.0771452,-4.16496 -0.0771452,-9.08191 -0.0771452,-14.6545c0.0771452,-5.57255 0.0771452,-11.203 0.0771452,-16.9683c0.0578148,-5.76537 0.0578148,-11.0873 0.0578148,-15.9271c0.0578148,-4.83983 0.0578148,-8.67699 0.0578148,-11.4729l0,-35.0165c0,-0.790562 0.192863,-1.44616 0.674889,-1.98607c0.385638,-0.539906 1.11834,-0.790562 2.12105,-0.790562c1.44616,0 3.91428,0 7.50074,0.0578369c3.5094,0.0771452 7.69361,0.192819 12.3213,0.269964c4.70489,0.13496 9.48684,0.269942 14.3267,0.462761c4.91699,0.134982 9.33254,0.327801 13.324,0.539906c4.04933,0.192819 7.17292,0.404924 9.42902,0.655602c5.09053,0.539884 9.08196,1.60041 11.9356,3.04658c2.75746,1.54257 4.83985,3.18156 6.15114,5.10979c1.27246,1.92821 2.1403,3.85642 2.60299,5.76537c0.771276,2.6031 1.25339,4.91695 1.36902,7.038c0.212194,2.12103 0.26992,4.1071 0.212194,6.11246c0,0.983381 0.192775,1.85109 0.65547,2.50667c0.404968,0.655602 1.13776,1.06053 2.12105,1.06053c0.925566,-0.0578369 1.60045,-0.462761 2.00542,-1.25335c0.38555,-0.809849 0.597743,-1.79323 0.655646,-2.91162c0.134872,-1.21477 0.134872,-2.33314 0.134872,-3.39366c0,-0.732725 0.0579031,-2.12103 0.115806,-4.04926c0.0771452,-1.90893 0.212017,-4.18422 0.424211,-6.76804c0.11563,-2.50669 0.250678,-5.0905 0.443453,-7.67432c0.212017,-2.6031 0.404968,-4.91695 0.597743,-6.98014c0.674889,-6.4981 1.33036,-11.6079 2.06315,-15.1751c0.674889,-3.5865 1.06061,-5.97748 1.13758,-7.09586c0,-1.19549 -0.212017,-1.98605 -0.53984,-2.52596c-0.404968,-0.462783 -0.848421,-0.655602 -1.46541,-0.655602c-0.790518,0 -1.58121,0.462783 -2.50678,1.38833c-0.944809,0.925544 -2.06315,2.19815 -3.45141,3.7793c-1.7355,1.92823 -4.12648,3.2587 -7.09595,3.99143c-2.98872,0.713439 -6.8451,1.25332 -11.6078,1.58112c-1.60045,0.134982 -4.10706,0.269964 -7.50074,0.327801c-3.43235,0.0771232 -7.36587,0.192819 -11.8008,0.192819c-4.4927,0.0771232 -9.08187,0.134982 -13.7868,0.134982c-4.78195,0.0771232 -9.29406,0.0771232 -13.5361,0.134982l-16.6405,0c-1.00271,0 -1.58121,-0.327801 -1.92828,-0.925544c-0.327823,-0.674889 -0.462783,-1.65827 -0.462783,-3.0466l0,-109.812c0,-1.38831 0.192863,-2.39097 0.597743,-3.06586c0.404968,-0.655602 1.00271,-0.925566 1.79332,-0.925566c1.00262,0 3.18149,0 6.69089,0.0771452c3.52864,0 7.6357,0.0578589 12.4756,0.13496c4.7627,0.0578589 9.6218,0.135004 14.5195,0.192819c4.83976,0.135004 9.21683,0.192819 12.9961,0.327823c3.79856,0.13496 6.36316,0.26992 7.82857,0.462783c7.09577,0.809849 12.4756,1.87033 16.2549,3.12368c3.77941,1.33049 6.49821,2.8538 8.21429,4.56988c1.71608,1.79327 2.98872,3.70218 3.77923,5.84252c0.674889,1.58112 1.11834,3.3744 1.52331,5.16763c0.327823,1.85109 0.53984,3.64432 0.674889,5.24477c0.135048,1.63898 0.192775,2.91162 0.192775,3.895c0,1.60041 0.192951,2.85376 0.732792,3.79856c0.462695,0.925566 1.25339,1.38835 2.44888,1.38835c0.790518,-0.0771452 1.38826,-0.520642 1.85096,-1.46545c0.404968,-0.925566 0.732792,-1.85109 0.925566,-2.91162c0.192951,-1.25335 0.404968,-3.12372 0.617162,-5.57255c0.192775,-2.44883 0.38555,-5.03267 0.520598,-7.88642c0.192775,-2.7959 0.327823,-5.37973 0.462695,-7.69361c0.192775,-2.33311 0.327823,-4.04924 0.404968,-5.10977c0.655646,-5.51469 1.31112,-9.6218 2.04391,-12.4563c0.674889,-2.85376 1.06044,-4.91695 1.13758,-6.22815c0,-1.00267 -0.134872,-1.87038 -0.347065,-2.54522c-0.250678,-0.655602 -0.655646,-1.06053 -1.25339,-1.06053c-1.00254,0.0771011 -1.9281,0.347065 -2.77652,0.867707c-0.867663,0.462739 -1.81265,0.867663 -2.79594,1.13763c-1.65836,0.385638 -3.91428,0.790562 -6.903,1.11839c-2.96947,0.385638 -6.34392,0.655602 -10.2195,0.867707c-1.36902,0.0578148 -3.97219,0.13496 -7.73218,0.13496c-3.85656,0.0578589 -8.42631,0.0578589 -13.7868,0.115674c-5.45683,0 -11.1643,0.0771452 -17.2575,0.0771452c-6.1703,0 -12.2056,0 -18.1638,0c-5.97752,0.0771452 -11.4923,0.0771452 -16.4477,0.0771452l-17.7204,0l-16.3127,-0.790606c-4.43497,-0.212105 -9.13977,-0.347065 -14.1724,-0.347065c-4.97481,-0.0771452 -9.83399,-0.0771452 -14.4616,-0.0771452c-2.1982,0 -3.77932,0.212105 -4.83985,0.674889c-1.00271,0.539928 -1.52331,1.3112 -1.52331,2.52598c0.0578148,0.790562 0.40488,1.38831 0.983381,1.77394c0.674889,0.404924 1.40759,0.61703 2.1982,0.61703c1.2533,0 2.7188,0 4.37707,0.115718c1.71608,0.0771011 3.37435,0.212105 5.03262,0.404924c1.65827,0.13496 2.98872,0.404924 4.10715,0.655602c4.31916,0.867663 7.71285,2.25601 10.0846,4.12639c2.46812,1.79323 4.10706,4.24206 5.16758,7.26939c1.00271,3.008 1.65827,6.76804 1.87038,11.2801c0.13496,2.46812 0.250678,5.10977 0.385638,7.90571c0.0771452,2.7188 0.212105,6.09315 0.270008,9.94962c0,3.91428 0.0578148,8.81195 0.0578148,14.7123c0.0771452,5.84252 0.0771452,13.1312 0.0771452,21.8274l0,101.579l4.46e-05,-0.0005051ZM2024.67,514.825c3.23939,3.64432 8.27202,9.27473 15.098,16.9105c6.76804,7.55862 14.9244,16.5056 24.2955,26.9179c9.35188,10.3545 19.5522,21.5575 30.5623,33.5703c10.933,11.9935 22.2709,24.257 33.8788,36.7904c8.56136,9.15906 17.3733,18.5688 26.6095,28.2484c9.13977,9.67965 18.1638,19.0315 26.918,28.1134c8.75413,9.15903 16.7755,17.3733 24.0641,24.874c7.23082,7.42364 13.2083,13.459 17.8361,18.1831c4.64699,4.68557 7.50074,7.53934 8.42631,8.40703c6.9609,6.96088 12.3213,12.2828 16.1777,15.9849c3.91428,3.72146 6.76804,6.24743 8.61917,7.55862c1.85104,1.33047 3.25872,1.98606 4.24211,1.92821c0.732703,0.0578479 1.27263,-0.212105 1.73533,-0.732725c0.462783,-0.520609 0.848421,-1.73539 1.11843,-3.58648c0.26992,-1.79324 0.462783,-4.64701 0.597743,-8.42632c0.0771452,-3.83716 0.13496,-9.00479 0.13496,-15.5222l0.790606,-233.141c-0.0579031,-7.90567 0.26992,-14.3266 0.925478,-19.1665c0.674889,-4.89766 2.06324,-8.61913 4.18429,-11.1451c2.06315,-2.52598 5.30254,-4.24211 9.6218,-5.10977c2.39097,-0.597743 4.29992,-0.925566 5.82323,-1.06053c1.54255,-0.115718 2.7188,-0.192819 3.72142,-0.115718c1.38835,0 2.44888,-0.26992 3.25872,-0.809849c0.713461,-0.539884 1.11834,-1.19549 1.11834,-1.98605c0,-1.19549 -0.655558,-1.92823 -1.92819,-2.31387c-1.25339,-0.347065 -3.04662,-0.539884 -5.22549,-0.48207c-5.45683,0 -10.4895,0.135004 -15.0594,0.327823c-4.51203,0.154246 -8.42631,0.347065 -11.685,0.539884c-3.23939,0.192819 -5.55322,0.347109 -7.07653,0.347109c-1.54255,0 -4.45421,-0.15429 -8.69632,-0.347109c-4.24202,-0.192819 -9.21683,-0.385638 -14.9822,-0.539884c-5.70751,-0.192819 -11.6079,-0.327823 -17.701,-0.327823c-2.39097,-0.0578148 -4.31925,0.135004 -5.78466,0.48207c-1.38835,0.385638 -2.12105,1.11839 -2.17887,2.31387c0,0.790562 0.13496,1.44616 0.520598,1.98605c0.462783,0.539928 1.33045,0.809849 2.66098,0.809849c1.13758,0 2.71871,0.0578589 4.91691,0.115718c2.10181,0.13496 4.49278,0.347065 7.09586,0.597743c2.58384,0.347065 5.03262,0.732703 7.4815,1.27263c4.10706,0.983381 7.23082,2.77661 9.42902,5.43755c2.25601,2.6417 3.77923,6.55598 4.62766,11.7236c0.925566,5.18691 1.38835,12.0706 1.46549,20.6319l4.37707,202.116c-3.25872,-3.37438 -8.15639,-8.67699 -14.7123,-15.8499c-6.57526,-7.1537 -14.2689,-15.58 -23.0229,-25.1826c-8.75413,-9.6218 -18.106,-19.8414 -27.9785,-30.6394c-9.8918,-10.8173 -19.8414,-21.4996 -29.791,-32.1627c-12.3213,-13.2083 -24.3341,-26.1467 -36.1348,-38.7379c-11.7428,-12.6684 -22.8109,-24.5462 -33.1461,-35.7299c-10.3546,-11.1451 -19.6293,-21.1718 -27.7857,-29.9838c-8.15639,-8.83128 -14.7894,-15.985 -19.8992,-21.5575c-5.10977,-5.55327 -8.29135,-9.08191 -9.54465,-10.4702c-1.40759,-1.38835 -2.9309,-3.12372 -4.64699,-5.10981c-1.77399,-1.92819 -3.4515,-3.72146 -5.16767,-5.24473c-1.65827,-1.52331 -2.98872,-2.31387 -4.12639,-2.37173c-1.06053,-0.0771011 -1.90895,0.539928 -2.50669,1.71613c-0.674889,1.19549 -1.13758,3.18158 -1.40759,6.09319c-0.327735,2.93086 -0.443453,6.96086 -0.443453,12.0706l-0.404968,227.993c0.0771452,11.9935 -0.26992,21.4804 -0.867663,28.5955c-0.655646,7.07656 -1.79323,12.2635 -3.56722,15.6379c-1.73541,3.37439 -4.1842,5.49543 -7.50074,6.30528c-3.12376,1.00268 -6.1703,1.58115 -9.21692,1.92822c-3.04662,0.308515 -5.37978,0.462772 -7.09586,0.462772c-1.00262,0 -1.79323,0.192819 -2.33316,0.597743c-0.597743,0.385649 -0.848421,0.983392 -0.848421,1.77397c0,1.33047 0.597743,2.25601 1.71617,2.66094c1.06053,0.404935 2.66089,0.597754 4.64699,0.52062c6.03534,0 11.7236,-0.115685 17.0455,-0.32779c5.36045,-0.19283 9.87247,-0.327801 13.6518,-0.52062c3.72142,-0.212105 6.22811,-0.347076 7.50074,-0.347076c1.2533,0 3.72142,0.134971 7.4815,0.347076c3.77932,0.192819 8.56127,0.32779 14.4616,0.52062c5.90038,0.212105 12.6684,0.32779 20.227,0.32779c2.39106,0 4.18429,-0.192819 5.37978,-0.713439c1.17624,-0.482047 1.77399,-1.27262 1.77399,-2.46812c0,-0.790573 -0.270008,-1.38832 -0.848421,-1.77397c-0.539928,-0.404924 -1.33053,-0.597743 -2.33316,-0.597743c-1.25339,0 -2.91166,-0.0771342 -5.03262,-0.212105c-2.17896,-0.0578479 -4.56993,-0.327801 -7.17301,-0.655591c-2.56451,-0.327801 -5.10977,-0.867696 -7.67436,-1.5233c-3.58646,-1.00267 -6.44022,-2.98874 -8.61908,-6.09317c-2.1982,-3.12371 -3.85647,-7.9057 -4.91699,-14.3459c-1.06053,-6.36313 -1.73541,-14.9051 -1.98609,-25.7224l-5.16758,-190.585l-0.000239,-0.000515ZM1776.39,644.132c0,12.8034 0,24.6812 -0.0771452,35.6142c-0.0578148,11.0101 -0.26992,20.8248 -0.520598,29.3861c-0.270008,8.61914 -0.732703,15.715 -1.38835,21.3454c-0.462783,3.83715 -1.13767,7.36579 -1.92819,10.4124c-0.790606,3.12372 -1.92828,5.6304 -3.4515,7.61647c-1.46549,2.00535 -3.5094,3.33581 -6.1703,3.85643c-1.85113,0.404924 -3.83723,0.790573 -5.95828,1.13765c-2.1403,0.250667 -4.12639,0.462772 -5.97743,0.462772c-1.19549,0 -1.98609,0.250667 -2.44888,0.713439c-0.53984,0.462772 -0.732703,1.06053 -0.732703,1.65827c0,1.1955 0.520598,1.98607 1.52331,2.46812c1.06053,0.52062 2.66098,0.713439 4.83985,0.713439c3.04653,-0.0578369 6.71022,-0.192819 10.8173,-0.385638c4.10715,-0.269953 8.2142,-0.404924 12.2634,-0.404924c4.24211,-0.19283 7.88647,-0.327801 10.798,-0.327801c2.9309,-0.0771232 4.66632,-0.0771232 5.10977,-0.0771232c2.9309,0 6.90309,0.0771232 11.9357,0.269942c5.03262,0.212105 11.415,0.539906 19.1086,0.925544c7.75151,0.212105 17.1612,0.482058 28.2484,0.732725c11.1451,0.269953 24.1413,0.462772 38.9886,0.462772c5.10977,0.0771342 9.1012,-0.0578479 11.8778,-0.385638c2.7767,-0.327801 4.83985,-1.1955 6.2282,-2.66095c1.38826,-1.46544 2.50669,-3.91428 3.37435,-7.28867c0.404968,-1.73539 0.867663,-4.04925 1.33045,-6.90302c0.462783,-2.91162 0.925566,-6.03532 1.33053,-9.35186c0.462783,-3.37439 0.925478,-6.63308 1.2533,-9.81464c0.404968,-3.12371 0.674889,-5.82322 0.925566,-8.07924c0.192775,-2.25601 0.347065,-3.7793 0.347065,-4.45418c0.0578148,-1.44618 -0.0771452,-2.77664 -0.26992,-4.02999c-0.270008,-1.19549 -1.00271,-1.87038 -2.12105,-1.92821c-1.00271,0 -1.73541,0.385638 -2.25601,1.33047c-0.539928,0.925544 -0.925566,2.44883 -1.33045,4.62773c-1.33053,8.07923 -3.37444,14.3267 -6.09324,18.8387c-2.79585,4.4349 -6.71022,7.75144 -11.8007,9.81464c-3.52864,1.46545 -7.63579,2.44884 -12.2056,3.04659c-4.58917,0.655591 -9.21692,1.06052 -13.8061,1.1955c-4.56984,0.134971 -8.67699,0.134971 -12.1863,0.134971c-9.6797,0.0578479 -17.5083,-0.32779 -23.4857,-1.25333c-6.03534,-0.867707 -10.6053,-2.46813 -13.7868,-4.78199c-3.18149,-2.31386 -5.37969,-5.64969 -6.63308,-9.89176c-1.2533,-4.29993 -2.06315,-9.87248 -2.25601,-16.6984c-0.0578148,-1.79324 -0.13496,-4.78198 -0.13496,-9.02406c-0.0578148,-4.16496 -0.0578148,-9.08191 -0.0578148,-14.6545c0.0578148,-5.57255 0.0578148,-11.203 0.0578148,-16.9683c0.0771452,-5.76537 0.0771452,-11.0873 0.0771452,-15.9271c0.0578148,-4.83983 0.0578148,-8.67699 0.0578148,-11.4729l0,-35.0165c0,-0.790562 0.192863,-1.44616 0.674889,-1.98607c0.385638,-0.539906 1.11843,-0.790562 2.10181,-0.790562c1.46541,0 3.91428,0 7.50074,0.0578369c3.5094,0.0771452 7.69361,0.192819 12.3406,0.269964c4.70489,0.13496 9.46759,0.269942 14.3074,0.462761c4.91691,0.134982 9.35179,0.327801 13.3432,0.539906c4.04933,0.192819 7.15368,0.404924 9.40978,0.655602c5.10977,0.539884 9.1012,1.60041 11.955,3.04658c2.77661,1.54257 4.82052,3.18156 6.15097,5.10979c1.25339,1.92821 2.12105,3.85642 2.58384,5.76537c0.790606,2.6031 1.27263,4.91695 1.38835,7.038c0.212105,2.12103 0.26992,4.1071 0.212105,6.11246c0,0.983381 0.192775,1.85109 0.655558,2.50667c0.404968,0.655602 1.11834,1.06053 2.12105,1.06053c0.925566,-0.0578369 1.60037,-0.462761 1.98609,-1.25335c0.40488,-0.809849 0.597743,-1.79323 0.6748,-2.91162c0.135048,-1.21477 0.135048,-2.33314 0.135048,-3.39366c0,-0.732725 0.0578148,-2.12103 0.11563,-4.04926c0.0771452,-1.90893 0.212105,-4.18422 0.404968,-6.76804c0.13496,-2.50669 0.26992,-5.0905 0.462783,-7.67432c0.212105,-2.6031 0.40488,-4.91695 0.597743,-6.98014c0.674889,-6.4981 1.33045,-11.6079 2.06315,-15.1751c0.655646,-3.5865 1.06053,-5.97748 1.11843,-7.09586c0,-1.19549 -0.192863,-1.98605 -0.520686,-2.52596c-0.40488,-0.462783 -0.867663,-0.655602 -1.46541,-0.655602c-0.790606,0 -1.58112,0.462783 -2.50669,1.38833c-0.944809,0.925544 -2.06324,2.19815 -3.4515,3.7793c-1.73541,1.92823 -4.10715,3.2587 -7.09586,3.99143c-2.98872,0.713439 -6.84518,1.25332 -11.6079,1.58112c-1.60045,0.134982 -4.10706,0.269964 -7.50074,0.327801c-3.4515,0.0771232 -7.36578,0.192819 -11.8008,0.192819c-4.51203,0.0771232 -9.08187,0.134982 -13.7868,0.134982c-4.78195,0.0771232 -9.29397,0.0771232 -13.5361,0.134982l-16.6405,0c-1.00271,0 -1.60045,-0.327801 -1.92828,-0.925544c-0.327735,-0.674889 -0.462783,-1.65827 -0.462783,-3.0466l0,-109.812c0,-1.38831 0.192863,-2.39097 0.597832,-3.06586c0.40488,-0.655602 0.983381,-0.925566 1.79323,-0.925566c0.983381,0 3.18149,0 6.69089,0.0771452c3.52864,0 7.6357,0.0578589 12.4756,0.13496c4.7627,0.0578589 9.60255,0.135004 14.5195,0.192819c4.83976,0.135004 9.21683,0.192819 12.9961,0.327823c3.77932,0.13496 6.36316,0.26992 7.82857,0.462783c7.09586,0.809849 12.4756,1.87033 16.2356,3.12368c3.77932,1.33049 6.49812,2.8538 8.23353,4.56988c1.71608,1.79327 2.98872,3.70218 3.77923,5.84252c0.655646,1.58112 1.11843,3.3744 1.52331,5.16763c0.327823,1.85109 0.539928,3.64432 0.655646,5.24477c0.154202,1.63898 0.212105,2.91162 0.212105,3.895c0,1.60041 0.192775,2.85376 0.713373,3.79856c0.482114,0.925566 1.27263,1.38835 2.46812,1.38835c0.790606,-0.0771452 1.38835,-0.520642 1.85113,-1.46545c0.40488,-0.925566 0.732703,-1.85109 0.925566,-2.91162c0.192775,-1.25335 0.40488,-3.12372 0.597743,-5.57255c0.192775,-2.44883 0.385638,-5.03267 0.53984,-7.88642c0.192863,-2.7959 0.327823,-5.37973 0.462783,-7.69361c0.192863,-2.33311 0.327823,-4.04924 0.385638,-5.10977c0.674889,-5.51469 1.33053,-9.6218 2.06324,-12.4563c0.655558,-2.85376 1.06053,-4.91695 1.13767,-6.22815c0,-1.00267 -0.135048,-1.87038 -0.347154,-2.54522c-0.26992,-0.655602 -0.655558,-1.06053 -1.2533,-1.06053c-1.00271,0.0771011 -1.90895,0.347065 -2.79594,0.867707c-0.848421,0.462739 -1.7739,0.867663 -2.77661,1.13763c-1.65827,0.385638 -3.91428,0.790562 -6.903,1.11839c-2.96947,0.385638 -6.36316,0.655602 -10.2003,0.867707c-1.38835,0.0578148 -3.99143,0.13496 -7.77075,0.13496c-3.83714,0.0578589 -8.42631,0.0578589 -13.7868,0.115674c-5.43759,0 -11.1451,0.0771452 -17.2383,0.0771452c-6.1703,0 -12.2056,0 -18.1638,0c-5.97752,0.0771452 -11.4729,0.0771452 -16.4477,0.0771452l-17.7204,0l-16.3127,-0.790606c-4.43488,-0.212105 -9.13977,-0.347065 -14.1917,-0.347065c-4.97481,-0.0771452 -9.81466,-0.0771452 -14.4423,-0.0771452c-2.1982,0 -3.77932,0.212105 -4.83985,0.674889c-1.00267,0.539928 -1.52331,1.3112 -1.52331,2.52598c0.0578589,0.790562 0.385638,1.38831 0.983381,1.77394c0.655646,0.404924 1.38835,0.61703 2.1982,0.61703c1.2533,0 2.69947,0 4.35774,0.115718c1.73541,0.0771011 3.39368,0.212105 5.05195,0.404924c1.65827,0.13496 2.98872,0.404924 4.10715,0.655602c4.31916,0.867663 7.69361,2.25601 10.0846,4.12639c2.44879,1.79323 4.10706,4.24206 5.16758,7.26939c1.00271,3.008 1.65827,6.76804 1.85113,11.2801c0.13496,2.46812 0.26992,5.10977 0.40488,7.90571c0.0579031,2.7188 0.192863,6.09315 0.270008,9.94962c0,3.91428 0.0578148,8.81195 0.0578148,14.7123c0.0771452,5.84252 0.0771452,13.1312 0.0771452,21.8274l0,101.579l0.0003492,-0.0005051ZM1405.15,514.825c3.25872,3.64432 8.29135,9.27473 15.1172,16.9105c6.76804,7.55862 14.9244,16.5056 24.2763,26.9179c9.35183,10.3545 19.5714,21.5575 30.5816,33.5703c10.933,11.9935 22.2709,24.257 33.8788,36.7904c8.56127,9.15906 17.3733,18.5688 26.5901,28.2484c9.15906,9.67965 18.1831,19.0315 26.918,28.1134c8.77337,9.15903 16.7948,17.3733 24.0834,24.874c7.23082,7.42364 13.189,13.459 17.836,18.1831c4.64699,4.68557 7.50079,7.53934 8.42631,8.40703c6.96086,6.96088 12.3213,12.2828 16.1778,15.9849c3.91428,3.72146 6.76804,6.24743 8.61913,7.55862c1.85109,1.33047 3.25868,1.98606 4.24211,1.92821c0.732703,0.0578479 1.27259,-0.212105 1.71608,-0.732725c0.48207,-0.520609 0.867707,-1.73539 1.13767,-3.58648c0.26992,-1.79324 0.462739,-4.64701 0.597743,-8.42632c0.0578589,-3.83716 0.13496,-9.00479 0.13496,-15.5222l0.790562,-233.141c-0.0578148,-7.90567 0.269964,-14.3266 0.925566,-19.1665c0.655602,-4.89766 2.06319,-8.61913 4.18425,-11.1451c2.06319,-2.52598 5.30259,-4.24211 9.6218,-5.10977c2.37173,-0.597743 4.29992,-0.925566 5.82323,-1.06053c1.52331,-0.115718 2.7188,-0.192819 3.70218,-0.115718c1.40759,0 2.46812,-0.26992 3.25868,-0.809849c0.732747,-0.539884 1.13767,-1.19549 1.13767,-1.98605c0,-1.19549 -0.674889,-1.92823 -1.92823,-2.31387c-1.25335,-0.347065 -3.04658,-0.539884 -5.22549,-0.48207c-5.45683,0 -10.4895,0.135004 -15.0594,0.327823c-4.51203,0.154246 -8.42631,0.347065 -11.685,0.539884c-3.23944,0.192819 -5.55327,0.347109 -7.09586,0.347109c-1.52331,0 -4.43488,-0.15429 -8.67699,-0.347109c-4.24206,-0.192819 -9.21687,-0.385638 -14.9822,-0.539884c-5.70756,-0.192819 -11.6079,-0.327823 -17.7011,-0.327823c-2.39097,-0.0578148 -4.31921,0.135004 -5.78466,0.48207c-1.38831,0.385638 -2.12101,1.11839 -2.19815,2.31387c0,0.790562 0.154246,1.44616 0.539884,1.98605c0.462783,0.539928 1.33049,0.809849 2.66094,0.809849c1.11839,0 2.7188,0.0578589 4.89771,0.115718c2.12101,0.13496 4.51203,0.347065 7.09582,0.597743c2.58384,0.347065 5.05195,0.732703 7.50079,1.27263c4.1071,0.983381 7.23082,2.77661 9.42898,5.43755c2.23677,2.6417 3.76004,6.55598 4.62774,11.7236c0.925566,5.18691 1.38831,12.0706 1.46545,20.6319l4.35778,202.116c-3.23939,-3.37438 -8.1371,-8.67699 -14.7123,-15.8499c-6.57522,-7.1537 -14.2688,-15.58 -23.0037,-25.1826c-8.75409,-9.6218 -18.106,-19.8414 -27.9977,-30.6394c-9.87247,-10.8173 -19.8221,-21.4996 -29.7717,-32.1627c-12.3213,-13.2083 -24.3341,-26.1467 -36.1348,-38.7379c-11.7428,-12.6684 -22.8109,-24.5462 -33.1654,-35.7299c-10.3353,-11.1451 -19.61,-21.1718 -27.7856,-29.9838c-8.15639,-8.83128 -14.7702,-15.985 -19.88,-21.5575c-5.10977,-5.55327 -8.29135,-9.08191 -9.56398,-10.4702c-1.38831,-1.38835 -2.91162,-3.12372 -4.6277,-5.10981c-1.79327,-1.92819 -3.45154,-3.72146 -5.16763,-5.24473c-1.65827,-1.52331 -2.98876,-2.31387 -4.12639,-2.37173c-1.06053,-0.0771011 -1.92823,0.539928 -2.52598,1.71613c-0.655602,1.19549 -1.11839,3.18158 -1.38831,6.09319c-0.327823,2.93086 -0.462783,6.96086 -0.462783,12.0706l-0.404924,227.993c0.0771452,11.9935 -0.250678,21.4804 -0.848421,28.5955c-0.655602,7.07656 -1.79323,12.2635 -3.5865,15.6379c-1.71608,3.37439 -4.16492,5.49543 -7.50074,6.30528c-3.10446,1.00268 -6.17032,1.58115 -9.19763,1.92822c-3.06586,0.308515 -5.37973,0.462772 -7.09584,0.462772c-1.00267,0 -1.79325,0.192819 -2.33314,0.597743c-0.597765,0.385649 -0.848421,0.983392 -0.848421,1.77397c0,1.33047 0.597743,2.25601 1.71611,2.66094c1.06053,0.404935 2.64167,0.597754 4.64701,0.52062c6.01605,0 11.7236,-0.115685 17.0262,-0.32779c5.37973,-0.19283 9.89176,-0.327801 13.6711,-0.52062c3.70218,-0.212105 6.22811,-0.347076 7.50074,-0.347076c1.25335,0 3.70218,0.134971 7.4815,0.347076c3.77932,0.192819 8.56131,0.32779 14.4616,0.52062c5.90033,0.212105 12.6684,0.32779 20.227,0.32779c2.39102,0 4.16496,-0.192819 5.36045,-0.713439c1.19549,-0.482047 1.79327,-1.27262 1.79327,-2.46812c0,-0.790573 -0.269964,-1.38832 -0.867707,-1.77397c-0.520642,-0.404924 -1.3112,-0.597743 -2.31387,-0.597743c-1.25335,0 -2.91162,-0.0771342 -5.03267,-0.212105c-2.19815,-0.0578479 -4.58917,-0.327801 -7.17296,-0.655591c-2.58379,-0.327801 -5.10977,-0.867696 -7.69361,-1.5233c-3.58646,-1.00267 -6.42097,-2.98874 -8.61913,-6.09317c-2.17891,-3.12371 -3.83714,-7.9057 -4.89766,-14.3459c-1.06053,-6.36313 -1.73541,-14.9051 -2.00538,-25.7224l-5.16763,-190.585l7.1e-05,-0.000515ZM1039.91,597.585c0.0578479,-21.8082 3.04659,-40.8397 8.81197,-57.2295c5.76537,-16.3899 13.9217,-29.9646 24.3341,-40.9168c10.4895,-10.933 22.753,-19.1086 36.8868,-24.6041c14.0374,-5.43755 29.4246,-8.15634 46.1423,-8.15634c12.6684,0 24.874,2.06319 36.7326,6.11244c11.8007,4.04929 22.8108,10.0653 33.0304,18.0289c10.1424,8.02138 19.0894,17.8939 26.7251,29.7139c7.69358,11.8586 13.6518,25.5296 17.971,41.0518c4.24208,15.5029 6.42097,32.8183 6.4981,51.9269c-0.0771232,19.2243 -1.92823,35.9999 -5.63041,50.3265c-3.64432,14.2495 -8.63841,26.4552 -14.8666,36.5398c-6.22815,10.0075 -13.2469,18.2988 -20.9597,24.7969c-7.75144,6.4981 -15.7728,11.5308 -23.9871,15.1172c-8.23349,3.64433 -16.1199,6.1703 -23.8135,7.61646c-7.63576,1.46545 -14.5195,2.14033 -20.5548,2.06319c-17.971,-0.0578479 -34.6887,-3.64433 -50.1337,-10.7402c-15.3872,-7.17297 -28.8462,-17.3733 -40.3769,-30.6972c-11.55,-13.324 -20.5741,-29.3089 -26.9951,-48.0319c-6.44025,-18.6845 -9.69895,-39.7213 -9.81464,-62.9178l8e-05,-0.00015ZM2893.23,765.089c10.8173,0.0578369 21.4225,-1.25335 31.6998,-3.91429c10.2774,-2.58381 19.7644,-6.88373 28.3834,-12.7841c6.82585,-4.91696 12.4564,-10.3545 16.8526,-16.2549c4.43488,-5.90034 7.88647,-11.8778 10.3353,-17.971c2.52584,-6.09317 4.24211,-11.8585 5.24464,-17.3733c0.925566,-5.49541 1.46558,-10.3353 1.38844,-14.4616c0.0771452,-7.8864 -0.732792,-15.5029 -2.44888,-22.8108c-1.73533,-7.34652 -4.72422,-14.6545 -8.96615,-22.0203c-4.30001,-7.28866 -10.2003,-14.9823 -17.7589,-22.9458c-7.63579,-7.96355 -17.2576,-16.5056 -28.9233,-25.7224l-11.1259,-8.75411c-9.50617,-7.42364 -17.3925,-13.9989 -23.6979,-19.8221c-6.28601,-5.84249 -11.2607,-11.2801 -14.9051,-16.3127c-3.64436,-4.97481 -6.22811,-9.94962 -7.77066,-14.9244c-1.50407,-4.91695 -2.2561,-10.2195 -2.17896,-15.7921c0.0771452,-9.73751 2.33325,-18.0289 6.57518,-24.8548c4.30001,-6.90304 10.1232,-12.1285 17.489,-15.7921c7.30797,-3.64432 15.6571,-5.49541 24.874,-5.49541c9.08196,0.0578589 16.7177,0.925522 22.8881,2.64165c6.15097,1.73541 11.068,3.77932 14.8472,6.24744c3.72151,2.44883 6.49803,4.7627 8.34916,7.01872c1.92828,2.25601 3.12376,3.97214 3.64436,5.16763c0.809937,1.52331 1.60045,3.52864 2.31383,6.03534c0.752034,2.52598 1.33053,4.97481 1.87038,7.57789c0.540017,2.50669 0.867663,4.62774 1.00271,6.28601c0.135048,1.60041 0.462695,2.85376 0.867663,3.77928c0.385726,0.925566 1.17624,1.38835 2.31383,1.38835c0.983469,0 1.71626,-0.713461 2.12105,-2.17891c0.462871,-1.44616 0.674889,-3.77932 0.674889,-6.96086c0.0579031,-13.459 0.308581,-23.6786 0.771276,-30.5045c0.482114,-6.82585 0.732792,-10.7402 0.790695,-11.6657c0.0771452,-1.00267 -0.192951,-1.73541 -0.790695,-2.14034c-0.520598,-0.462739 -1.58104,-0.636316 -3.18149,-0.636316c-1.52331,0 -3.23939,-0.154246 -5.30254,-0.424211c-2.06333,-0.250634 -4.89775,-0.790562 -8.61926,-1.58112c-4.89758,-1.19549 -10.4123,-2.19815 -16.3897,-2.91162c-6.03534,-0.674889 -12.9191,-1.06053 -20.6128,-1.06053c-16.9103,0.0578589 -31.4878,3.12372 -43.8284,9.08191c-12.2634,5.95823 -21.7504,14.3267 -28.3834,25.0669c-6.69081,10.6823 -10.0845,23.1386 -10.1424,37.4653c-0.0771452,6.71018 0.655646,13.3818 2.17896,20.0342c1.46541,6.61377 4.1263,13.3818 7.90571,20.2849c3.70209,6.88376 9.00481,14.1338 15.7728,21.7503c6.74889,7.5586 15.3872,15.6571 25.8574,24.257l17.9132,14.7316c8.56118,7.038 15.7149,13.4011 21.6153,19.2436c5.84256,5.82323 10.5474,11.4536 14.1338,16.8334c3.50931,5.43757 6.09324,11.0101 7.69352,16.6984c1.58121,5.78466 2.37173,12.0128 2.314,18.8387c0,6.44026 -1.19549,12.8034 -3.50949,19.0315c-2.33307,6.24743 -5.91953,11.8778 -10.6245,16.9876c-4.7048,5.10978 -10.6051,9.15903 -17.7588,12.1863c-7.09595,3.06586 -15.4644,4.64701 -25.009,4.72413c-6.69098,0 -13.2662,-0.732714 -19.6293,-2.19817c-6.36316,-1.5233 -12.2057,-3.83716 -17.5854,-7.038c-5.3412,-3.23941 -9.9302,-7.40435 -13.7096,-12.5913c-3.77923,-5.16763 -6.4403,-11.3958 -7.96361,-18.7616c-0.597743,-2.85378 -0.92539,-5.49543 -1.06044,-8.09853c-0.135048,-2.58381 -0.135048,-4.7627 -0.135048,-6.61379c0,-1.60043 -0.134872,-2.7188 -0.520598,-3.39366c-0.327823,-0.655602 -1.13758,-0.983403 -2.25592,-0.983403c-1.00271,0 -1.71608,0.52062 -2.1982,1.52331c-0.462695,1.0605 -0.790518,2.64165 -0.983469,4.83983c-0.134872,2.17889 -0.404792,5.24475 -0.674889,9.35185c-0.327647,4.02998 -0.597743,8.86982 -0.867663,14.4424c-0.327823,5.57255 -0.462695,11.7429 -0.462695,18.3759c0,3.50936 0.0771452,6.24743 0.347065,8.09852c0.192775,1.8511 0.790518,3.23942 1.58104,4.24208c0.86784,1.00268 2.1982,1.92822 4.04933,2.77663c8.15639,3.91429 16.7755,6.71021 25.7995,8.3492c8.94708,1.65827 18.1639,2.44883 27.5158,2.391l0.000129,1.13687e-13ZM2666.44,765.089c10.8173,0.0578369 21.4225,-1.25335 31.6998,-3.91429c10.2774,-2.58381 19.7644,-6.88373 28.3834,-12.7841c6.82585,-4.91696 12.4756,-10.3545 16.8526,-16.2549c4.43488,-5.90034 7.88647,-11.8778 10.3353,-17.971c2.52584,-6.09317 4.24211,-11.8585 5.24464,-17.3733c0.925566,-5.49541 1.46558,-10.3353 1.40768,-14.4616c0.0579031,-7.8864 -0.752034,-15.5029 -2.46812,-22.8108c-1.71608,-7.34652 -4.7048,-14.6545 -8.96633,-22.0203c-4.29983,-7.28866 -10.2001,-14.9823 -17.7588,-22.9458c-7.63579,-7.96355 -17.2383,-16.5056 -28.904,-25.7224l-11.1451,-8.75411c-9.48692,-7.42364 -17.3732,-13.9989 -23.6785,-19.8221c-6.30543,-5.84249 -11.2802,-11.2801 -14.9245,-16.3127c-3.64436,-4.97481 -6.22811,-9.94962 -7.75142,-14.9244c-1.52331,-4.91695 -2.2561,-10.2195 -2.1982,-15.7921c0.0771452,-9.73751 2.33325,-18.0289 6.57518,-24.8548c4.30001,-6.90304 10.1426,-12.1285 17.5083,-15.7921c7.28873,-3.64432 15.6571,-5.49541 24.8547,-5.49541c9.1012,0.0578589 16.7177,0.925522 22.888,2.64165c6.17038,1.73541 11.0681,3.77932 14.8474,6.24744c3.72151,2.44883 6.49803,4.7627 8.34916,7.01872c1.92828,2.25601 3.12376,3.97214 3.6636,5.16763c0.790695,1.52331 1.58121,3.52864 2.31383,6.03534c0.732792,2.52598 1.33053,4.97481 1.87038,7.57789c0.520775,2.50669 0.848421,4.62774 0.983469,6.28601c0.135048,1.60041 0.462695,2.85376 0.867663,3.77928c0.385726,0.925566 1.19549,1.38835 2.31383,1.38835c0.983469,0 1.7355,-0.713461 2.12105,-2.17891c0.482114,-1.44616 0.674889,-3.77932 0.674889,-6.96086c0.0579031,-13.459 0.327823,-23.6786 0.790695,-30.5045c0.462695,-6.82585 0.732615,-10.7402 0.790518,-11.6657c0.0577265,-1.00267 -0.212194,-1.73541 -0.790518,-2.14034c-0.540017,-0.462739 -1.60045,-0.636316 -3.18167,-0.636316c-1.52331,0 -3.25864,-0.154246 -5.32179,-0.424211c-2.04391,-0.250634 -4.89775,-0.790562 -8.61926,-1.58112c-4.89758,-1.19549 -10.4123,-2.19815 -16.3705,-2.91162c-6.03534,-0.674889 -12.9383,-1.06053 -20.6128,-1.06053c-16.9298,0.0578589 -31.507,3.12372 -43.8476,9.08191c-12.2634,5.95823 -21.731,14.3267 -28.3834,25.0669c-6.69081,10.6823 -10.0652,23.1386 -10.1424,37.4653c-0.0579031,6.71018 0.674889,13.3818 2.1982,20.0342c1.44616,6.61377 4.10706,13.3818 7.88647,20.2849c3.70209,6.88376 9.02405,14.1338 15.7728,21.7503c6.76813,7.5586 15.4065,15.6571 25.8767,24.257l17.894,14.7316c8.56118,7.038 15.7149,13.4011 21.6153,19.2436c5.84238,5.82323 10.5474,11.4536 14.1338,16.8334c3.50931,5.43757 6.09324,11.0101 7.69352,16.6984c1.58121,5.78466 2.39097,12.0128 2.314,18.8387c0,6.44026 -1.19566,12.8034 -3.50949,19.0315c-2.33307,6.24743 -5.90029,11.8778 -10.6051,16.9876c-4.70498,5.10978 -10.6053,9.15903 -17.7782,12.1863c-7.09595,3.06586 -15.4451,4.64701 -24.9898,4.72413c-6.71022,0 -13.2662,-0.732714 -19.6486,-2.19817c-6.36316,-1.5233 -12.2057,-3.83716 -17.5662,-7.038c-5.36045,-3.23941 -9.94962,-7.40435 -13.7289,-12.5913c-3.77923,-5.16763 -6.4403,-11.3958 -7.96361,-18.7616c-0.578325,-2.85378 -0.92539,-5.49543 -1.06044,-8.09853c-0.135048,-2.58381 -0.135048,-4.7627 -0.135048,-6.61379c0,-1.60043 -0.11563,-2.7188 -0.520598,-3.39366c-0.327823,-0.655602 -1.11834,-0.983403 -2.25592,-0.983403c-0.983469,0 -1.71608,0.52062 -2.1982,1.52331c-0.443453,1.0605 -0.771276,2.64165 -0.983469,4.83983c-0.134872,2.17889 -0.404792,5.24475 -0.674889,9.35185c-0.327647,4.02998 -0.597743,8.86982 -0.848421,14.4424c-0.327647,5.57255 -0.462695,11.7429 -0.462695,18.3759c0,3.50936 0.0579031,6.24743 0.327823,8.09852c0.212017,1.8511 0.790518,3.23942 1.60045,4.24208c0.867663,1.00268 2.17878,1.92822 4.04915,2.77663c8.15639,3.91429 16.7755,6.71021 25.7803,8.3492c8.94691,1.65827 18.1832,2.44883 27.5158,2.391l9.1e-05,1.13687e-13ZM1002.11,608.73c0,11.9935 1.25334,24.1413 3.83716,36.4626c2.58381,12.2828 6.55595,24.2184 11.9357,35.8841c5.36045,11.6657 12.1863,22.5409 20.5548,32.6833c8.29134,10.1617 18.1831,19.0508 29.5789,26.7251c11.3958,7.63575 24.4691,13.6711 39.1814,17.971c14.6737,4.37705 31.1022,6.57523 49.2853,6.63308c19.2243,-0.0578479 37.0025,-2.85377 53.3153,-8.3492c16.3706,-5.5147 31.025,-13.2661 43.9634,-23.2736c12.9962,-10.0267 24.0642,-21.7503 33.2232,-35.3443c9.15906,-13.5361 16.1006,-28.3834 20.9405,-44.619c4.83983,-16.197 7.25011,-33.2425 7.30795,-51.1364c-0.0578369,-18.5687 -2.58381,-35.6142 -7.69358,-51.1364c-5.05195,-15.5221 -12.2056,-29.3089 -21.5575,-41.4374c-9.35185,-12.1478 -20.4777,-22.4252 -33.416,-30.8322c-12.9384,-8.42631 -27.265,-14.8087 -43.0379,-19.1858c-15.7921,-4.35778 -32.7026,-6.61379 -50.6736,-6.61379c-18.2988,0.0578589 -34.8815,2.44883 -49.7288,7.01872c-14.8473,4.64703 -28.1134,10.9523 -39.7213,18.9737c-11.6079,8.02138 -21.6153,17.2383 -30.0995,27.5735c-8.48416,10.4124 -15.4643,21.4225 -20.9597,33.0304c-5.49543,11.6079 -9.62182,23.2736 -12.2635,35.0743c-2.66094,11.7428 -3.97213,23.0808 -3.97213,33.8981l-0.0001,0.00019Z" style="fill:#281f27;fill-rule:nonzero;"/><path d="M2311.93,352.103l400.414,0l0,7.925l-400.414,0l0,-7.925l-4.54747e-13,0ZM1276.9,352.103l400.414,0l0,7.925l-400.414,0l0,-7.925Z" style="fill:#281f27;"/><path d="M2936.66,841.524c-2.58375,0 -4.37698,0.154257 -5.36045,0.501334c-1.71608,0.61703 -2.60299,1.98607 -2.60299,4.06855l0,48.8996l-2.2561,0l-45.4288,-47.5306l0,37.6388c0,3.99141 1.06061,6.32456 3.18167,7.01872c1.25321,0.404926 3.12359,0.61703 5.66885,0.61703l0,1.65827l-20.3812,0l0,-1.65827l0.38555,0c4.80136,0 7.19234,-1.96678 7.19234,-5.88107l0,-43.1535c-1.98618,-1.36904 -4.43488,-2.10176 -7.36587,-2.17888l0,-1.67755l13.7675,0l41.3024,43.0764l0,-34.9008c0,-3.33582 -1.07968,-5.3026 -3.23939,-5.91963c-1.23397,-0.347076 -3.0272,-0.539901 -5.36045,-0.578462l0,-1.67755l20.497,0l0,1.67755l-6e-05,5.8e-05ZM2712.64,868.538c0,-7.79 -2.15971,-14.2881 -6.47879,-19.475c-4.55069,-5.55327 -10.6632,-8.31063 -18.3182,-8.31063c-6.98014,0 -12.4562,2.75736 -16.3897,8.25278c-3.47083,4.85911 -5.18691,10.3931 -5.18691,16.602c0,5.0905 1.02195,9.71823 3.0851,13.9025c2.15954,4.49275 5.30254,8.00211 9.40978,10.5088c3.91428,2.39099 8.17563,3.60577 12.7648,3.60577c8.96615,0 15.2135,-4.29993 18.7615,-12.8998c1.56197,-3.79859 2.35249,-7.88642 2.35249,-12.1863l-7e-05,-0.00012ZM2720.91,865.607c0,8.71555 -3.04662,15.9657 -9.13968,21.7118c-5.95819,5.66896 -13.3048,8.48416 -22.0974,8.48416c-5.55322,0 -10.6824,-1.06052 -15.3487,-3.20084c-5.03262,-2.2753 -9.04329,-5.61112 -12.0128,-9.98818c-2.83443,-4.16495 -4.28059,-8.90837 -4.28059,-14.2495c0,-5.68825 1.36902,-10.7787 4.04933,-15.3293c2.71862,-4.53132 6.55593,-8.1178 11.5499,-10.7016c4.91699,-2.54525 10.4125,-3.81787 16.4863,-3.81787c8.21429,0 15.3101,2.42956 21.249,7.28867c6.34374,5.14834 9.54465,11.7814 9.54465,19.8028l-1e-05,-0.00014ZM2508.13,894.395l-21.3262,0l0,-1.65827c2.69955,-0.115693 4.51203,-0.732723 5.39911,-1.85109c0.790518,-1.00267 1.19549,-2.89233 1.19549,-5.70753l0,-37.3303c0,-2.37171 -0.520775,-4.0107 -1.54273,-4.91696c-0.944809,-0.809854 -2.62223,-1.27263 -5.05187,-1.4076l0,-1.67755l21.3262,0l0,1.67755c-3.68302,0 -5.93895,0.867696 -6.72947,2.64166c-0.482114,1.06052 -0.732792,2.54525 -0.732792,4.45419l0,37.1568c0,3.47079 0.964051,5.55327 2.87309,6.30528c1.07986,0.424209 2.62241,0.655595 4.58917,0.655595l0,1.65827l2e-06,-4.5e-05ZM2338.75,852.727l-1.58112,0c-0.809849,-4.87839 -1.94752,-7.84785 -3.43217,-8.90837c-0.732792,-0.539901 -1.73541,-0.809854 -2.95023,-0.809854l-15.2907,0l0,43.3271c0,2.46812 0.559171,4.16495 1.67751,5.0905c1.02195,0.867699 2.77661,1.31119 5.26406,1.31119l3.25872,0l0,1.65827l-27.6314,0l0,-1.65827l3.22015,0c2.48736,0 4.26135,-0.462773 5.32187,-1.34975c1.07977,-0.906263 1.6197,-2.58381 1.6197,-5.05193l0,-43.3271l-15.2523,0c-2.15963,0 -3.77932,1.15693 -4.83985,3.43223c-0.520598,1.11837 -1.0412,3.22013 -1.58112,6.286l-1.54255,0l1.36902,-14.211l1.65827,0c0.15429,0.886983 1.07986,1.33047 2.75737,1.33047l42.1701,0c1.65827,0 2.56459,-0.443491 2.69955,-1.33047l1.65827,0l1.42683,14.211l2e-05,-1.6e-05ZM2117.11,866.34l-7.71285,-20.4584l-7.46217,20.4584l15.175,0ZM2140.44,894.395l-24.1028,0l0,-1.65827l2.25601,0c2.12105,0 3.54798,-0.0964109 4.29992,-0.26995c1.69684,-0.404926 2.56459,-1.31119 2.56459,-2.73807c0,-0.713441 -0.327823,-1.90894 -0.944897,-3.58649l-5.91962,-15.9464l-18.1445,0l-5.05195,13.7482c-1.19549,3.20084 -1.75466,5.05193 -1.75466,5.53399c0,2.17889 2.3524,3.25869 7.09577,3.25869l1.36911,0l0,1.65827l-20.2463,0l0,-1.65827c3.56713,-0.115693 5.88105,-1.0798 6.94157,-2.87305c0.674889,-1.21478 1.52331,-3.143 2.52593,-5.8425l15.9657,-43.5778l-0.771364,-1.92822l7.61646,0l18.3374,48.6875c1.07977,2.85376 2.50669,4.5506 4.28059,5.0905c0.906324,0.289233 2.14038,0.44349 3.68294,0.44349l0,1.65827l0.000101,0.00011ZM1927.14,866.706c0,-8.92765 -2.75737,-15.58 -8.27202,-19.9764c-5.03271,-3.99141 -12.1092,-5.97748 -21.2683,-5.97748c-1.8318,0 -4.1842,0.096415 -7.03796,0.347082l0,46.7979c0,2.44884 0.771276,3.895 2.25601,4.37706c1.07977,0.289233 2.7188,0.462773 4.93624,0.462773c7.52007,0 13.0155,-0.964109 16.5249,-2.85376c4.7048,-2.4874 8.29135,-6.51738 10.7209,-12.0707c1.40759,-3.23941 2.1403,-6.96087 2.1403,-11.1065l-7e-05,2.5e-05ZM1935.39,865.279c0,5.16763 -1.3112,9.94961 -3.9721,14.3267c-2.58384,4.26136 -6.13181,7.75144 -10.6631,10.4124c-4.93624,2.91161 -10.8944,4.37706 -17.8168,4.37706l-28.0556,0l0,-1.65827l1.50407,0c3.25864,0 5.32187,-0.848416 6.1703,-2.54525c0.482025,-0.925545 0.732703,-2.21745 0.732703,-3.85644l0,-37.716c0,-3.62505 -0.867663,-5.78466 -2.58384,-6.51738c-0.964051,-0.385643 -2.33307,-0.578462 -4.06848,-0.578462l-1.75475,0l0,-1.67755c10.4124,-0.52062 19.4365,-0.771292 27.1108,-0.771292c9.50608,0 17.1997,1.9475 23.0615,5.82322c6.88376,4.56988 10.3353,11.3572 10.3353,20.3813l-3e-06,-3.6e-05ZM1730.75,841.524c-2.58384,0 -4.37707,0.154257 -5.36049,0.501334c-1.73537,0.61703 -2.62236,1.98607 -2.62236,4.06855l0,48.8996l-2.25601,0l-45.4288,-47.5306l0,37.6388c0,3.99141 1.06053,6.32456 3.18158,7.01872c1.2533,0.404926 3.14296,0.61703 5.68823,0.61703l0,1.65827l-20.3813,0l0,-1.65827l0.385638,0c4.78199,0 7.19225,-1.96678 7.19225,-5.88107l0,-43.1535c-2.00534,-1.36904 -4.43492,-2.10176 -7.36578,-2.17888l0,-1.67755l13.7482,0l41.3217,43.0764l0,-34.9008c0,-3.33582 -1.07981,-5.3026 -3.25868,-5.91963c-1.23406,-0.347076 -3.00805,-0.539901 -5.36045,-0.578462l0,-1.67755l20.5163,0l0,1.67755l-2.8e-05,5.8e-05ZM1518.57,841.524c-2.87304,0.0385616 -4.89766,0.694158 -6.11244,1.92822c-1.23406,1.21478 -1.85109,3.25869 -1.85109,6.11246l0,23.6785c0,4.85911 -1.21477,9.08191 -3.64432,12.6877c-2.42959,3.58649 -5.90038,6.24743 -10.3931,7.96355c-3.3744,1.27262 -7.34654,1.90894 -11.9164,1.90894c-7.30797,0 -13.2662,-1.81253 -17.836,-5.47614c-5.01338,-3.97213 -7.50079,-9.50612 -7.50079,-16.6213l0,-25.6068c0,-3.41295 -0.906236,-5.43758 -2.73808,-6.03532c-0.983381,-0.308515 -2.56451,-0.501339 -4.82052,-0.539901l0,-1.67755l22.5216,0l0,1.67755l-0.752034,0c-2.4874,0 -4.24206,0.424205 -5.26402,1.31119c-1.11839,0.944825 -1.67756,2.64166 -1.67756,5.0905l0,24.3727c0,6.1703 1.81252,10.8752 5.43759,14.1724c3.47079,3.16228 8.32988,4.74342 14.558,4.74342c13.324,0 19.9956,-6.32456 19.9956,-19.0122l0,-20.4006c0,-5.28332 -0.983381,-8.38776 -2.95014,-9.3133c-1.07981,-0.501334 -2.96947,-0.829135 -5.6497,-0.964106l0,-1.67755l20.5934,0l0,1.67755l4e-06,8.7e-05ZM1295.95,868.538c0,-7.79 -2.1596,-14.2881 -6.47883,-19.475c-4.5506,-5.55327 -10.663,-8.31063 -18.3374,-8.31063c-6.98017,0 -12.437,2.75736 -16.3899,8.25278c-3.45152,4.85911 -5.16763,10.3931 -5.16763,16.602c0,5.0905 1.02195,9.71823 3.08515,13.9025c2.1596,4.49275 5.30259,8.00211 9.40971,10.5088c3.91428,2.39099 8.17565,3.60577 12.7648,3.60577c8.96622,0 15.2137,-4.29993 18.7616,-12.8998c1.56186,-3.79859 2.35244,-7.88642 2.35244,-12.1863l6e-05,-0.00012ZM1304.21,865.607c0,8.71555 -3.0466,15.9657 -9.12048,21.7118c-5.95819,5.66896 -13.324,8.48416 -22.0974,8.48416c-5.55327,0 -10.6823,-1.06052 -15.3486,-3.20084c-5.03267,-2.2753 -9.04336,-5.61112 -12.0128,-9.98818c-2.85378,-4.16495 -4.28066,-8.90837 -4.28066,-14.2495c0,-5.68825 1.36904,-10.7787 4.04926,-15.3293c2.69951,-4.53132 6.53667,-8.1178 11.55,-10.7016c4.89769,-2.54525 10.4124,-3.81787 16.4863,-3.81787c8.2142,0 15.2908,2.42956 21.249,7.28867c6.34385,5.14834 9.52541,11.7814 9.52541,19.8028l-3e-05,-0.00014ZM1091.89,850.22l-1.48473,0c-0.0578424,-2.64166 -0.63631,-4.49275 -1.73539,-5.57255c-1.09909,-1.07981 -2.96946,-1.63899 -5.55327,-1.63899l-16.6598,0l0,20.6127l17.354,0c3.12371,0 4.83983,-1.87037 5.0905,-5.6304l1.50401,0l0,15.4643l-1.50401,0c-0.096415,-2.31386 -0.559187,-3.95285 -1.4076,-4.95552c-0.944825,-1.15693 -2.54525,-1.71611 -4.82055,-1.71611l-16.2163,0l0,19.1665c0,3.37438 0.944825,5.4183 2.77663,6.13174c1.13765,0.424209 2.73807,0.655595 4.85911,0.655595l0,1.65827l-21.3261,0l0,-1.65827c1.7354,-0.115693 2.95018,-0.327797 3.64434,-0.61703c1.29191,-0.539902 2.14032,-1.67755 2.50669,-3.47079c0.173538,-0.829134 0.269948,-2.33315 0.269948,-4.51203l0,-34.3609c0,-3.08515 -0.327796,-5.12906 -0.983392,-6.1703c-0.886977,-1.34975 -2.75735,-2.06319 -5.61112,-2.08247l0,-1.67755l39.2971,0l0,10.3738l-6.6e-05,5e-06Z" style="fill:#281f27;fill-rule:nonzero;"/><path d="M2193,337.217c0,-0.173533 0.0385726,-0.327779 0.13496,-0.443453c0.0963874,-0.135004 0.212105,-0.212105 0.366308,-0.289251c0.250678,-0.0578589 0.597743,-0.115674 1.07986,-0.154246c0.501356,-0.0771452 1.06053,-0.115718 1.67751,-0.154246c0.617074,-0.0385726 1.27263,-0.0771452 1.92828,-0.0771452c2.33307,0 4.33849,0.501312 6.01601,1.46545c1.67751,0.983381 2.98872,2.37169 3.89504,4.22278c0.886906,1.8318 1.34969,4.08786 1.36902,6.71022c0,1.60041 -0.192863,3.04658 -0.520598,4.31921c-0.347154,1.27263 -0.829179,2.35244 -1.40768,3.23939c-0.578413,0.90628 -1.2533,1.60045 -2.00534,2.08248c-0.790518,0.520642 -1.60037,0.829135 -2.44879,0.964139c-0.848421,0.13496 -1.65827,0.173533 -2.44888,0.154246c-0.983381,0 -1.96676,-0.0385726 -2.95014,-0.135004c-0.983381,-0.0771011 -1.8318,-0.192819 -2.60308,-0.347065c-0.752034,-0.13496 -1.3112,-0.308493 -1.63903,-0.48207c-0.15429,-0.0963874 -0.26992,-0.212105 -0.347065,-0.347065c-0.0771452,-0.13496 -0.0963874,-0.269964 -0.0963874,-0.462783l0,-20.2656l2.4e-06,1.32e-05ZM2187.35,363.267c0,2.04391 0,3.93357 -0.0193304,5.66898c0,1.73541 -0.0385726,3.29725 -0.0963874,4.64699c-0.0385726,1.34978 -0.13496,2.46816 -0.250678,3.33583c-0.0963874,0.61703 -0.192775,1.15696 -0.289251,1.6197c-0.11563,0.48207 -0.26992,0.848421 -0.482025,1.13767c-0.212105,0.289251 -0.520598,0.48207 -0.944809,0.597743c-0.308493,0.0578589 -0.636316,0.13496 -1.00271,0.192819c-0.347065,0.0578589 -0.694131,0.0964316 -0.983381,0.0964316c-0.192775,0.0192863 -0.347065,0.0578148 -0.40488,0.173533c-0.0964757,0.115674 -0.135048,0.212105 -0.135048,0.347065c0,0.173533 0.0964757,0.308537 0.289251,0.385638c0.15429,0.0964316 0.424211,0.135004 0.752034,0.135004c0.520598,0 1.13767,-0.0192863 1.85104,-0.0385726c0.713461,-0.0192863 1.40768,-0.0578589 2.10181,-0.0771452c0.694131,-0.0385726 1.27263,-0.0578589 1.75466,-0.0771011c0.462783,-0.0192863 0.713461,-0.0192863 0.752034,-0.0192863c0.0963874,0 0.385638,0 0.867663,0.0192863c0.501356,0.0192422 1.13767,0.0385285 1.90895,0.0771011c0.771276,0.0192863 1.6197,0.0578589 2.52593,0.0771452c0.906324,0.0192863 1.81256,0.0385726 2.7188,0.0385726c0.366396,0 0.617074,-0.0578589 0.790606,-0.15429c0.173533,-0.0963874 0.250678,-0.231347 0.250678,-0.366352c0,-0.13496 -0.0385726,-0.231392 -0.0963874,-0.347065c-0.0771452,-0.115718 -0.192863,-0.154246 -0.424211,-0.173533c-0.231436,0 -0.482114,-0.0192863 -0.829179,-0.0385726c-0.327823,-0.0385726 -0.674889,-0.0771452 -1.06053,-0.115718c-0.366308,-0.0578148 -0.713461,-0.0963874 -1.00262,-0.13496c-0.674889,-0.115674 -1.17624,-0.308493 -1.52331,-0.597743c-0.347065,-0.289251 -0.597743,-0.655602 -0.771276,-1.13767c-0.13496,-0.462739 -0.250678,-1.00267 -0.308581,-1.6197c-0.0963874,-0.867663 -0.173533,-1.98605 -0.212105,-3.31654c-0.0384844,-1.34973 -0.0578148,-2.87304 -0.077057,-4.60841c0,-1.71613 0,-3.62508 0,-5.6497l0,-1.48474c0,-0.192819 0.0192422,-0.327779 0.0963874,-0.404924c0.0771452,-0.0771011 0.192775,-0.115674 0.347065,-0.115674l8.29135,0.154246c0.212105,0 0.404968,0.0192863 0.520598,0.0771452c0.115718,0.0385285 0.231436,0.13496 0.385638,0.289206c0.482114,0.578457 1.0991,1.38831 1.8318,2.39102c0.771364,1.00267 1.58121,2.10172 2.48745,3.27797c0.906236,1.19549 1.79323,2.37169 2.7188,3.52864c1.23406,1.58112 2.3524,2.98872 3.33578,4.1842c1.00271,1.21482 1.94752,2.23677 2.85376,3.08519c0.886994,0.848377 1.79323,1.52327 2.7188,2.00534c0.539928,0.308493 1.0991,0.539884 1.71617,0.732703c0.597743,0.173533 1.33045,0.327823 2.15954,0.404924c0.848421,0.0964316 1.87038,0.135004 3.10443,0.135004l4.08782,0c0.578501,0 0.983469,-0.0385726 1.21482,-0.135004c0.231347,-0.0771011 0.347065,-0.212105 0.327823,-0.385638c0,-0.13496 -0.0385726,-0.231392 -0.15429,-0.347065c-0.0963874,-0.115718 -0.250678,-0.154246 -0.424211,-0.173533c-0.192775,0 -0.443453,0 -0.829091,-0.0385726c-0.347154,0 -0.848421,-0.0771452 -1.48474,-0.192819c-0.539928,-0.0578589 -1.13767,-0.192819 -1.8318,-0.443497c-0.694219,-0.231392 -1.46549,-0.655602 -2.37173,-1.27263c-0.886994,-0.597743 -1.88971,-1.48474 -3.06586,-2.66094c-1.88971,-1.96676 -3.97219,-4.35778 -6.2282,-7.11515c-2.27526,-2.7959 -4.74337,-5.86176 -7.4236,-9.19758c2.02458,-1.73541 3.60579,-3.39368 4.78195,-4.9941c1.17624,-1.63898 2.00534,-3.20082 2.50669,-4.7627c0.501356,-1.54255 0.732703,-3.08515 0.732703,-4.64699c-0.0192422,-1.0991 -0.173533,-2.10177 -0.482025,-3.02733c-0.289251,-0.925522 -0.713461,-1.75466 -1.17624,-2.4874c-0.482025,-0.713417 -0.964051,-1.34973 -1.48465,-1.87038c-0.501356,-0.520598 -0.964139,-0.925522 -1.38835,-1.23406c-1.15691,-0.771276 -2.4103,-1.36902 -3.76008,-1.75466c-1.33045,-0.385638 -2.73804,-0.655602 -4.16487,-0.790562c-1.44616,-0.135004 -2.85384,-0.192819 -4.24211,-0.192819c-0.404968,0 -0.925566,0 -1.56188,0.0192863c-0.616985,0.0192422 -1.29187,0.0192422 -1.98609,0.0385285c-0.713373,0 -1.38826,0.0385726 -2.04391,0.0385726c-0.655558,0.0192863 -1.19549,0.0385726 -1.65827,0.0385726l-1.87038,0c-0.520598,-0.0192863 -1.15691,-0.0385726 -1.92819,-0.0578589c-0.771276,-0.0192863 -1.58112,-0.0385726 -2.42955,-0.0385726c-0.848421,-0.0192422 -1.65827,-0.0385285 -2.4103,-0.0385285c-0.366308,0 -0.636316,0.0385285 -0.790518,0.13496c-0.173533,0.0578589 -0.250678,0.212105 -0.250678,0.385638c0.0192422,0.115718 0.0578148,0.231392 0.173533,0.347065c0.115718,0.115718 0.231347,0.15429 0.347065,0.173577c0.212105,0 0.443453,0 0.732703,0.0192422c0.270008,0.0192863 0.559171,0.0385726 0.809849,0.0578589c0.289251,0.0192863 0.501356,0.0578589 0.694219,0.0771452c0.694131,0.0963874 1.23406,0.289206 1.6197,0.539884c0.366308,0.289251 0.616985,0.674889 0.771276,1.15696c0.13496,0.482025 0.231347,1.06048 0.289251,1.77394c0,0.385638 0.0385726,0.809849 0.0578148,1.25335c0.0192422,0.443497 0.0385726,0.964095 0.0385726,1.58112c0.0192422,0.61703 0.0192422,1.38835 0.0192422,2.31387c0.0193304,0.944853 0.0193304,2.08248 0.0193304,3.4515l0,16.1199l-1.72e-05,1.91e-05ZM2074.55,341.594c-0.482114,-1.27263 -0.906324,-2.37169 -1.25339,-3.25868c-0.327735,-0.925522 -0.501268,-1.58112 -0.520598,-2.00534c-0.0192422,-0.231392 0.0193304,-0.424211 0.13496,-0.61703c0.0771452,-0.173533 0.289251,-0.347109 0.617074,-0.501356c0.308493,-0.0963874 0.694131,-0.173533 1.13767,-0.231392c0.424122,-0.0385726 0.848333,-0.0578148 1.23406,-0.0578148c0.212105,-0.0192863 0.385638,-0.0771452 0.501268,-0.192819c0.115718,-0.115718 0.173533,-0.250678 0.173533,-0.404968c0,-0.308493 -0.597743,-0.443453 -1.79323,-0.443453c-0.848421,0 -1.71608,0.0192863 -2.54526,0.0385285c-0.848421,0.0192863 -1.58112,0.0578589 -2.21744,0.0771452c-0.636316,0.0192863 -1.0991,0.0192863 -1.33045,0.0192863c-0.192863,0 -0.578501,0 -1.0991,0c-0.520598,-0.0192863 -1.11834,-0.0385726 -1.85104,-0.0578589c-0.713461,-0.0192863 -1.48474,-0.0385726 -2.27534,-0.0385726c-0.829091,-0.0192422 -1.6197,-0.0385285 -2.4103,-0.0385285c-0.520598,0 -0.944809,0.0385285 -1.23406,0.0963874c-0.327735,0.0385726 -0.462695,0.173533 -0.462695,0.347065c0,0.115718 0.0192422,0.250678 0.11563,0.385682c0.0771452,0.115674 0.212105,0.192819 0.385638,0.212105c0.212105,-0.0192863 0.559171,0 1.02195,0.0192422c0.462783,0.0385726 0.983381,0.0964316 1.50407,0.192863c0.713461,0.154246 1.33045,0.404924 1.81247,0.674844c0.501356,0.289251 0.964139,0.752034 1.36911,1.38835c0.40488,0.61703 0.867663,1.52327 1.34969,2.69947l16.0235,38.6415c0.424211,1.022 0.752034,1.81256 1.0412,2.37173c0.270008,0.559171 0.520686,0.964095 0.732792,1.1762c0.212105,0.231392 0.443453,0.347109 0.674889,0.327823c0.212105,0.0192863 0.424211,-0.115718 0.636316,-0.385638c0.212105,-0.289251 0.482025,-0.77132 0.829091,-1.44616c0.327823,-0.694175 0.771276,-1.65827 1.36902,-2.91162c0.482114,-1.06053 1.13767,-2.4874 1.92828,-4.29996c0.809849,-1.8318 1.75466,-3.99138 2.83443,-6.47879c1.07986,-2.50669 2.27534,-5.28335 3.62503,-8.36849c0.829179,-1.94748 1.63903,-3.83714 2.42963,-5.68823c0.790518,-1.81252 1.50398,-3.50936 2.17887,-5.07124c0.655558,-1.56184 1.21473,-2.87304 1.67751,-3.9721c0.462783,-1.0991 0.790606,-1.88966 0.983381,-2.33316c0.559171,-1.42688 1.06053,-2.52598 1.50407,-3.29725c0.443453,-0.771276 0.829091,-1.34978 1.17616,-1.69684c0.327823,-0.366352 0.655646,-0.636316 0.944897,-0.809849c0.40488,-0.250678 0.829091,-0.404924 1.23406,-0.520598c0.424211,-0.0964316 0.809849,-0.15429 1.13758,-0.192863c0.347065,-0.0192422 0.578501,-0.0385285 0.752034,-0.0192422c0.250678,-0.0192863 0.443453,-0.0771452 0.578501,-0.192819c0.11563,-0.115718 0.154202,-0.250678 0.154202,-0.404968c0,-0.13496 -0.0771452,-0.250634 -0.26992,-0.327779c-0.173533,-0.0771452 -0.424211,-0.115674 -0.752034,-0.115674c-0.501356,0 -1.02195,0.0192863 -1.56188,0.0385285c-0.578413,0 -1.07977,0.0192863 -1.58112,0.0385726c-0.501268,0.0192863 -0.944809,0.0385726 -1.29187,0.0578589c-0.366396,0 -0.597743,0 -0.694131,0c-0.289251,0 -0.771364,0 -1.42692,-0.0192863c-0.674889,-0.0192863 -1.44616,-0.0578589 -2.31383,-0.0771452c-0.886994,-0.0192422 -1.77399,-0.0385285 -2.64165,-0.0385285c-0.520686,0 -0.886994,0.0385285 -1.11843,0.13496c-0.250678,0.0578589 -0.366308,0.212105 -0.366308,0.385638c0.0192422,0.154246 0.0963874,0.269964 0.231347,0.366352c0.15429,0.115718 0.308493,0.15429 0.501356,0.15429c0.385638,-0.0192863 0.752034,0 1.11834,0.0192422c0.366396,0.0385726 0.752034,0.0964316 1.11834,0.192863c0.327823,0.13496 0.559259,0.327779 0.694219,0.559171c0.13496,0.250678 0.192775,0.520598 0.192775,0.790562c0,0.250678 -0.0578148,0.597743 -0.192775,1.00267c-0.0963874,0.424211 -0.231436,0.867707 -0.385638,1.36906c-0.231436,0.655558 -0.559171,1.6197 -1.02195,2.89233c-0.462783,1.27259 -1.02195,2.75732 -1.65827,4.45417c-0.655646,1.69684 -1.36902,3.50936 -2.12105,5.45688c-0.771276,1.96676 -1.56188,3.95281 -2.39097,5.99676c-0.809849,2.04391 -1.6197,4.01067 -2.4103,5.95819c-0.809849,1.92819 -1.56188,3.74075 -2.25601,5.39902c-0.713461,1.67751 -1.33045,3.12368 -1.88971,4.35774l-12.3213,-31.777l2.6e-05,-3.68e-05ZM1999.87,355.921c0,-3.4515 0.482025,-6.42097 1.38835,-9.00477c0.944809,-2.56455 2.23668,-4.70489 3.89495,-6.42097c1.69684,-1.71613 3.6636,-2.98876 5.95819,-3.85647c2.27534,-0.848421 4.80128,-1.27263 7.5394,-1.27263c2.08248,0 4.06848,0.308537 5.97743,0.944853c1.92819,0.61703 3.72151,1.56184 5.3412,2.81518c1.63894,1.25335 3.06586,2.79594 4.29992,4.66632c1.21473,1.85109 2.15963,3.99138 2.85376,6.44022c0.674889,2.44888 1.02195,5.16763 1.0412,8.21425c-0.0192422,3.02729 -0.308493,5.66894 -0.906236,7.90567c-0.578501,2.25606 -1.36902,4.18425 -2.37173,5.74613c-1.00262,1.58112 -2.12105,2.87304 -3.35511,3.895c-1.23406,1.00267 -2.52593,1.79323 -3.85638,2.33316c-1.3112,0.559171 -2.58384,0.964095 -3.83714,1.1762c-1.23415,0.212105 -2.35249,0.327779 -3.33587,0.308493c-2.96947,0 -5.70751,-0.559171 -8.19496,-1.65827c-2.50669,-1.09905 -4.7048,-2.68022 -6.55593,-4.7627c-1.85104,-2.10172 -3.27797,-4.58913 -4.31916,-7.53931c-1.02195,-2.9309 -1.56188,-6.24744 -1.56188,-9.93033l-4e-06,-2.6e-05ZM1993.12,357.637c0,1.88962 0.212105,3.81785 0.655646,5.76537c0.424211,1.94748 1.07977,3.85642 1.986,5.70751c0.886994,1.85109 2.02467,3.5865 3.41302,5.16763c1.36902,1.60041 3.02729,3.02729 4.89766,4.22282c1.88962,1.23406 4.04924,2.17887 6.47879,2.87304c2.42955,0.674844 5.10977,1.02195 8.09857,1.04124c3.14292,-0.0192863 6.07382,-0.462783 8.75404,-1.3112c2.68022,-0.886994 5.1291,-2.12105 7.25015,-3.70218c2.15963,-1.56184 3.9721,-3.43221 5.49541,-5.59184c1.50398,-2.14034 2.68022,-4.49274 3.47083,-7.05729c0.809849,-2.56451 1.21473,-5.26402 1.21473,-8.09853c-0.0192422,-3.68289 -0.674889,-6.98014 -1.96676,-9.89176c-1.29187,-2.91162 -3.10443,-5.39902 -5.41826,-7.46221c-2.33316,-2.02462 -5.07128,-3.60575 -8.19496,-4.66627c-3.12376,-1.07981 -6.53669,-1.63898 -10.2581,-1.63898c-2.9888,0 -5.70751,0.385638 -8.15639,1.11834c-2.44888,0.732747 -4.62774,1.73541 -6.55593,3.00805c-1.92828,1.29192 -3.56722,2.73808 -4.97481,4.37707c-1.40759,1.65827 -2.56451,3.39364 -3.49007,5.22544c-0.906324,1.85109 -1.58112,3.68294 -2.04391,5.55331c-0.443541,1.85109 -0.655646,3.64432 -0.655646,5.36045l-1e-05,-1e-05ZM1957.99,382.415c1.42692,0 2.87309,-0.0385726 4.33849,-0.135004c1.46549,-0.0771011 2.85376,-0.231392 4.14572,-0.443453c1.3112,-0.212105 2.41022,-0.48207 3.31654,-0.829135c0.366308,-0.135004 0.636316,-0.289251 0.829091,-0.424211c0.192863,-0.135004 0.366396,-0.308537 0.462783,-0.520642c0.115718,-0.212105 0.231436,-0.539884 0.327823,-0.90628c0.13496,-0.443453 0.26992,-0.983381 0.424211,-1.6197c0.154202,-0.655558 0.289251,-1.33045 0.424211,-2.04391c0.13496,-0.694131 0.250678,-1.36902 0.347065,-2.00534c0.115718,-0.655602 0.212105,-1.19549 0.26992,-1.6197c0.0579031,-0.443497 0.0964757,-0.713461 0.0964757,-0.809849c0,-0.231392 -0.0579031,-0.424211 -0.173533,-0.61703c-0.115718,-0.173533 -0.250678,-0.250678 -0.424211,-0.269964c-0.212105,0 -0.347154,0.0578589 -0.443541,0.192819c-0.0771452,0.13496 -0.15429,0.366352 -0.212105,0.694175c-0.0771452,0.404924 -0.231347,0.944809 -0.443453,1.58112c-0.212105,0.655602 -0.501356,1.29192 -0.848421,1.96681c-0.366396,0.674844 -0.771276,1.2533 -1.23406,1.73537c-0.867752,0.848421 -1.81256,1.48474 -2.85376,1.92823c-1.04128,0.404924 -2.21744,0.694131 -3.52864,0.848421c-1.29196,0.13496 -2.73813,0.192819 -4.37707,0.173533c-2.79594,0 -5.39902,-0.424211 -7.80932,-1.21477c-2.41022,-0.790562 -4.56984,-1.90895 -6.49812,-3.33583c-1.92819,-1.44616 -3.56713,-3.10443 -4.95548,-5.03267c-1.36902,-1.90895 -2.42955,-3.99138 -3.16225,-6.24744c-0.732792,-2.23673 -1.0991,-4.56984 -1.11843,-7.01872c0,-2.12101 0.15429,-4.16492 0.462783,-6.13172c0.327823,-1.92823 0.886994,-3.77932 1.75466,-5.49541c0.848421,-1.7547 2.06324,-3.35511 3.66369,-4.83985c0.751945,-0.75199 1.73533,-1.44616 2.96939,-2.10177c1.21482,-0.655602 2.79594,-1.19549 4.68556,-1.6197c1.90895,-0.424211 4.26144,-0.655602 7.03805,-0.674889c1.94752,0 3.72142,0.173577 5.39902,0.48207c1.65827,0.308537 3.10443,0.732747 4.37707,1.25335c1.27263,0.520598 2.27526,1.0991 3.06586,1.77394c0.559171,0.424211 1.06053,1.00271 1.46541,1.67756c0.404968,0.655602 0.732792,1.38835 0.944897,2.1982c0.212105,0.790562 0.327735,1.60041 0.327735,2.42955c0,0.424211 0.0193304,0.771276 0.0964757,1.00267c0.0578148,0.212105 0.212105,0.327779 0.424211,0.327779c0.192775,0 0.347065,-0.0963874 0.482025,-0.308493c0.13496,-0.212105 0.212105,-0.559171 0.26992,-1.02195c0.0193304,-0.250678 0.0193304,-0.61703 0.0385726,-1.0991c0.0193304,-0.501312 0.0193304,-1.06053 0.0193304,-1.69684c0.0192422,-0.61703 0.0384844,-1.27259 0.0384844,-1.9089c0,-0.655602 0.0193304,-1.23406 0.0385726,-1.7547c0.0579031,-0.75199 0.0964757,-1.38831 0.15429,-1.8318c0.0385726,-0.462783 0.0771452,-0.829135 0.115718,-1.0991c0.0192422,-0.250634 0.0385726,-0.462739 0.0385726,-0.636316c0,-0.192819 -0.0579031,-0.347065 -0.173533,-0.462739c-0.0964757,-0.135004 -0.327823,-0.212105 -0.655646,-0.212105c-1.06053,-0.0385726 -2.1403,-0.15429 -3.22015,-0.347109c-1.07977,-0.173533 -2.23668,-0.366352 -3.4515,-0.61703c-1.07977,-0.173533 -2.17887,-0.308493 -3.31654,-0.404924c-1.11834,-0.115674 -2.21744,-0.192819 -3.27797,-0.250634c-1.06053,-0.0578589 -2.02458,-0.0771452 -2.91157,-0.0771452c-3.31654,0 -6.2282,0.327779 -8.71556,0.90628c-2.50669,0.578457 -4.68556,1.38831 -6.47879,2.41026c-1.83189,1.00267 -3.39368,2.15958 -4.68565,3.43221c-1.44616,1.42688 -2.64165,2.91162 -3.58646,4.4735c-0.964139,1.56184 -1.71608,3.12368 -2.25601,4.66627c-0.559171,1.5426 -0.944809,3.008 -1.17624,4.39635c-0.231347,1.38831 -0.327735,2.60308 -0.327735,3.68289c-0.0193304,2.02462 0.192775,4.12639 0.636316,6.28597c0.443453,2.17891 1.2533,4.33849 2.41022,6.45955c1.15691,2.12105 2.79594,4.1071 4.87842,5.95819c1.69684,1.48474 3.60579,2.73808 5.68827,3.74075c2.10172,1.00267 4.43488,1.73541 7.05729,2.23673c2.60308,0.501356 5.53398,0.77132 8.79262,0.77132l-1.5e-05,5.2e-06ZM1888.34,382.415c1.19549,0 2.4103,-0.0578589 3.68285,-0.192819c1.21482,-0.115718 2.42963,-0.347109 3.58655,-0.655602c1.15691,-0.347065 2.19811,-0.790562 3.12368,-1.38831c1.54264,-1.022 2.75737,-2.12105 3.6636,-3.29725c0.886994,-1.19553 1.50407,-2.42959 1.87038,-3.68294c0.366396,-1.27263 0.559259,-2.52593 0.539928,-3.75999c0.0193304,-1.79327 -0.308493,-3.50936 -1.00271,-5.14839c-0.694131,-1.65827 -1.81247,-3.27797 -3.3936,-4.93624c-1.54264,-1.6197 -3.64436,-3.33583 -6.28601,-5.14834l-1.85113,-1.25335c-1.6197,-1.07977 -2.96939,-2.06319 -4.04924,-2.95014c-1.07977,-0.886994 -1.94752,-1.73541 -2.60308,-2.52598c-0.655558,-0.809849 -1.11834,-1.6197 -1.40759,-2.46812c-0.26992,-0.829135 -0.404968,-1.73541 -0.404968,-2.73808c0.0193304,-1.48474 0.424211,-2.73808 1.19549,-3.74075c0.790606,-1.02195 1.81256,-1.79323 3.12376,-2.31387c1.3112,-0.520598 2.75737,-0.771276 4.35774,-0.771276c1.46549,0.0192863 2.7188,0.13496 3.74075,0.385638c1.04128,0.250678 1.87038,0.539928 2.52602,0.886994c0.674889,0.347065 1.15691,0.713417 1.52331,1.04124c0.347065,0.327779 0.578413,0.597743 0.6748,0.790562c0.115718,0.250678 0.250678,0.559171 0.385638,0.944809c0.15429,0.404924 0.289251,0.790606 0.385726,1.19553c0.0963874,0.385638 0.173533,0.732703 0.192775,0.983381c0.0193304,0.269964 0.0963874,0.462783 0.173533,0.61703c0.0578148,0.115674 0.212105,0.192819 0.424211,0.192819c0.212105,0.0385726 0.366396,-0.0578589 0.424211,-0.269964c0.0771452,-0.231392 0.115718,-0.578457 0.0963874,-1.06053c0.0193304,-2.1403 0.0579031,-3.75999 0.15429,-4.8398c0.0771452,-1.07981 0.13496,-1.69684 0.13496,-1.8318c0,-0.173533 -0.0385726,-0.289251 -0.13496,-0.347109c-0.0963874,-0.0771011 -0.26992,-0.115674 -0.539928,-0.115674c-0.231347,0 -0.520598,0 -0.848421,-0.0192863c-0.347065,-0.0385726 -0.809849,-0.115674 -1.44616,-0.269964c-0.520598,-0.13496 -1.13758,-0.289206 -1.85104,-0.404924c-0.732703,-0.115674 -1.50407,-0.212105 -2.33316,-0.289206c-0.829179,-0.0771452 -1.67751,-0.115718 -2.56451,-0.115718c-2.89233,0.0192863 -5.41835,0.48207 -7.57798,1.42688c-2.17887,0.944853 -3.83714,2.29459 -5.05187,4.06857c-1.21482,1.77394 -1.81256,3.895 -1.85113,6.36311c0,1.46545 0.289251,2.89233 0.867752,4.29992c0.597743,1.38831 1.56179,2.85376 2.95014,4.35778c1.34978,1.50402 3.20082,3.12372 5.55331,4.85909l2.96939,2.21748c1.44616,1.07981 2.68022,2.04391 3.72151,2.91162c1.0412,0.867663 1.88962,1.6968 2.56451,2.50669c0.655646,0.809849 1.15691,1.67751 1.46549,2.56451c0.327735,0.886994 0.482025,1.88966 0.482025,3.00805c0,1.60041 -0.385638,3.02729 -1.11834,4.28063c-0.732792,1.27263 -1.81256,2.25601 -3.27797,3.008c-1.44616,0.713461 -3.23948,1.0991 -5.39902,1.0991c-1.0991,0 -2.21753,-0.0964316 -3.31654,-0.308537c-1.0991,-0.231347 -2.14038,-0.597743 -3.10443,-1.07977c-0.944897,-0.48207 -1.79332,-1.13767 -2.46812,-1.92823c-0.674889,-0.790562 -1.157,-1.7547 -1.42692,-2.91162c-0.115718,-0.462783 -0.173533,-0.886994 -0.212105,-1.29192c-0.0192422,-0.404924 -0.0192422,-0.732703 -0.0192422,-1.00267c0,-0.269964 -0.0385726,-0.443497 -0.15429,-0.578457c-0.0963874,-0.115674 -0.250678,-0.173533 -0.424211,-0.173533c-0.192775,0 -0.327823,0.0963874 -0.40488,0.269964c-0.0964757,0.173533 -0.135048,0.424166 -0.135048,0.771276c-0.0385726,0.539884 -0.11563,1.40759 -0.212105,2.56451c-0.0963874,1.15696 -0.13496,2.54526 -0.154202,4.10715c0,0.559171 0.0192422,1.00267 0.0578148,1.27259c0.0385726,0.308537 0.13496,0.539928 0.26992,0.674889c0.135048,0.154246 0.347154,0.308537 0.636316,0.424211c0.906324,0.424211 1.88971,0.75199 2.96947,1.00267c1.07986,0.250678 2.1982,0.443497 3.31654,0.559171c1.11834,0.115718 2.1982,0.15429 3.22015,0.15429l-1.7e-05,5.3e-06ZM1848.68,352.142l0,-8.44559c0.0193304,-0.925522 0.0193304,-1.69684 0.0193304,-2.31387c0,-0.61703 0,-1.13763 0.0192422,-1.58112c0,-0.443497 0.0193304,-0.867707 0.0385726,-1.25335c0.0193304,-0.732703 0.13496,-1.33049 0.270008,-1.81252c0.11563,-0.462783 0.347065,-0.829135 0.655558,-1.0991c0.327823,-0.269964 0.790606,-0.462783 1.36902,-0.559171c0.347065,-0.0771452 0.674889,-0.115718 0.925566,-0.135004c0.250678,-0.0192422 0.482025,-0.0192422 0.694131,-0.0192422c0.13496,-0.0192863 0.250678,-0.0771452 0.366396,-0.173577c0.0963874,-0.115674 0.154202,-0.231347 0.173533,-0.347065c0,-0.173533 -0.0771452,-0.327779 -0.250678,-0.385638c-0.15429,-0.0964316 -0.424211,-0.13496 -0.790606,-0.13496c-0.520598,0 -1.13758,0.0192863 -1.8318,0.0385285c-0.694131,0 -1.38826,0.0192863 -2.08248,0.0385726c-0.6748,0.0192863 -1.27263,0.0385726 -1.75466,0.0578589l-1.75466,0c-0.482025,-0.0192863 -1.07977,-0.0385726 -1.75466,-0.0578589c-0.674889,-0.0192863 -1.36911,-0.0385726 -2.08248,-0.0385726c-0.694219,-0.0192422 -1.3112,-0.0385285 -1.88971,-0.0385285c-0.347065,0 -0.616985,0.0385285 -0.771276,0.13496c-0.173533,0.0578589 -0.250678,0.212105 -0.250678,0.385638c0,0.115718 0.0385726,0.231392 0.13496,0.347065c0.115718,0.0964316 0.231436,0.15429 0.385638,0.173577c0.231436,0 0.520686,0.0192422 0.886994,0.0578148c0.366396,0.0192863 0.732792,0.0964316 1.11843,0.15429c0.6748,0.154246 1.19549,0.482025 1.50398,1.02195c0.308493,0.520598 0.501356,1.33045 0.578501,2.39097c0.0192422,0.385638 0.0384844,0.809849 0.0578148,1.25335c0.0192422,0.443497 0.0385726,0.964095 0.0385726,1.58112c0.0192422,0.61703 0.0192422,1.38835 0.0192422,2.31387c0.0193304,0.944853 0.0193304,2.08248 0.0193304,3.4515l0,16.1199c0,2.04391 -0.0193304,3.93357 -0.0193304,5.66898c-0.0385726,1.73541 -0.0771452,3.29725 -0.11563,4.64699c-0.0579031,1.34978 -0.135048,2.46816 -0.231436,3.33583c-0.0578148,0.61703 -0.154202,1.15696 -0.26992,1.6197c-0.115718,0.48207 -0.270008,0.848421 -0.482114,1.13767c-0.231347,0.289251 -0.53984,0.48207 -0.964051,0.597743c-0.308493,0.0578589 -0.636316,0.13496 -1.00271,0.192819c-0.347065,0.0578589 -0.694131,0.0964316 -0.983381,0.0964316c-0.212105,0.0192863 -0.327823,0.0578148 -0.40488,0.173533c-0.0964757,0.115674 -0.135048,0.212105 -0.135048,0.347065c0,0.173533 0.0964757,0.308537 0.289251,0.385638c0.15429,0.0964316 0.424211,0.135004 0.752034,0.135004c0.520598,0 1.11834,-0.0192863 1.81247,-0.0385726c0.674889,-0.0192863 1.34978,-0.0578589 2.044,-0.0771452c0.6748,-0.0385726 1.23406,-0.0578589 1.73533,-0.0771011c0.462783,-0.0192863 0.752034,-0.0192863 0.867752,-0.0192863c0.0963874,0 0.385638,0 0.906236,0.0192863c0.482025,0.0192422 1.13767,0.0385285 1.92819,0.0771011c0.771364,0.0192863 1.63903,0.0578589 2.56459,0.0771452c0.925478,0.0192863 1.85104,0.0385726 2.75737,0.0385726c0.366308,0 0.636228,-0.0578589 0.809849,-0.15429c0.173533,-0.0963874 0.231347,-0.231347 0.231347,-0.366352c0,-0.13496 -0.0385726,-0.231392 -0.115718,-0.347065c-0.0771452,-0.115718 -0.212105,-0.154246 -0.40488,-0.173533c-0.192863,0 -0.482114,-0.0192863 -0.809849,-0.0385726c-0.347065,-0.0385726 -0.694219,-0.0771452 -1.07986,-0.115718c-0.385638,-0.0578148 -0.732703,-0.0963874 -1.06053,-0.13496c-0.636316,-0.115674 -1.11834,-0.308493 -1.42683,-0.597743c-0.327823,-0.289251 -0.559171,-0.655602 -0.674889,-1.13767c-0.115718,-0.462739 -0.231347,-1.00267 -0.289251,-1.6197c-0.0963874,-0.867663 -0.154202,-1.98605 -0.212105,-3.33583c-0.0385726,-1.34973 -0.0578148,-2.91157 -0.0578148,-4.64699c-0.0193304,-1.73541 -0.0193304,-3.62508 -0.0193304,-5.66898l0,-11.1258l6.4e-06,2.4e-06ZM1770.72,345.817c0,-1.42688 0,-2.95019 0,-4.51203c0,-1.58117 0,-3.08515 0.0192422,-4.56988c0,-1.48474 0,-2.81523 0.0192422,-3.99143c0,-1.15691 0.0193304,-2.08248 0.0385726,-2.7188c0,-0.404924 0.0579031,-0.713417 0.192863,-0.925522c0.13496,-0.250678 0.366308,-0.424211 0.694131,-0.559215c0.173533,-0.0771011 0.424211,-0.154246 0.790606,-0.212105c0.385638,-0.0578148 0.809849,-0.115674 1.29187,-0.154246c0.482025,-0.0578148 0.964139,-0.0963874 1.44616,-0.115674c0.482025,-0.0192863 0.906236,-0.0385726 1.29196,-0.0385726c2.21744,-0.0192863 4.39631,0.0771452 6.5366,0.269964c2.14038,0.192819 4.26135,0.597743 6.28601,1.15691c2.06324,0.597743 4.03,1.42688 5.95819,2.54526c1.90895,1.13763 3.74075,2.58379 5.49541,4.41559c0.771276,0.790606 1.56188,1.77399 2.39097,2.95019c0.829179,1.15696 1.60045,2.52598 2.31392,4.04929c0.694131,1.56184 1.29187,3.29725 1.73541,5.24473c0.443453,1.94752 0.655558,4.1071 0.674889,6.45955c0,1.71613 -0.115718,3.41293 -0.385638,5.10977c-0.250678,1.69684 -0.617074,3.33583 -1.11843,4.89766c-0.501356,1.56188 -1.13767,3.00805 -1.87038,4.31925c-0.751945,1.31116 -1.60037,2.44883 -2.56451,3.39364c-1.46549,1.46545 -3.12376,2.7188 -4.97481,3.74075c-1.87038,1.04124 -3.85647,1.81252 -5.99676,2.35244c-2.15963,0.539884 -4.35774,0.809849 -6.69089,0.809849c-2.17896,0 -4.01076,-0.0771452 -5.53398,-0.250678c-1.50407,-0.173533 -2.73813,-0.404924 -3.68294,-0.694175c-0.964139,-0.289206 -1.69684,-0.597743 -2.23677,-0.944809c-0.53984,-0.366352 -0.906236,-0.713461 -1.15691,-1.06053c-0.192775,-0.308537 -0.347065,-0.790562 -0.462783,-1.42688c-0.0963874,-0.636316 -0.192775,-1.34978 -0.231347,-2.12105c-0.0578148,-0.771276 -0.0963874,-1.46545 -0.115718,-2.10177c-0.0385726,-0.347065 -0.0385726,-1.02195 -0.0578148,-2.00534c-0.0193304,-0.983381 -0.0385726,-2.17887 -0.0385726,-3.62503c-0.0193304,-1.44616 -0.0385726,-3.04662 -0.0385726,-4.83985c-0.0192422,-1.77394 -0.0192422,-3.64432 -0.0192422,-5.63041l0,-9.21687l2.22e-05,2.36e-05ZM1764.49,360.086c0,2.37169 0,4.58917 -0.0192422,6.65237c-0.0193304,2.02462 -0.0579031,3.85642 -0.0964757,5.45683c-0.0578148,1.6197 -0.13496,2.9309 -0.26992,3.99143c-0.0771452,0.713417 -0.212105,1.36902 -0.347065,1.96676c-0.15429,0.559215 -0.366396,1.04124 -0.636316,1.38835c-0.289251,0.385638 -0.655558,0.61703 -1.15691,0.732703c-0.347065,0.0578589 -0.732792,0.13496 -1.11843,0.192819c-0.385638,0.0578589 -0.751945,0.0964316 -1.09901,0.0964316c-0.231436,0 -0.385638,0.0385285 -0.462783,0.13496c-0.0964757,0.0771452 -0.13496,0.192819 -0.13496,0.308537c0,0.212105 0.0963874,0.385638 0.289162,0.443453c0.192863,0.115718 0.482114,0.15429 0.886994,0.15429c0.578501,-0.0192863 1.25339,-0.0385726 2.02467,-0.0771452c0.771276,-0.0578589 1.54255,-0.0771452 2.29459,-0.0771452c0.771276,-0.0385285 1.46541,-0.0578148 2.00534,-0.0578148c0.539928,0 0.867663,0 0.944809,0c0.15429,0 0.501356,0 1.04128,0.0385285c0.559171,0.0578589 1.27254,0.115718 2.15954,0.192863c0.886994,0.0385285 1.87038,0.115674 2.96947,0.212105c1.06053,0.0578148 2.1982,0.13496 3.37435,0.192819c1.19557,0.0771011 2.37173,0.115674 3.54798,0.173533c1.19549,0.0385726 2.31383,0.0578148 3.39368,0.0578148c3.14301,-0.0192422 5.93886,-0.308493 8.38774,-0.867663c2.44879,-0.539928 4.56984,-1.25335 6.3824,-2.14034c1.8318,-0.886994 3.35511,-1.79323 4.62774,-2.77666c1.2533,-0.983381 2.27526,-1.88962 3.0851,-2.73804c1.04128,-1.0991 2.04391,-2.35244 3.00805,-3.79861c0.944809,-1.44616 1.81256,-3.04658 2.56451,-4.80128c0.752034,-1.77394 1.33053,-3.68289 1.77399,-5.7268c0.424211,-2.06319 0.655558,-4.28063 0.674889,-6.61379c-0.0385726,-2.9309 -0.366396,-5.57255 -1.04128,-7.94424c-0.6748,-2.37173 -1.56179,-4.45421 -2.66089,-6.26673c-1.06053,-1.79323 -2.25601,-3.33583 -3.5094,-4.62774c-1.7739,-1.81252 -3.70218,-3.27797 -5.76533,-4.39631c-2.08248,-1.0991 -4.22286,-1.94752 -6.40173,-2.52598c-2.19811,-0.578457 -4.35774,-0.983381 -6.47879,-1.19549c-2.12105,-0.212105 -4.14572,-0.327823 -6.03534,-0.347109c-1.90895,-0.0192863 -3.58646,-0.0192863 -5.0712,0c-1.11834,0 -2.23677,0.0192863 -3.31654,0.0385726c-1.0991,0.0192863 -2.10181,0.0578589 -3.02729,0.0771452c-0.925566,0.0192863 -1.71617,0.0578148 -2.35249,0.0771011c-0.655558,0.0192863 -1.07977,0.0385726 -1.33045,0.0385726c-0.0963874,0 -0.424211,-0.0192863 -0.983381,-0.0385726c-0.559171,-0.0192863 -1.27263,-0.0578148 -2.08248,-0.0771011c-0.829091,-0.0192863 -1.71608,-0.0578589 -2.64165,-0.0771452c-0.925566,-0.0192863 -1.81256,-0.0385726 -2.68022,-0.0385726c-0.404968,0 -0.694131,0.0385726 -0.886994,0.135004c-0.192775,0.0963874 -0.289251,0.231347 -0.289251,0.462739c0,0.135004 0.0771452,0.269964 0.192863,0.347109c0.11563,0.0578148 0.250678,0.0963874 0.40488,0.0963874c0.231436,0 0.501356,0 0.809849,0.0192863c0.327823,0.0192863 0.636316,0.0578589 0.944897,0.0771452c0.308493,0.0385726 0.559171,0.0771011 0.771276,0.13496c0.790518,0.154246 1.42683,0.404924 1.87038,0.771276c0.462783,0.327823 0.771276,0.77132 0.964051,1.34978c0.192863,0.559171 0.308581,1.25335 0.347065,2.10177c0.0193304,0.462739 0.0579031,0.944809 0.0771452,1.46545c0,0.501312 0.0385726,1.13763 0.0385726,1.85109c0,0.75199 0.0193304,1.65827 0.0193304,2.75732c0.0192422,1.0991 0.0192422,2.44883 0.0192422,4.06857l0,18.9544l-1.75e-05,3.4e-06ZM2133.75,363.267c0,2.04391 0,3.93357 -0.0193304,5.66898c-0.0192422,1.73541 -0.0578148,3.29725 -0.0963874,4.64699c-0.0579031,1.34978 -0.13496,2.46816 -0.270008,3.33583c-0.077057,0.61703 -0.173533,1.15696 -0.289162,1.65827c-0.0964757,0.462783 -0.250678,0.848421 -0.462783,1.13767c-0.212105,0.289206 -0.539928,0.462783 -0.944809,0.559171c-0.327823,0.0385726 -0.636316,0.0771452 -1.00271,0.154246c-0.366396,0.0964316 -0.694131,0.115718 -1.00271,0.135004c-0.192775,0.0192863 -0.327735,0.0578148 -0.40488,0.173533c-0.0771452,0.115674 -0.115718,0.212105 -0.115718,0.347065c0,0.173533 0.0771452,0.308537 0.270008,0.385638c0.173533,0.0964316 0.443453,0.135004 0.771276,0.135004c0.520598,0 1.13758,-0.0192863 1.79323,-0.0578589c0.694131,-0.0192863 1.34978,-0.0578589 1.98609,-0.0964316c0.732703,-0.0385285 1.34969,-0.0578148 1.88962,-0.0578148l2.96947,0c0.886994,0.0192863 2.00534,0.0578148 3.39368,0.13496c1.33045,0.0385726 2.95014,0.0964316 4.82052,0.13496c1.90895,0.0385726 4.06857,0.0771452 6.51736,0.0771452c0.829179,0.0192863 1.48474,0 1.96676,-0.0578589c0.482114,-0.0385726 0.848421,-0.192819 1.0991,-0.424211c0.231436,-0.231392 0.443541,-0.61703 0.578501,-1.13763c0.0963874,-0.347065 0.192775,-0.848421 0.289251,-1.44616c0.11563,-0.636316 0.212105,-1.27263 0.289162,-1.92823c0.0964757,-0.674889 0.15429,-1.25335 0.212105,-1.77394c0.0771452,-0.501356 0.0964757,-0.809849 0.0964757,-0.944853c0,-0.231392 -0.0193304,-0.462739 -0.0964757,-0.655602c-0.0578148,-0.192819 -0.154202,-0.289206 -0.347065,-0.308493c-0.192775,0 -0.327735,0.0578589 -0.424211,0.192819c-0.0963874,0.154246 -0.173533,0.404924 -0.250678,0.771276c-0.11563,0.829135 -0.308493,1.5426 -0.559171,2.10177c-0.250678,0.539928 -0.559171,1.02195 -0.944809,1.38831c-0.404968,0.347109 -0.886994,0.655602 -1.46541,0.886994c-0.578501,0.212105 -1.25339,0.385638 -2.06324,0.462783c-0.809849,0.115674 -1.60045,0.154246 -2.39097,0.173533c-0.790606,0.0385726 -1.48474,0.0385726 -2.06324,0.0385726c-1.6197,0 -2.91157,-0.0578589 -3.93352,-0.212105c-1.00271,-0.115718 -1.79323,-0.366352 -2.33316,-0.713461c-0.559171,-0.366352 -0.944809,-0.88695 -1.15691,-1.56184c-0.231436,-0.655602 -0.347065,-1.50402 -0.385638,-2.56455c0,-0.26992 0,-0.732703 0,-1.38831c-0.0385726,-0.674889 -0.0385726,-1.42688 -0.0385726,-2.31387c0.0385726,-0.88695 0.0385726,-1.77394 0.0385726,-2.69951l0,-4.35778l0,-5.26402c0,-0.115718 0.0385726,-0.231392 0.0963874,-0.308537c0.0578148,-0.0963874 0.173533,-0.13496 0.366396,-0.13496c0.231347,0 0.655558,0 1.27263,0c0.636228,0 1.33045,0.0192863 2.15954,0.0385726c0.829179,0 1.65827,0.0385726 2.50669,0.0578589c0.848421,0.0192422 1.6197,0.0578148 2.31392,0.0771011c0.713373,0.0385726 1.23406,0.0578589 1.6197,0.115718c0.829091,0.115674 1.46541,0.250634 1.92819,0.424211c0.462783,0.192819 0.809849,0.424211 0.983381,0.674844c0.212105,0.250678 0.347065,0.539928 0.424211,0.829135c0.13496,0.404924 0.212105,0.77132 0.250678,1.13767c0.0385726,0.327779 0.0578148,0.655602 0.0385726,0.944809c0,0.192819 0.0385726,0.327823 0.0963874,0.443497c0.0771452,0.0964316 0.212105,0.154246 0.347065,0.154246c0.212105,-0.0192863 0.366396,-0.154246 0.462783,-0.385638c0.0964757,-0.250678 0.13496,-0.539884 0.13496,-0.809849c0,-0.173533 0.0193304,-0.501312 0.0385726,-0.964095c0.0385726,-0.48207 0.0771452,-1.02195 0.115718,-1.58117c0.0385726,-0.597743 0.0963874,-1.09905 0.13496,-1.52327c0.0963874,-1.04124 0.212105,-1.8318 0.327823,-2.39102c0.115718,-0.559171 0.173533,-0.944809 0.192775,-1.09905c0,-0.192819 -0.0192422,-0.327823 -0.0963874,-0.404924c-0.0771452,-0.0771452 -0.154202,-0.115718 -0.26992,-0.115718c-0.115718,0 -0.250678,0.0771452 -0.404968,0.231392c-0.154202,0.154246 -0.347065,0.347065 -0.559171,0.578457c-0.327823,0.327823 -0.732703,0.539928 -1.27263,0.655602c-0.501356,0.0964316 -1.13758,0.173533 -1.92819,0.231392c-0.308493,0.0192863 -0.848421,0.0578589 -1.6197,0.0771452c-0.752034,0.0192863 -1.63903,0.0385285 -2.60308,0.0385285c-0.983381,0.0192863 -1.96685,0.0192863 -2.91166,0.0192863c-0.964051,0.0192863 -1.77399,0.0192863 -2.44879,0.0192863c-0.694219,0 -1.11843,0 -1.3112,0c-0.173533,0 -0.289251,-0.0578148 -0.327823,-0.173533c-0.0385726,-0.115674 -0.0578148,-0.269964 -0.0578148,-0.501312l0,-17.1419c0,-0.212105 0.0385726,-0.404924 0.0771452,-0.501312c0.0578148,-0.115718 0.154202,-0.154246 0.308493,-0.154246c0.154202,0 0.559171,0 1.15691,0c0.616985,0 1.33045,0 2.1403,0.0385285c0.848421,0 1.69684,0.0192863 2.54526,0.0192863c0.848421,0.0385726 1.58112,0.0578589 2.23677,0.0578589c0.674889,0.0385726 1.0991,0.0578589 1.34969,0.0964316c1.157,0.154246 2.06324,0.289206 2.68022,0.482025c0.636316,0.15429 1.07986,0.347109 1.36911,0.578457c0.26992,0.250678 0.482025,0.520642 0.616985,0.867707c0.13496,0.385638 0.250678,0.790562 0.289251,1.23406c0.0578148,0.424211 0.0771452,0.752034 0.0771452,0.983425c0,0.26992 0.0385726,0.462739 0.13496,0.61703c0.0578148,0.13496 0.212105,0.212105 0.385638,0.212105c0.15429,-0.0192863 0.26992,-0.0964316 0.385638,-0.212105c0.0963874,-0.15429 0.173533,-0.289251 0.212105,-0.462783c0.0385726,-0.192819 0.0771452,-0.48207 0.115718,-0.867707c0.0385726,-0.404924 0.0578148,-0.809849 0.0963874,-1.27263c0.0385726,-0.443497 0.0578148,-0.848421 0.0771452,-1.21477c0.0385726,-0.366352 0.0578148,-0.636316 0.0771452,-0.790562c0.0963874,-0.886994 0.212105,-1.5426 0.327735,-1.98609c0.115718,-0.462739 0.192863,-0.771276 0.192863,-0.983381c0,-0.154246 -0.0193304,-0.289206 -0.0578148,-0.404924c-0.0579031,-0.13496 -0.115718,-0.173533 -0.231436,-0.173533c-0.154202,0 -0.308493,0.0385726 -0.443453,0.115674c-0.15429,0.0578589 -0.308581,0.115718 -0.443541,0.173577c-0.26992,0.0192863 -0.674889,0.0963874 -1.19549,0.173533c-0.539928,0.0771011 -1.13767,0.13496 -1.77399,0.173533c-0.26992,0.0385726 -0.809849,0.0385726 -1.63894,0.0385726c-0.829179,0 -1.81256,0.0192863 -2.96947,0.0192863c-1.15691,0 -2.33316,-0.0192863 -3.56722,-0.0192863c-1.2533,0 -2.41022,0 -3.50931,0c-1.07986,0 -1.98609,0 -2.69955,-0.0385726l-2.12105,0c-0.520598,-0.0192863 -1.13758,-0.0385726 -1.88962,-0.0578589c-0.752034,-0.0192863 -1.54255,-0.0385726 -2.39097,-0.0385726c-0.829179,-0.0192422 -1.6197,-0.0385285 -2.37173,-0.0385285c-0.366396,0 -0.636316,0.0385285 -0.790606,0.13496c-0.173533,0.0578589 -0.25059,0.212105 -0.25059,0.385638c0.0192422,0.115718 0.0578148,0.231392 0.173533,0.347065c0.11563,0.115718 0.212105,0.15429 0.347065,0.173577c0.212105,0 0.443453,0 0.732703,0.0192422c0.26992,0.0192863 0.559171,0.0385726 0.809849,0.0578589c0.289251,0.0192863 0.501356,0.0578589 0.674889,0.0771452c0.713461,0.0963874 1.2533,0.289206 1.6197,0.539884c0.366396,0.289251 0.636316,0.674889 0.771276,1.15696c0.15429,0.482025 0.250678,1.06048 0.289251,1.77394c0.0192422,0.385638 0.0578148,0.809849 0.0771452,1.25335c0,0.443497 0.0385726,0.964095 0.0385726,1.58112c0,0.61703 0.0192422,1.38835 0.0192422,2.31387c0.0193304,0.944853 0.0193304,2.08248 0.0193304,3.4515l0,16.1199l-8.8e-06,-9.1e-06Z" style="fill:#281f27;fill-rule:nonzero;"/></svg>