<?xml version="1.0" standalone="no"?><!DOCTYPE svg PUBLIC "-//W3C//DTD SVG 1.1//EN" "http://www.w3.org/Graphics/SVG/1.1/DTD/svg11.dtd"><svg width="100%" height="100%" viewBox="0 0 1959 933" version="1.1" xmlns="http://www.w3.org/2000/svg" xmlns:xlink="http://www.w3.org/1999/xlink" xml:space="preserve" style="fill-rule:evenodd;clip-rule:evenodd;stroke-linejoin:round;stroke-miterlimit:1.41421;"><g><g><path d="M1115.02,545.111c0,-0.042 0.02,-0.07 0.02,-0.098c-0.04,0.139 -0.04,0.153 -0.02,0.098Z" style="fill:#3c5a98;fill-rule:nonzero;"/><path d="M1049.4,573.375c21.14,-31.25 37.64,-46.612 49.51,-46.875c7.57,-0.167 10.2,2.652 12.45,4.791c6.19,5.875 3.87,13.32 3.66,13.82c-1.79,8.569 -2.84,13.68 -16.76,26.93c-17.6,15.417 -33.33,28.389 -47.19,38.945c-13.87,10.569 -25.87,19.139 -35.98,25.75c4.84,-16.278 16.27,-37.403 34.31,-63.361ZM1437.94,573.361c21.13,-31.236 37.63,-46.861 49.5,-46.861c1.75,0 6.82,0.944 8.79,1.916c10.29,5.056 5.29,18.056 6.43,13.292c-2.25,8.861 -2.22,14.069 -15.87,30.347c-17.6,15.403 -33.34,28.375 -47.2,38.931c-13.86,10.569 -25.86,19.139 -35.97,25.75c4.83,-16.278 16.28,-37.403 34.32,-63.375ZM1945.76,636.736c-1.32,0 -2.65,0.652 -3.96,1.972c-25.97,28.625 -50.61,50.389 -73.93,65.347c11.45,-14.958 18.25,-30.792 20.46,-47.528c1.75,-9.236 1.1,-17.819 -1.97,-25.736c-0.45,-3.069 -2.54,-7.805 -6.27,-14.194c-3.76,-6.375 -8.91,-14.625 -15.52,-24.75c-11,-17.153 -15.84,-30.584 -14.52,-40.264c1.75,-26.403 15.61,-44.653 41.58,-54.792c-5.27,-3.958 -10.34,-5.93 -15.19,-5.93c-12.75,0 -22.67,4.389 -29.69,13.194l-61.39,73.278c-28.16,33.43 -40.27,45.805 -70.66,81.028c-19.16,19.139 -37.55,34.375 -55.2,45.694c11.44,-14.958 18.25,-30.792 20.45,-47.528c1.75,-9.236 1.1,-17.819 -1.97,-25.736c-0.44,-3.069 -2.54,-7.805 -6.26,-14.194c-3.77,-6.375 -8.92,-14.625 -15.53,-24.75c-11,-17.153 -15.83,-30.584 -14.51,-40.264c1.75,-26.403 15.61,-44.653 41.58,-54.792c-5.28,-3.958 -10.35,-5.93 -15.18,-5.93c-12.76,0 -22.68,4.389 -29.71,13.194l-61.39,73.278c-4.66,5.542 -9.3,11.333 -13.85,17.167l-0.01,0l-43.55,51.694c-39.02,52.139 -75.03,85.583 -105.38,85.583c-17.61,0 -26.42,-11.208 -26.42,-33.652c0,-22 3.31,-36.306 9.91,-42.917c12.32,-9.236 23.65,-17.264 33.98,-24.097c10.35,-6.806 19.49,-12.639 27.41,-17.486c40.04,-22.431 60.05,-44.223 60.05,-65.334c0,-21.125 -11.21,-31.694 -33.65,-31.694c-17.61,0 -38.07,9.028 -61.39,27.069c-49.28,38.278 -73.93,80.084 -73.93,125.403c0,1.292 0.1,2.556 0.14,3.819c-34.88,40.973 -59.22,61.556 -72.95,61.528c-11.5,-0.014 -10.79,-11.43 -9.9,-14.514c2.94,-21.833 17.82,-44.666 17.82,-46.875c24.64,-52.361 36.96,-91.305 36.96,-116.833c0,-29.472 -13.86,-44.208 -41.57,-44.208c-24.67,0 -50.17,11.208 -76.58,33.666c0.88,-5.722 1.43,-10.569 1.66,-14.541c0.21,-3.945 0.75,-7.459 1.64,-10.542c-32.57,0 -48.85,3.292 -48.85,9.889c0,0.889 0.45,1.555 1.32,1.986c7.04,10.556 10.57,19.583 10.57,27.056c-0.44,6.597 -1.3,15.819 -10.55,31.652c-14.09,22.889 -23.32,41.834 -37.18,63.403c0,0.014 -0.02,0.028 -0.02,0.028c-1.61,2.403 -3.21,4.708 -4.8,7c-0.82,1.18 -1.71,2.444 -2.66,3.792c-31.55,44.236 -61.41,66.402 -89.55,66.402c-17.6,0 -26.4,-11.222 -26.4,-33.652c0,-22 3.3,-36.306 9.9,-42.903c12.3,-9.25 23.65,-17.278 34,-24.111c10.33,-6.806 19.46,-12.639 27.39,-17.486c40.03,-22.445 60.05,-44.223 60.05,-65.334c0,-21.125 -11.21,-31.694 -33.65,-31.694c-17.61,0 -38.07,9.028 -61.39,27.069c-49.29,38.292 -73.93,80.097 -73.93,125.403c0,1.292 0.1,2.542 0.14,3.819c-34.88,40.973 -59.22,61.556 -72.94,61.528c-11.6,-0.014 -10.8,-11.43 -9.91,-14.514c1.32,-8.805 6.36,-22.444 15.18,-40.93c6.35,-14.889 39.6,-97.25 39.6,-122.778c0,-29.472 -13.86,-44.208 -41.58,-44.208c-24.66,0 -50.17,11.208 -76.57,33.666c0.89,-5.722 1.43,-10.569 1.65,-14.541c0.22,-3.945 0.76,-7.459 1.65,-10.542c-32.57,0 -48.84,3.292 -48.84,9.889c0,0.889 0.44,1.555 1.32,1.986c7.04,10.556 10.56,19.583 10.56,27.056c-0.44,6.597 -5.29,17.833 -14.52,33.666c-10.18,18.834 -26.89,58.084 -30.92,66.306c-16.85,34.347 -34.86,61.125 -59.96,93.583c3.09,7.917 38.25,-4.083 51.93,-6.75c16.72,-33.889 31.03,-63.375 42.91,-88.444c11.87,-25.084 22,-45.986 30.37,-62.709c30.79,-44.889 57.85,-67.333 81.18,-67.333c14.07,0 19.36,9.472 15.85,28.375c-4.85,37.861 -48.68,125.583 -48.2,153.806c0.42,24.194 12.55,36.305 37.63,36.305c15.71,0 40.93,-19.153 75.64,-57.375c2.61,11.653 7.58,22.208 15,31.625c11.43,14.528 27.07,21.792 46.86,21.792c32.11,0 72.85,-10.417 109.42,-50.917c6.15,-5.305 14.05,-15.236 24.77,-33.569c14.02,-23.973 24.56,-49.653 32.93,-66.375c30.8,-44.889 55.3,-63.667 78.63,-63.667c14.08,0 19.36,9.472 15.85,28.375c-4.85,37.861 -15.63,62.833 -41.3,114.222c-1.76,4.847 -6.9,23.75 -6.9,39.584c0,24.208 12.54,36.305 37.63,36.305c15.7,0 40.93,-19.153 75.64,-57.375c2.59,11.653 7.58,22.208 15,31.639c11.43,14.5 27.05,21.764 46.87,21.764c39.6,0 69.68,-26.07 126.13,-96.07c10.61,-12.68 18.22,-22.319 20.83,-24.708c7.04,-7.042 16.28,-16.93 27.71,-29.708c11.46,-12.764 25.09,-28.82 40.94,-48.181c-5.73,22 -5.73,42.472 0,61.375c9.67,33.459 13.63,54.584 11.88,63.375c-1.32,8.806 -4.3,16.945 -8.92,24.417c-4.61,7.5 -10.35,14.194 -17.15,20.139c-6.84,5.944 -14.42,10.555 -22.78,13.861c-8.36,3.292 -16.95,4.944 -25.74,4.944c-13.65,0 -20.46,-7.027 -20.46,-21.125c0,-7.027 1.32,-13.861 3.96,-20.458c2.64,-6.597 6.27,-12.542 10.89,-17.819c4.63,-5.292 9.9,-9.459 15.84,-12.542c5.93,-3.07 12.43,-4.611 19.48,-4.611c3.06,0 7.02,0.764 11.88,2.305c4.83,1.542 10.76,3.403 17.82,5.611c-14.98,-11 -27.73,-16.513 -38.3,-16.513c-18.47,0 -33.44,4.847 -44.87,14.527c-11.43,9.681 -20.03,24.209 -25.74,43.57c-0.44,0.875 -0.89,2.097 -1.33,3.625c-0.43,1.541 -0.65,2.972 -0.65,4.291c0,3.959 1.32,7.709 3.96,11.223c2.63,3.527 5.93,6.597 9.9,9.236c3.96,2.653 8.25,4.833 12.87,6.597c4.61,1.764 16.53,4.625 22.1,4.625l8.58,0c28.17,0 59.63,-10.111 94.39,-30.361c26.1,-15.583 45.31,-29.097 67.03,-54.486c14.29,-15.681 30.99,-34.167 35.08,-37.917c7.05,-7.042 16.28,-16.93 27.71,-29.708c11.46,-12.764 25.1,-28.82 40.95,-48.181c-5.74,22 -5.74,42.472 0,61.375c9.66,33.459 13.62,54.584 11.87,63.375c-1.32,8.806 -4.29,16.945 -8.92,24.417c-4.61,7.5 -10.34,14.194 -17.15,20.139c-6.83,5.944 -14.41,10.555 -22.78,13.861c-8.36,3.292 -16.93,4.944 -25.73,4.944c-13.65,0 -20.46,-7.027 -20.46,-21.125c0,-7.027 1.32,-13.861 3.96,-20.458c2.64,-6.597 6.26,-12.542 10.89,-17.819c4.62,-5.292 9.9,-9.459 15.83,-12.542c5.93,-3.07 12.43,-4.611 19.49,-4.611c3.05,0 7.01,0.764 11.87,2.305c4.83,1.542 10.77,3.403 17.82,5.611c-14.97,-11 -27.74,-16.513 -38.29,-16.513c-18.47,0 -33.45,4.847 -44.89,14.527c-11.43,9.681 -20.01,24.209 -25.72,43.57c-0.45,0.875 -0.89,2.097 -1.34,3.625c-0.43,1.541 -0.65,2.972 -0.65,4.291c0,3.959 1.32,7.709 3.96,11.223c2.64,3.527 5.93,6.597 9.9,9.236c3.96,2.653 8.25,4.833 12.86,6.597c4.63,1.764 16.59,4.625 22.12,4.625l8.58,0c28.17,0 59.62,-10.111 94.39,-30.361c29.48,-17.597 55.22,-39.167 77.22,-64.681c0.44,-1.75 1.33,-3.305 2.65,-4.625c1.32,-5.277 -1.97,-7.916 -9.9,-7.916Z" style="fill:#3c5a98;fill-rule:nonzero;"/><path d="M664.82,805.069l69.15,0l-3.72,18.403l-47.21,0l-6.7,35.319l43.88,0l-3.53,18.222l-43.87,0l-10.05,53.346l-21.75,0l23.8,-125.29Z" style="fill:#636a69;fill-rule:nonzero;"/><path d="M781.36,832.013c-10.96,10.973 -17.28,31.431 -17.28,47.598c0,18.958 8.54,34.583 29.55,34.583c9.12,0 17.85,-3.917 24.35,-10.597c10.79,-10.792 16.92,-32.167 16.92,-47.972c0,-16.542 -5.75,-34.389 -28.81,-34.389c-9.66,0 -18.04,4.097 -24.73,10.777ZM857.95,854.888c0,22.306 -7.98,45.362 -22.68,59.862c-11.33,11.149 -26.58,17.649 -44.79,17.649c-32.36,0 -49.28,-23.608 -49.28,-51.677c0,-22.306 8.38,-45.722 23.43,-60.222c11.35,-10.973 27.14,-17.487 44.06,-17.487c33.46,0 49.26,23.237 49.26,51.875Z" style="fill:#636a69;fill-rule:nonzero;"/><path d="M914.45,805.069l-13.93,73.056c-0.93,4.652 -1.5,9.847 -1.5,15.25c0.2,12.819 7.82,20.819 20.64,20.819c15.43,0 26.03,-10.417 30.86,-35.889l13.95,-73.236l21.75,0l-13.95,72.875c-7.25,37.736 -24.72,54.455 -55.4,54.455c-23.61,0 -39.4,-12.26 -39.4,-38.663c0,-5.389 0.73,-11.528 1.66,-17.278l13.57,-71.389l21.75,0Z" style="fill:#636a69;fill-rule:nonzero;"/><path d="M992.72,930.359l23.79,-125.29l24.9,0l21.95,58.181c5.39,15.25 8.54,26.777 11.33,39.222l0.38,0c0.75,-12.264 2.22,-24.347 5.58,-42.375l10.4,-55.028l20.45,0l-23.8,125.29l-22.12,0l-22.49,-59.304c-5.76,-16.347 -8.93,-26.583 -11.9,-40.333l-0.75,0.18c-1.29,11.903 -3.89,27.334 -7.25,45.917l-10.22,53.54l-20.25,0Z" style="fill:#636a69;fill-rule:nonzero;"/><path d="M1143.65,912.708c4.28,0.555 8.93,0.736 13.76,0.736c16.92,0 30.49,-5.389 39.6,-15.431c9.85,-10.402 14.86,-25.277 14.86,-41.638c0,-20.82 -10.96,-34.764 -37.18,-34.764c-5.01,0 -10.4,0.375 -13.93,1.111l-17.11,89.986ZM1141.98,806.916c10.22,-1.847 21.38,-2.778 33.09,-2.778c20.08,0 35.88,5.195 45.91,15.056c8.56,7.806 14.32,19.514 14.32,36.806c0,23.611 -9.67,45.18 -25.47,58.194c-14.5,11.885 -32.9,16.915 -58.56,16.915c-13.2,0 -25.47,-0.93 -32.52,-1.86l23.23,-122.333Z" style="fill:#636a69;fill-rule:nonzero;"/><path d="M1315.41,877.944l-3.54,-31.236c-0.55,-6.695 -1.29,-16.361 -1.85,-23.792l-0.37,0c-3.35,7.431 -6.7,16.361 -10.22,23.792l-15.25,31.236l31.23,0ZM1277.3,894.666l-17.11,35.693l-23.04,0l62.83,-125.29l27.14,0l15.81,125.29l-22.68,0l-3.55,-35.693l-39.4,0Z" style="fill:#636a69;fill-rule:nonzero;"/><path d="M1404.82,824.027l-34.77,0l3.72,-18.958l91.28,0l-3.72,18.958l-34.95,0l-20.08,106.332l-21.73,0l20.25,-106.332Z" style="fill:#636a69;fill-rule:nonzero;"/><path d="M1505.57,805.069l-23.8,125.29l-21.75,0l23.8,-125.29l21.75,0Z" style="fill:#636a69;fill-rule:nonzero;"/><path d="M1557.25,832.013c-10.98,10.973 -17.3,31.431 -17.3,47.598c0,18.958 8.56,34.583 29.56,34.583c9.11,0 17.85,-3.917 24.36,-10.597c10.78,-10.792 16.92,-32.167 16.92,-47.972c0,-16.542 -5.77,-34.389 -28.82,-34.389c-9.67,0 -18.03,4.097 -24.72,10.777ZM1633.84,854.888c0,22.306 -8,45.362 -22.69,59.862c-11.33,11.149 -26.57,17.649 -44.79,17.649c-32.35,0 -49.27,-23.608 -49.27,-51.677c0,-22.306 8.36,-45.722 23.42,-60.222c11.35,-10.973 27.14,-17.487 44.07,-17.487c33.46,0 49.26,23.237 49.26,51.875Z" style="fill:#636a69;fill-rule:nonzero;"/><path d="M1645.16,930.359l23.79,-125.29l24.92,0l21.95,58.181c5.38,15.25 8.54,26.777 11.33,39.222l0.37,0c0.74,-12.264 2.23,-24.347 5.57,-42.375l10.42,-55.028l20.44,0l-23.79,125.29l-22.12,0l-22.5,-59.304c-5.75,-16.347 -8.92,-26.583 -11.89,-40.333l-0.75,0.18c-1.29,11.903 -3.9,27.334 -7.25,45.917l-10.22,53.54l-20.27,0Z" style="fill:#636a69;fill-rule:nonzero;"/><path d="M918.55,427.541c4.28,0.57 8.92,0.75 13.77,0.75c16.91,0 30.48,-5.389 39.58,-15.43c9.86,-10.403 14.87,-25.278 14.87,-41.639c0,-20.82 -10.95,-34.764 -37.18,-34.764c-5.01,0 -10.4,0.375 -13.94,1.111l-17.1,89.972ZM916.87,321.763c10.24,-1.847 21.39,-2.777 33.1,-2.777c20.07,0 35.87,5.194 45.91,15.055c8.56,7.806 14.32,19.514 14.32,36.806c0,23.611 -9.66,45.18 -25.47,58.18c-14.5,11.903 -32.9,16.931 -58.55,16.931c-13.21,0 -25.48,-0.931 -32.55,-1.861l23.24,-122.334Z" style="fill:#636a69;fill-rule:nonzero;"/><path d="M1073.4,319.916l-23.79,125.292l-21.77,0l23.81,-125.292l21.75,0Z" style="fill:#636a69;fill-rule:nonzero;"/><path d="M1090.86,420.486c7.07,4.639 17.29,7.986 28.26,7.986c12.08,0 23.24,-6.5 23.24,-18.584c0,-8.18 -5.39,-13.763 -17.67,-20.263c-14.5,-7.806 -25.46,-17.848 -25.46,-32.723c0,-23.986 20.82,-39.041 46.1,-39.041c13.94,0 23.05,3.541 27.89,6.319l-7.07,18.042c-4.08,-2.236 -12.46,-5.764 -22.68,-5.584c-13.75,0 -21.57,8 -21.57,16.362c0,8.555 7.07,13.569 18.78,20.263c15.25,8 24.36,18.028 24.36,33.278c0,25.097 -20.27,40.528 -48.34,40.528c-15.25,0 -27.7,-4.278 -33.27,-8.736l7.43,-17.847Z" style="fill:#636a69;fill-rule:nonzero;"/><path d="M1279.91,441.486c-6.69,2.986 -18.03,5.583 -32.72,5.583c-32.53,0 -53.35,-20.083 -53.35,-52.611c0,-26.028 11.16,-48.153 29.38,-61.722c13.01,-9.848 28.62,-14.875 46.65,-14.875c13.76,0 23.81,3.347 27.33,5.764l-6.32,17.472c-4.09,-2.222 -12.63,-4.459 -23.61,-4.459c-11.9,0 -23.41,4.098 -31.97,11.528c-10.97,9.667 -18.04,25.472 -18.04,43.695c0,21 10.79,36.805 35.51,36.805c9.11,0 18.41,-1.68 25.1,-4.833l2.04,17.653Z" style="fill:#636a69;fill-rule:nonzero;"/><path d="M1351.11,346.861c-10.98,10.972 -17.29,31.416 -17.29,47.597c0,18.958 8.55,34.569 29.55,34.569c9.11,0 17.85,-3.902 24.36,-10.583c10.78,-10.792 16.92,-32.167 16.92,-47.972c0,-16.542 -5.77,-34.389 -28.82,-34.389c-9.67,0 -18.03,4.083 -24.72,10.778ZM1427.69,369.736c0,22.305 -7.99,45.361 -22.67,59.861c-11.34,11.153 -26.58,17.653 -44.8,17.653c-32.35,0 -49.27,-23.612 -49.27,-51.681c0,-22.306 8.37,-45.722 23.42,-60.236c11.35,-10.958 27.14,-17.472 44.07,-17.472c33.46,0 49.25,23.236 49.25,51.875Z" style="fill:#636a69;fill-rule:nonzero;"/><path d="M1471.73,445.208l-15.41,-125.292l22.12,0l7.25,68.959c1.49,13.013 2.22,23.055 2.78,33.847l0.37,0c4.1,-10.236 8.93,-21.764 15.43,-34.764l33.46,-68.042l23.99,0l-65.25,125.292l-24.74,0Z" style="fill:#636a69;fill-rule:nonzero;"/><path d="M1641.65,389.43l-45,0l-7.06,37.375l50.56,0l-3.53,18.403l-72.32,0l23.81,-125.292l69.52,0l-3.52,18.403l-47.79,0l-6.31,32.903l45.17,0l-3.53,18.208Z" style="fill:#636a69;fill-rule:nonzero;"/><path d="M1702.23,376.986l12.28,0c16.92,0 28.25,-10.417 28.25,-23.986c0,-11.528 -9.1,-16.737 -21.38,-16.737c-5.38,0 -8.91,0.375 -11.52,1.125l-7.63,39.598ZM1691.27,321.958c7.99,-1.861 19.71,-2.972 30.86,-2.972c12.09,0 23.6,2.416 31.42,8.18c7.06,4.834 11.89,12.445 11.89,22.681c0,18.403 -13,31.041 -29,35.875l-0.18,0.555c8.18,3.153 11.71,11.903 12.83,23.792c1.48,15.625 2.42,30.125 4.46,35.139l-22.3,0c-0.93,-2.972 -2.24,-14.875 -3.35,-29.931c-0.93,-15.986 -6.7,-21.75 -18.22,-21.75l-10.6,0l-9.85,51.681l-21.39,0l23.43,-123.25Z" style="fill:#636a69;fill-rule:nonzero;"/><path d="M485.02,364.636c0,0 82.76,4.144 114.59,-56.964c5.12,-9.832 8.92,-21.354 10.84,-34.853c18.07,-126.649 -107.02,-160.24 -93.35,-256.031c5.5,-38.5734 -0.28,-2.6633 9.47,39.3976c9.74,42.06 111.32,93.288 93.16,220.58c0,0 -12.11,94.046 -128.01,92.597l-6.7,-4.727Z" style="fill:#3c5a98;fill-rule:nonzero;"/><path d="M-3.05747,561.008l38.939,-1.661c0,0 21.152,2.126 59.791,22.307c70.815,36.998 51.834,206.812 209.985,229.376c129.864,18.528 197.072,-107.671 203.492,-152.673c2.84,-19.964 0.62,-82.563 -66.879,-92.194c-50.788,-7.246 -59.322,34.174 -60.056,39.318c-0.734,5.143 3.865,41.877 48.036,47.2c0,0 -47.295,-11.016 -42.066,-47.661c5.228,-36.644 40.311,-34.263 53.169,-32.428c12.857,1.834 60.986,27.724 50.716,99.728c-10.28,72.003 -102.287,142.185 -187.148,130.077c-142.079,-20.271 -131.089,-193.848 -208.424,-231.121c0,0 -58.691,-30.021 -99.555,-10.268Z" style="fill:#3c5a98;fill-rule:nonzero;"/><path d="M668.82,568.31c0,0 -57.25,346.06 -327.441,327.19c-208.603,-14.57 -178.492,-275.394 -174.273,-304.967c14.217,-99.647 110.06,-307.037 288.14,-281.629c151.084,21.555 142.114,190.173 137.344,223.603c-8.53,59.789 -49.3,136.301 -107.81,127.955c0,0 93.77,24.416 121.21,-129.978c26.61,-149.702 -85.09,-221.398 -150.102,-230.673c-122.149,-17.427 -295.8,77.841 -325.243,284.208c-28.526,199.939 74.168,303.148 211.746,322.777c0,0 290.059,43.593 365.539,-378.167c12.94,-72.28 8.31,-263.829 -175.92,-307.17c-85.048,-20.006 -115.066,57.053 -116.255,83.778c-1.858,41.525 31.787,62.261 75.505,63.906l-6.71,-4.726c0,0 -70.622,-4.995 -62.092,-64.783c7.98,-55.932 73.922,-49.147 95.142,-46.121c32.78,4.678 205.45,49.649 151.49,312.869" style="fill:#3c5a98;fill-rule:nonzero;"/></g></g><g></g></svg>