<?xml version="1.0" encoding="UTF-8" standalone="no"?>
<!DOCTYPE svg PUBLIC "-//W3C//DTD SVG 1.1//EN" "http://www.w3.org/Graphics/SVG/1.1/DTD/svg11.dtd">
<svg width="100%" height="100%" viewBox="0 0 3000 850" version="1.1" xmlns="http://www.w3.org/2000/svg" xmlns:xlink="http://www.w3.org/1999/xlink" xml:space="preserve" xmlns:serif="http://www.serif.com/" style="fill-rule:evenodd;clip-rule:evenodd;stroke-linejoin:round;stroke-miterlimit:1.41421;">
    <g transform="matrix(4.16667,0,0,4.16667,-317.722,9.52405)">
        <path d="M116.153,142.08C124.84,227.7 279.073,115.237 240.017,39.613C229.483,19.217 201.623,29.333 201.4,32.007C211.823,45.04 220.623,61.6 219.213,78.583C217.277,101.953 201.05,138.59 166.287,137.203C146.107,136.397 144.107,114.413 145.177,101.513C147.09,78.47 160.687,55 193.25,31.193C189.753,27.53 185.45,25.823 181.15,23.253C142.957,52.237 111.783,98.987 116.153,142.08ZM148.683,105.18C147.737,116.607 152.103,130.663 168.843,130.273C207.597,129.363 222.127,53.65 196.65,33.987C164.993,55.017 150.837,79.25 148.683,105.18ZM258.433,36.887C264.553,-2.757 221.197,-4.05 185.357,20.337L197.983,28.713C240.657,11.937 253.893,49.207 249.49,75.873C242.917,115.69 197.543,188.53 138.583,188.17C107.1,187.977 96.973,155.173 98.137,134.483C100.333,95.453 122.137,58.253 172.887,20.28C117.043,4.617 89.963,55.707 83.763,79.977L83.76,79.983C82.903,80.93 81.783,81.397 80.737,81.117C79.317,80.737 78.47,79.103 78.577,77.217C84.537,42.837 118.563,2.563 178.23,17.027C247.64,-24.38 268.087,20.803 264.14,37.477C263.797,38.927 262.527,39.957 261.03,39.813C259.537,39.67 258.203,38.38 258.433,36.887Z" style="fill:rgb(65,170,196);fill-rule:nonzero;"/>
    </g>
    <g transform="matrix(5.78466,0,0,5.78466,980.106,-1065.43)">
        <path d="M240.943,269.493C240.943,271.707 240.943,273.76 240.93,275.65C240.92,277.553 240.887,279.25 240.84,280.73C240.793,282.22 240.713,283.447 240.6,284.42C240.52,285.083 240.407,285.693 240.267,286.22C240.13,286.76 239.933,287.193 239.67,287.537C239.417,287.883 239.063,288.113 238.603,288.203C238.283,288.273 237.94,288.34 237.573,288.4C237.207,288.443 236.86,288.48 236.54,288.48C236.333,288.48 236.197,288.523 236.117,288.603C236.023,288.683 235.99,288.787 235.99,288.89C235.99,289.097 236.08,289.233 236.253,289.317C236.44,289.407 236.713,289.44 237.09,289.44C237.62,289.43 238.25,289.407 238.96,289.373C239.67,289.327 240.38,289.303 241.08,289.303C241.813,289.27 242.443,289.247 242.95,289.247C243.453,289.233 243.75,289.233 243.83,289.233C244.337,289.233 245.023,289.247 245.893,289.28C246.767,289.317 247.87,289.373 249.197,289.44C250.54,289.477 252.167,289.523 254.08,289.567C256.007,289.613 258.253,289.647 260.823,289.647C261.703,289.66 262.393,289.637 262.873,289.58C263.353,289.523 263.71,289.373 263.95,289.12C264.19,288.867 264.387,288.443 264.537,287.86C264.603,287.56 264.683,287.16 264.763,286.667C264.847,286.163 264.923,285.623 264.993,285.05C265.073,284.467 265.153,283.903 265.21,283.353C265.28,282.813 265.327,282.347 265.37,281.957C265.407,281.567 265.43,281.303 265.43,281.187C265.44,280.937 265.417,280.707 265.383,280.49C265.337,280.283 265.21,280.167 265.017,280.157C264.847,280.157 264.72,280.223 264.627,280.387C264.537,280.547 264.467,280.81 264.4,281.187C264.17,282.583 263.813,283.663 263.343,284.443C262.86,285.21 262.187,285.783 261.303,286.14C260.697,286.393 259.987,286.563 259.193,286.667C258.4,286.78 257.6,286.85 256.81,286.873C256.02,286.897 255.307,286.897 254.7,286.897C253.027,286.907 251.673,286.84 250.64,286.68C249.6,286.53 248.807,286.253 248.257,285.853C247.707,285.453 247.33,284.877 247.11,284.143C246.893,283.4 246.753,282.437 246.72,281.257C246.71,280.947 246.7,280.43 246.7,279.697C246.687,278.977 246.687,278.127 246.687,277.163C246.7,276.2 246.7,275.227 246.7,274.23C246.71,273.233 246.71,272.313 246.71,271.477C246.72,270.64 246.72,269.977 246.72,269.493L246.72,263.44C246.72,263.303 246.753,263.19 246.837,263.097C246.903,263.003 247.03,262.96 247.203,262.96C247.453,262.96 247.88,262.96 248.5,262.97C249.107,262.983 249.83,263.003 250.63,263.017C251.443,263.04 252.27,263.063 253.107,263.097C253.957,263.12 254.72,263.153 255.41,263.19C256.11,263.223 256.65,263.26 257.04,263.303C257.92,263.397 258.61,263.58 259.103,263.83C259.58,264.097 259.94,264.38 260.167,264.713C260.387,265.047 260.537,265.38 260.617,265.71C260.75,266.16 260.833,266.56 260.853,266.927C260.89,267.293 260.9,267.637 260.89,267.983C260.89,268.153 260.923,268.303 261.003,268.417C261.073,268.53 261.2,268.6 261.37,268.6C261.53,268.59 261.647,268.52 261.717,268.383C261.783,268.243 261.82,268.073 261.83,267.88C261.853,267.67 261.853,267.477 261.853,267.293C261.853,267.167 261.863,266.927 261.873,266.593C261.887,266.263 261.91,265.87 261.947,265.423C261.967,264.99 261.99,264.543 262.023,264.097C262.06,263.647 262.093,263.247 262.127,262.89C262.243,261.767 262.357,260.883 262.483,260.267C262.6,259.647 262.667,259.233 262.68,259.04C262.68,258.833 262.643,258.697 262.587,258.603C262.517,258.523 262.44,258.49 262.333,258.49C262.197,258.49 262.06,258.57 261.9,258.73C261.737,258.89 261.543,259.11 261.303,259.383C261.003,259.717 260.59,259.947 260.077,260.073C259.56,260.197 258.893,260.29 258.07,260.347C257.793,260.37 257.36,260.393 256.773,260.403C256.18,260.417 255.5,260.437 254.733,260.437C253.957,260.45 253.163,260.46 252.35,260.46C251.523,260.473 250.743,260.473 250.01,260.483L247.133,260.483C246.96,260.483 246.86,260.427 246.8,260.323C246.743,260.207 246.72,260.037 246.72,259.797L246.72,240.813C246.72,240.573 246.753,240.4 246.823,240.283C246.893,240.17 246.997,240.123 247.133,240.123C247.307,240.123 247.683,240.123 248.29,240.137C248.9,240.137 249.61,240.147 250.447,240.16C251.27,240.17 252.11,240.183 252.957,240.193C253.793,240.217 254.55,240.227 255.203,240.25C255.86,240.273 256.303,240.297 256.557,240.33C257.783,240.47 258.713,240.653 259.367,240.87C260.02,241.1 260.49,241.363 260.787,241.66C261.083,241.97 261.303,242.3 261.44,242.67C261.557,242.943 261.633,243.253 261.703,243.563C261.76,243.883 261.797,244.193 261.82,244.47C261.843,244.753 261.853,244.973 261.853,245.143C261.853,245.42 261.887,245.637 261.98,245.8C262.06,245.96 262.197,246.04 262.403,246.04C262.54,246.027 262.643,245.95 262.723,245.787C262.793,245.627 262.85,245.467 262.883,245.283C262.917,245.067 262.953,244.743 262.99,244.32C263.023,243.897 263.057,243.45 263.08,242.957C263.113,242.473 263.137,242.027 263.16,241.627C263.193,241.223 263.217,240.927 263.23,240.743C263.343,239.79 263.457,239.08 263.583,238.59C263.7,238.097 263.767,237.74 263.78,237.513C263.78,237.34 263.757,237.19 263.72,237.073C263.677,236.96 263.607,236.89 263.503,236.89C263.33,236.903 263.17,236.95 263.023,237.04C262.873,237.12 262.71,237.19 262.54,237.237C262.253,237.303 261.863,237.373 261.347,237.43C260.833,237.497 260.25,237.543 259.58,237.58C259.343,237.59 258.893,237.603 258.243,237.603C257.577,237.613 256.787,237.613 255.86,237.623C254.917,237.623 253.93,237.637 252.877,237.637C251.81,237.637 250.767,237.637 249.737,237.637C248.703,237.65 247.75,237.65 246.893,237.65L243.83,237.65L241.01,237.513C240.243,237.477 239.43,237.453 238.56,237.453C237.7,237.44 236.86,237.44 236.06,237.44C235.68,237.44 235.407,237.477 235.223,237.557C235.05,237.65 234.96,237.783 234.96,237.993C234.97,238.13 235.03,238.233 235.13,238.3C235.247,238.37 235.373,238.407 235.51,238.407C235.727,238.407 235.98,238.407 236.267,238.427C236.563,238.44 236.85,238.463 237.137,238.497C237.423,238.52 237.653,238.567 237.847,238.61C238.593,238.76 239.18,239 239.59,239.323C240.017,239.633 240.3,240.057 240.483,240.58C240.657,241.1 240.77,241.75 240.807,242.53C240.83,242.957 240.85,243.413 240.873,243.897C240.887,244.367 240.91,244.95 240.92,245.617C240.92,246.293 240.93,247.14 240.93,248.16C240.943,249.17 240.943,250.43 240.943,251.933L240.943,269.493ZM176.77,247.14C177.33,247.77 178.2,248.743 179.38,250.063C180.55,251.37 181.96,252.917 183.58,254.717C185.197,256.507 186.96,258.443 188.863,260.52C190.753,262.593 192.713,264.713 194.72,266.88C196.2,268.463 197.723,270.09 199.32,271.763C200.9,273.437 202.46,275.053 203.973,276.623C205.487,278.207 206.873,279.627 208.133,280.923C209.383,282.207 210.417,283.25 211.217,284.067C212.02,284.877 212.513,285.37 212.673,285.52C213.877,286.723 214.803,287.643 215.47,288.283C216.147,288.927 216.64,289.363 216.96,289.59C217.28,289.82 217.523,289.933 217.693,289.923C217.82,289.933 217.913,289.887 217.993,289.797C218.073,289.707 218.14,289.497 218.187,289.177C218.233,288.867 218.267,288.373 218.29,287.72C218.303,287.057 218.313,286.163 218.313,285.037L218.45,244.733C218.44,243.367 218.497,242.257 218.61,241.42C218.727,240.573 218.967,239.93 219.333,239.493C219.69,239.057 220.25,238.76 220.997,238.61C221.41,238.507 221.74,238.45 222.003,238.427C222.27,238.407 222.473,238.393 222.647,238.407C222.887,238.407 223.07,238.36 223.21,238.267C223.333,238.173 223.403,238.06 223.403,237.923C223.403,237.717 223.29,237.59 223.07,237.523C222.853,237.463 222.543,237.43 222.167,237.44C221.223,237.44 220.353,237.463 219.563,237.497C218.783,237.523 218.107,237.557 217.543,237.59C216.983,237.623 216.583,237.65 216.32,237.65C216.053,237.65 215.55,237.623 214.817,237.59C214.083,237.557 213.223,237.523 212.227,237.497C211.24,237.463 210.22,237.44 209.167,237.44C208.753,237.43 208.42,237.463 208.167,237.523C207.927,237.59 207.8,237.717 207.79,237.923C207.79,238.06 207.813,238.173 207.88,238.267C207.96,238.36 208.11,238.407 208.34,238.407C208.537,238.407 208.81,238.417 209.19,238.427C209.553,238.45 209.967,238.487 210.417,238.53C210.863,238.59 211.287,238.657 211.71,238.75C212.42,238.92 212.96,239.23 213.34,239.69C213.73,240.147 213.993,240.823 214.14,241.717C214.3,242.613 214.38,243.803 214.393,245.283L215.15,280.223C214.587,279.64 213.74,278.723 212.607,277.483C211.47,276.247 210.14,274.79 208.627,273.13C207.113,271.467 205.497,269.7 203.79,267.833C202.08,265.963 200.36,264.117 198.64,262.273C196.51,259.99 194.433,257.753 192.393,255.577C190.363,253.387 188.45,251.333 186.663,249.4C184.873,247.473 183.27,245.74 181.86,244.217C180.45,242.69 179.303,241.453 178.42,240.49C177.537,239.53 176.987,238.92 176.77,238.68C176.527,238.44 176.263,238.14 175.967,237.797C175.66,237.463 175.37,237.153 175.073,236.89C174.787,236.627 174.557,236.49 174.36,236.48C174.177,236.467 174.03,236.573 173.927,236.777C173.81,236.983 173.73,237.327 173.683,237.83C173.627,238.337 173.607,239.033 173.607,239.917L173.537,279.33C173.55,281.403 173.49,283.043 173.387,284.273C173.273,285.497 173.077,286.393 172.77,286.977C172.47,287.56 172.047,287.927 171.473,288.067C170.933,288.24 170.407,288.34 169.88,288.4C169.353,288.453 168.95,288.48 168.653,288.48C168.48,288.48 168.343,288.513 168.25,288.583C168.147,288.65 168.103,288.753 168.103,288.89C168.103,289.12 168.207,289.28 168.4,289.35C168.583,289.42 168.86,289.453 169.203,289.44C170.247,289.44 171.23,289.42 172.15,289.383C173.077,289.35 173.857,289.327 174.51,289.293C175.153,289.257 175.587,289.233 175.807,289.233C176.023,289.233 176.45,289.257 177.1,289.293C177.753,289.327 178.58,289.35 179.6,289.383C180.62,289.42 181.79,289.44 183.097,289.44C183.51,289.44 183.82,289.407 184.027,289.317C184.23,289.233 184.333,289.097 184.333,288.89C184.333,288.753 184.287,288.65 184.187,288.583C184.093,288.513 183.957,288.48 183.783,288.48C183.567,288.48 183.28,288.467 182.913,288.443C182.537,288.433 182.123,288.387 181.673,288.33C181.23,288.273 180.79,288.18 180.347,288.067C179.727,287.893 179.233,287.55 178.857,287.013C178.477,286.473 178.19,285.647 178.007,284.533C177.823,283.433 177.707,281.957 177.663,280.087L176.77,247.14ZM133.85,269.493C133.85,271.707 133.85,273.76 133.837,275.65C133.827,277.553 133.79,279.25 133.747,280.73C133.7,282.22 133.62,283.447 133.507,284.42C133.427,285.083 133.31,285.693 133.173,286.22C133.037,286.76 132.84,287.193 132.577,287.537C132.323,287.883 131.97,288.113 131.51,288.203C131.19,288.273 130.847,288.34 130.48,288.4C130.11,288.443 129.767,288.48 129.447,288.48C129.24,288.48 129.103,288.523 129.023,288.603C128.93,288.683 128.897,288.787 128.897,288.89C128.897,289.097 128.987,289.233 129.16,289.317C129.343,289.407 129.62,289.44 129.997,289.44C130.523,289.43 131.157,289.407 131.867,289.373C132.577,289.327 133.287,289.303 133.987,289.303C134.72,289.27 135.35,289.247 135.853,289.247C136.36,289.233 136.66,289.233 136.737,289.233C137.243,289.233 137.93,289.247 138.8,289.28C139.67,289.317 140.773,289.373 142.103,289.44C143.443,289.477 145.07,289.523 146.987,289.567C148.913,289.613 151.16,289.647 153.727,289.647C154.61,289.66 155.3,289.637 155.78,289.58C156.26,289.523 156.617,289.373 156.857,289.12C157.097,288.867 157.29,288.443 157.44,287.86C157.51,287.56 157.59,287.16 157.67,286.667C157.75,286.163 157.83,285.623 157.9,285.05C157.98,284.467 158.06,283.903 158.117,283.353C158.187,282.813 158.233,282.347 158.277,281.957C158.31,281.567 158.337,281.303 158.337,281.187C158.347,280.937 158.323,280.707 158.29,280.49C158.243,280.283 158.117,280.167 157.923,280.157C157.75,280.157 157.623,280.223 157.533,280.387C157.44,280.547 157.373,280.81 157.303,281.187C157.073,282.583 156.72,283.663 156.25,284.443C155.767,285.21 155.09,285.783 154.21,286.14C153.6,286.393 152.89,286.563 152.1,286.667C151.307,286.78 150.507,286.85 149.713,286.873C148.923,286.897 148.213,286.897 147.607,286.897C145.933,286.907 144.58,286.84 143.547,286.68C142.503,286.53 141.713,286.253 141.163,285.853C140.613,285.453 140.233,284.877 140.017,284.143C139.8,283.4 139.66,282.437 139.627,281.257C139.617,280.947 139.603,280.43 139.603,279.697C139.593,278.977 139.593,278.127 139.593,277.163C139.603,276.2 139.603,275.227 139.603,274.23C139.617,273.233 139.617,272.313 139.617,271.477C139.627,270.64 139.627,269.977 139.627,269.493L139.627,263.44C139.627,263.303 139.66,263.19 139.743,263.097C139.81,263.003 139.937,262.96 140.107,262.96C140.36,262.96 140.783,262.96 141.403,262.97C142.01,262.983 142.733,263.003 143.537,263.017C144.35,263.04 145.173,263.063 146.01,263.097C146.86,263.12 147.627,263.153 148.317,263.19C149.017,263.223 149.553,263.26 149.943,263.303C150.827,263.397 151.517,263.58 152.01,263.83C152.49,264.097 152.843,264.38 153.073,264.713C153.29,265.047 153.44,265.38 153.52,265.71C153.657,266.16 153.74,266.56 153.76,266.927C153.797,267.293 153.807,267.637 153.797,267.983C153.797,268.153 153.83,268.303 153.91,268.417C153.98,268.53 154.103,268.6 154.277,268.6C154.437,268.59 154.553,268.52 154.62,268.383C154.69,268.243 154.723,268.073 154.737,267.88C154.76,267.67 154.76,267.477 154.76,267.293C154.76,267.167 154.77,266.927 154.78,266.593C154.793,266.263 154.817,265.87 154.85,265.423C154.873,264.99 154.897,264.543 154.93,264.097C154.967,263.647 155,263.247 155.033,262.89C155.15,261.767 155.263,260.883 155.39,260.267C155.503,259.647 155.573,259.233 155.583,259.04C155.583,258.833 155.55,258.697 155.493,258.603C155.423,258.523 155.343,258.49 155.24,258.49C155.103,258.49 154.967,258.57 154.807,258.73C154.643,258.89 154.45,259.11 154.21,259.383C153.91,259.717 153.5,259.947 152.983,260.073C152.467,260.197 151.8,260.29 150.977,260.347C150.7,260.37 150.267,260.393 149.68,260.403C149.083,260.417 148.407,260.437 147.64,260.437C146.86,260.45 146.07,260.46 145.257,260.46C144.43,260.473 143.65,260.473 142.917,260.483L140.04,260.483C139.867,260.483 139.763,260.427 139.707,260.323C139.65,260.207 139.627,260.037 139.627,259.797L139.627,240.813C139.627,240.573 139.66,240.4 139.73,240.283C139.8,240.17 139.9,240.123 140.04,240.123C140.21,240.123 140.59,240.123 141.197,240.137C141.807,240.137 142.517,240.147 143.353,240.16C144.177,240.17 145.013,240.183 145.863,240.193C146.7,240.217 147.457,240.227 148.11,240.25C148.763,240.273 149.21,240.297 149.463,240.33C150.69,240.47 151.62,240.653 152.27,240.87C152.923,241.1 153.393,241.363 153.693,241.66C153.99,241.97 154.21,242.3 154.347,242.67C154.46,242.943 154.54,243.253 154.61,243.563C154.667,243.883 154.703,244.193 154.723,244.47C154.75,244.753 154.76,244.973 154.76,245.143C154.76,245.42 154.793,245.637 154.883,245.8C154.967,245.96 155.103,246.04 155.31,246.04C155.447,246.027 155.55,245.95 155.63,245.787C155.7,245.627 155.757,245.467 155.79,245.283C155.823,245.067 155.86,244.743 155.893,244.32C155.927,243.897 155.96,243.45 155.987,242.957C156.02,242.473 156.043,242.027 156.067,241.627C156.1,241.223 156.123,240.927 156.133,240.743C156.25,239.79 156.363,239.08 156.49,238.59C156.603,238.097 156.673,237.74 156.687,237.513C156.687,237.34 156.663,237.19 156.627,237.073C156.58,236.96 156.513,236.89 156.41,236.89C156.237,236.903 156.08,236.95 155.927,237.04C155.78,237.12 155.62,237.19 155.447,237.237C155.16,237.303 154.77,237.373 154.253,237.43C153.74,237.497 153.153,237.543 152.49,237.58C152.25,237.59 151.8,237.603 151.147,237.603C150.483,237.613 149.69,237.613 148.763,237.623C147.823,237.623 146.837,237.637 145.783,237.637C144.717,237.637 143.673,237.637 142.643,237.637C141.61,237.65 140.66,237.65 139.8,237.65L136.737,237.65L133.917,237.513C133.15,237.477 132.337,237.453 131.463,237.453C130.603,237.44 129.767,237.44 128.967,237.44C128.587,237.44 128.313,237.477 128.13,237.557C127.957,237.65 127.867,237.783 127.867,237.993C127.877,238.13 127.933,238.233 128.037,238.3C128.15,238.37 128.277,238.407 128.417,238.407C128.633,238.407 128.883,238.407 129.17,238.427C129.47,238.44 129.757,238.463 130.043,238.497C130.33,238.52 130.56,238.567 130.753,238.61C131.5,238.76 132.083,239 132.497,239.323C132.92,239.633 133.207,240.057 133.39,240.58C133.563,241.1 133.677,241.75 133.71,242.53C133.733,242.957 133.757,243.413 133.78,243.897C133.79,244.367 133.813,244.95 133.827,245.617C133.827,246.293 133.837,247.14 133.837,248.16C133.85,249.17 133.85,250.43 133.85,251.933L133.85,269.493ZM69.673,247.14C70.237,247.77 71.107,248.743 72.287,250.063C73.457,251.37 74.867,252.917 76.483,254.717C78.1,256.507 79.867,258.443 81.77,260.52C83.66,262.593 85.62,264.713 87.627,266.88C89.107,268.463 90.63,270.09 92.223,271.763C93.807,273.437 95.367,275.053 96.877,276.623C98.393,278.207 99.78,279.627 101.04,280.923C102.29,282.207 103.32,283.25 104.123,284.067C104.927,284.877 105.42,285.37 105.58,285.52C106.783,286.723 107.71,287.643 108.377,288.283C109.053,288.927 109.547,289.363 109.867,289.59C110.187,289.82 110.43,289.933 110.6,289.923C110.727,289.933 110.82,289.887 110.897,289.797C110.98,289.707 111.047,289.497 111.093,289.177C111.14,288.867 111.173,288.373 111.197,287.72C111.207,287.057 111.22,286.163 111.22,285.037L111.357,244.733C111.347,243.367 111.403,242.257 111.517,241.42C111.63,240.573 111.873,239.93 112.24,239.493C112.597,239.057 113.157,238.76 113.903,238.61C114.313,238.507 114.647,238.45 114.91,238.427C115.173,238.407 115.38,238.393 115.55,238.407C115.793,238.407 115.977,238.36 116.113,238.267C116.24,238.173 116.31,238.06 116.31,237.923C116.31,237.717 116.193,237.59 115.977,237.523C115.76,237.463 115.45,237.43 115.073,237.44C114.13,237.44 113.26,237.463 112.47,237.497C111.69,237.523 111.013,237.557 110.45,237.59C109.89,237.623 109.49,237.65 109.223,237.65C108.96,237.65 108.457,237.623 107.723,237.59C106.99,237.557 106.13,237.523 105.133,237.497C104.147,237.463 103.127,237.44 102.073,237.44C101.66,237.43 101.327,237.463 101.073,237.523C100.833,237.59 100.707,237.717 100.693,237.923C100.693,238.06 100.72,238.173 100.787,238.267C100.867,238.36 101.017,238.407 101.247,238.407C101.44,238.407 101.717,238.417 102.093,238.427C102.46,238.45 102.873,238.487 103.32,238.53C103.767,238.59 104.193,238.657 104.617,238.75C105.327,238.92 105.867,239.23 106.247,239.69C106.633,240.147 106.897,240.823 107.047,241.717C107.207,242.613 107.287,243.803 107.3,245.283L108.053,280.223C107.493,279.64 106.647,278.723 105.51,277.483C104.373,276.247 103.043,274.79 101.533,273.13C100.02,271.467 98.403,269.7 96.693,267.833C94.987,265.963 93.267,264.117 91.547,262.273C89.417,259.99 87.34,257.753 85.3,255.577C83.27,253.387 81.357,251.333 79.567,249.4C77.78,247.473 76.177,245.74 74.763,244.217C73.353,242.69 72.21,241.453 71.327,240.49C70.443,239.53 69.893,238.92 69.673,238.68C69.433,238.44 69.17,238.14 68.873,237.797C68.563,237.463 68.277,237.153 67.98,236.89C67.693,236.627 67.463,236.49 67.267,236.48C67.083,236.467 66.933,236.573 66.83,236.777C66.717,236.983 66.637,237.327 66.59,237.83C66.533,238.337 66.51,239.033 66.51,239.917L66.44,279.33C66.453,281.403 66.397,283.043 66.293,284.273C66.18,285.497 65.983,286.393 65.673,286.977C65.377,287.56 64.953,287.927 64.377,288.067C63.84,288.24 63.31,288.34 62.787,288.4C62.257,288.453 61.857,288.48 61.56,288.48C61.387,288.48 61.25,288.513 61.157,288.583C61.053,288.65 61.01,288.753 61.01,288.89C61.01,289.12 61.113,289.28 61.307,289.35C61.49,289.42 61.763,289.453 62.11,289.44C63.15,289.44 64.137,289.42 65.053,289.383C65.983,289.35 66.763,289.327 67.417,289.293C68.057,289.257 68.493,289.233 68.713,289.233C68.93,289.233 69.353,289.257 70.007,289.293C70.66,289.327 71.487,289.35 72.507,289.383C73.527,289.42 74.697,289.44 76.003,289.44C76.417,289.44 76.723,289.407 76.93,289.317C77.137,289.233 77.24,289.097 77.24,288.89C77.24,288.753 77.193,288.65 77.09,288.583C77,288.513 76.863,288.48 76.69,288.48C76.473,288.48 76.187,288.467 75.82,288.443C75.44,288.433 75.027,288.387 74.58,288.33C74.133,288.273 73.697,288.18 73.25,288.067C72.63,287.893 72.14,287.55 71.76,287.013C71.383,286.473 71.097,285.647 70.913,284.533C70.73,283.433 70.613,281.957 70.567,280.087L69.673,247.14ZM6.533,261.447C6.543,257.677 7.06,254.387 8.057,251.553C9.053,248.72 10.463,246.373 12.263,244.48C14.077,242.59 16.197,241.177 18.64,240.227C21.067,239.287 23.727,238.817 26.617,238.817C28.807,238.817 30.917,239.173 32.967,239.873C35.007,240.573 36.91,241.613 38.677,242.99C40.43,244.377 41.977,246.083 43.297,248.127C44.627,250.177 45.657,252.54 46.403,255.223C47.137,257.903 47.513,260.897 47.527,264.2C47.513,267.523 47.193,270.423 46.553,272.9C45.923,275.363 45.06,277.473 43.983,279.217C42.907,280.947 41.693,282.38 40.36,283.503C39.02,284.627 37.633,285.497 36.213,286.117C34.79,286.747 33.427,287.183 32.097,287.433C30.777,287.687 29.587,287.803 28.543,287.79C25.437,287.78 22.547,287.16 19.877,285.933C17.217,284.693 14.89,282.93 12.897,280.627C10.9,278.323 9.34,275.56 8.23,272.323C7.117,269.093 6.553,265.457 6.533,261.447ZM326.92,290.403C328.79,290.413 330.623,290.187 332.4,289.727C334.177,289.28 335.817,288.537 337.307,287.517C338.487,286.667 339.46,285.727 340.22,284.707C340.987,283.687 341.583,282.653 342.007,281.6C342.443,280.547 342.74,279.55 342.913,278.597C343.073,277.647 343.167,276.81 343.153,276.097C343.167,274.733 343.027,273.417 342.73,272.153C342.43,270.883 341.913,269.62 341.18,268.347C340.437,267.087 339.417,265.757 338.11,264.38C336.79,263.003 335.127,261.527 333.11,259.933L331.187,258.42C329.543,257.137 328.18,256 327.09,254.993C326.003,253.983 325.143,253.043 324.513,252.173C323.883,251.313 323.437,250.453 323.17,249.593C322.91,248.743 322.78,247.827 322.793,246.863C322.807,245.18 323.197,243.747 323.93,242.567C324.673,241.373 325.68,240.47 326.953,239.837C328.217,239.207 329.66,238.887 331.253,238.887C332.823,238.897 334.143,239.047 335.21,239.343C336.273,239.643 337.123,239.997 337.777,240.423C338.42,240.847 338.9,241.247 339.22,241.637C339.553,242.027 339.76,242.323 339.85,242.53C339.99,242.793 340.127,243.14 340.25,243.573C340.38,244.01 340.48,244.433 340.573,244.883C340.667,245.317 340.723,245.683 340.747,245.97C340.77,246.247 340.827,246.463 340.897,246.623C340.963,246.783 341.1,246.863 341.297,246.863C341.467,246.863 341.593,246.74 341.663,246.487C341.743,246.237 341.78,245.833 341.78,245.283C341.79,242.957 341.833,241.19 341.913,240.01C341.997,238.83 342.04,238.153 342.05,237.993C342.063,237.82 342.017,237.693 341.913,237.623C341.823,237.543 341.64,237.513 341.363,237.513C341.1,237.513 340.803,237.487 340.447,237.44C340.09,237.397 339.6,237.303 338.957,237.167C338.11,236.96 337.157,236.787 336.123,236.663C335.08,236.547 333.89,236.48 332.56,236.48C329.637,236.49 327.117,237.02 324.983,238.05C322.863,239.08 321.223,240.527 320.077,242.383C318.92,244.23 318.333,246.383 318.323,248.86C318.31,250.02 318.437,251.173 318.7,252.323C318.953,253.467 319.413,254.637 320.067,255.83C320.707,257.02 321.623,258.273 322.793,259.59C323.96,260.897 325.453,262.297 327.263,263.783L330.36,266.33C331.84,267.547 333.077,268.647 334.097,269.657C335.107,270.663 335.92,271.637 336.54,272.567C337.147,273.507 337.593,274.47 337.87,275.453C338.143,276.453 338.28,277.53 338.27,278.71C338.27,279.823 338.063,280.923 337.663,282C337.26,283.08 336.64,284.053 335.827,284.937C335.013,285.82 333.993,286.52 332.757,287.043C331.53,287.573 330.083,287.847 328.433,287.86C327.277,287.86 326.14,287.733 325.04,287.48C323.94,287.217 322.93,286.817 322,286.263C321.077,285.703 320.283,284.983 319.63,284.087C318.977,283.193 318.517,282.117 318.253,280.843C318.15,280.35 318.093,279.893 318.07,279.443C318.047,278.997 318.047,278.62 318.047,278.3C318.047,278.023 318.023,277.83 317.957,277.713C317.9,277.6 317.76,277.543 317.567,277.543C317.393,277.543 317.27,277.633 317.187,277.807C317.107,277.99 317.05,278.263 317.017,278.643C316.993,279.02 316.947,279.55 316.9,280.26C316.843,280.957 316.797,281.793 316.75,282.757C316.693,283.72 316.67,284.787 316.67,285.933C316.67,286.54 316.683,287.013 316.73,287.333C316.763,287.653 316.867,287.893 317.003,288.067C317.153,288.24 317.383,288.4 317.703,288.547C319.113,289.223 320.603,289.707 322.163,289.99C323.71,290.277 325.303,290.413 326.92,290.403ZM287.713,290.403C289.583,290.413 291.417,290.187 293.193,289.727C294.97,289.28 296.61,288.537 298.1,287.517C299.28,286.667 300.257,285.727 301.013,284.707C301.78,283.687 302.377,282.653 302.8,281.6C303.237,280.547 303.533,279.55 303.707,278.597C303.867,277.647 303.96,276.81 303.95,276.097C303.96,274.733 303.82,273.417 303.523,272.153C303.227,270.883 302.71,269.62 301.973,268.347C301.23,267.087 300.21,265.757 298.903,264.38C297.583,263.003 295.923,261.527 293.907,259.933L291.98,258.42C290.34,257.137 288.977,256 287.887,254.993C286.797,253.983 285.937,253.043 285.307,252.173C284.677,251.313 284.23,250.453 283.967,249.593C283.703,248.743 283.577,247.827 283.587,246.863C283.6,245.18 283.99,243.747 284.723,242.567C285.467,241.373 286.477,240.47 287.75,239.837C289.01,239.207 290.457,238.887 292.047,238.887C293.62,238.897 294.937,239.047 296.003,239.343C297.07,239.643 297.917,239.997 298.57,240.423C299.213,240.847 299.693,241.247 300.013,241.637C300.347,242.027 300.553,242.323 300.647,242.53C300.783,242.793 300.92,243.14 301.047,243.573C301.173,244.01 301.277,244.433 301.37,244.883C301.46,245.317 301.517,245.683 301.54,245.97C301.563,246.247 301.62,246.463 301.69,246.623C301.757,246.783 301.897,246.863 302.09,246.863C302.26,246.863 302.39,246.74 302.457,246.487C302.54,246.237 302.573,245.833 302.573,245.283C302.583,242.957 302.63,241.19 302.71,240.01C302.79,238.83 302.837,238.153 302.847,237.993C302.857,237.82 302.81,237.693 302.71,237.623C302.617,237.543 302.433,237.513 302.16,237.513C301.897,237.513 301.597,237.487 301.24,237.44C300.887,237.397 300.393,237.303 299.75,237.167C298.903,236.96 297.95,236.787 296.92,236.663C295.877,236.547 294.683,236.48 293.357,236.48C290.43,236.49 287.91,237.02 285.777,238.05C283.657,239.08 282.02,240.527 280.87,242.383C279.713,244.23 279.13,246.383 279.117,248.86C279.107,250.02 279.233,251.173 279.497,252.323C279.747,253.467 280.207,254.637 280.86,255.83C281.5,257.02 282.42,258.273 283.587,259.59C284.757,260.897 286.25,262.297 288.06,263.783L291.153,266.33C292.633,267.547 293.87,268.647 294.89,269.657C295.9,270.663 296.713,271.637 297.333,272.567C297.94,273.507 298.387,274.47 298.663,275.453C298.937,276.453 299.077,277.53 299.063,278.71C299.063,279.823 298.857,280.923 298.457,282C298.053,283.08 297.437,284.053 296.623,284.937C295.81,285.82 294.79,286.52 293.55,287.043C292.323,287.573 290.88,287.847 289.23,287.86C288.07,287.86 286.937,287.733 285.833,287.48C284.733,287.217 283.723,286.817 282.797,286.263C281.87,285.703 281.077,284.983 280.423,284.087C279.77,283.193 279.31,282.117 279.047,280.843C278.947,280.35 278.887,279.893 278.863,279.443C278.84,278.997 278.84,278.62 278.84,278.3C278.84,278.023 278.82,277.83 278.75,277.713C278.693,277.6 278.557,277.543 278.36,277.543C278.19,277.543 278.063,277.633 277.98,277.807C277.903,277.99 277.847,278.263 277.81,278.643C277.787,279.02 277.74,279.55 277.693,280.26C277.637,280.957 277.59,281.793 277.547,282.757C277.49,283.72 277.467,284.787 277.467,285.933C277.467,286.54 277.477,287.013 277.523,287.333C277.56,287.653 277.66,287.893 277.8,288.067C277.95,288.24 278.177,288.4 278.5,288.547C279.91,289.223 281.4,289.707 282.957,289.99C284.503,290.277 286.1,290.413 287.713,290.403ZM0,263.373C0,265.447 0.217,267.547 0.663,269.677C1.11,271.8 1.797,273.863 2.727,275.88C3.653,277.897 4.833,279.777 6.28,281.53C7.713,283.287 9.423,284.823 11.393,286.15C13.363,287.47 15.623,288.513 18.167,289.257C20.703,290.013 23.543,290.393 26.687,290.403C30.01,290.393 33.083,289.91 35.903,288.96C38.733,288.007 41.267,286.667 43.503,284.937C45.75,283.203 47.663,281.177 49.247,278.827C50.83,276.487 52.03,273.92 52.867,271.113C53.703,268.313 54.12,265.367 54.13,262.273C54.12,259.063 53.683,256.117 52.8,253.433C51.927,250.75 50.69,248.367 49.073,246.27C47.457,244.17 45.533,242.393 43.297,240.94C41.06,239.483 38.583,238.38 35.857,237.623C33.127,236.87 30.203,236.48 27.097,236.48C23.933,236.49 21.067,236.903 18.5,237.693C15.933,238.497 13.64,239.587 11.633,240.973C9.627,242.36 7.897,243.953 6.43,245.74C4.963,247.54 3.757,249.443 2.807,251.45C1.857,253.457 1.143,255.473 0.687,257.513C0.227,259.543 0,261.503 0,263.373Z" style="fill:rgb(40,31,39);fill-rule:nonzero;"/>
    </g>
    <g transform="matrix(5.78466,0,0,5.78466,980.106,-1065.43)">
        <path d="M226.43,219.01L295.65,219.01L295.65,220.38L226.43,220.38L226.43,219.01ZM47.503,219.01L116.723,219.01L116.723,220.38L47.503,220.38L47.503,219.01Z" style="fill:rgb(40,31,39);"/>
    </g>
    <g transform="matrix(5.78466,0,0,5.78466,980.106,-1065.43)">
        <path d="M334.427,303.617C333.98,303.617 333.67,303.643 333.5,303.703C333.203,303.81 333.05,304.047 333.05,304.407L333.05,312.86L332.66,312.86L324.807,304.643L324.807,311.15C324.807,311.84 324.99,312.243 325.357,312.363C325.573,312.433 325.897,312.47 326.337,312.47L326.337,312.757L322.813,312.757L322.813,312.47L322.88,312.47C323.71,312.47 324.123,312.13 324.123,311.453L324.123,303.993C323.78,303.757 323.357,303.63 322.85,303.617L322.85,303.327L325.23,303.327L332.37,310.773L332.37,304.74C332.37,304.163 332.183,303.823 331.81,303.717C331.597,303.657 331.287,303.623 330.883,303.617L330.883,303.327L334.427,303.327L334.427,303.617ZM295.7,308.287C295.7,306.94 295.327,305.817 294.58,304.92C293.793,303.96 292.737,303.483 291.413,303.483C290.207,303.483 289.26,303.96 288.58,304.91C287.98,305.75 287.683,306.707 287.683,307.78C287.683,308.66 287.86,309.46 288.217,310.183C288.59,310.96 289.133,311.567 289.843,312C290.52,312.413 291.257,312.623 292.05,312.623C293.6,312.623 294.68,311.88 295.293,310.393C295.563,309.737 295.7,309.03 295.7,308.287ZM297.13,307.78C297.13,309.287 296.603,310.54 295.55,311.533C294.52,312.513 293.25,313 291.73,313C290.77,313 289.883,312.817 289.077,312.447C288.207,312.053 287.513,311.477 287,310.72C286.51,310 286.26,309.18 286.26,308.257C286.26,307.273 286.497,306.393 286.96,305.607C287.43,304.823 288.093,304.203 288.957,303.757C289.807,303.317 290.757,303.097 291.807,303.097C293.227,303.097 294.453,303.517 295.48,304.357C296.577,305.247 297.13,306.393 297.13,307.78ZM260.347,312.757L256.66,312.757L256.66,312.47C257.127,312.45 257.44,312.343 257.593,312.15C257.73,311.977 257.8,311.65 257.8,311.163L257.8,304.71C257.8,304.3 257.71,304.017 257.533,303.86C257.37,303.72 257.08,303.64 256.66,303.617L256.66,303.327L260.347,303.327L260.347,303.617C259.71,303.617 259.32,303.767 259.183,304.073C259.1,304.257 259.057,304.513 259.057,304.843L259.057,311.267C259.057,311.867 259.223,312.227 259.553,312.357C259.74,312.43 260.007,312.47 260.347,312.47L260.347,312.757ZM231.067,305.553L230.793,305.553C230.653,304.71 230.457,304.197 230.2,304.013C230.073,303.92 229.9,303.873 229.69,303.873L227.047,303.873L227.047,311.363C227.047,311.79 227.143,312.083 227.337,312.243C227.513,312.393 227.817,312.47 228.247,312.47L228.81,312.47L228.81,312.757L224.033,312.757L224.033,312.47L224.59,312.47C225.02,312.47 225.327,312.39 225.51,312.237C225.697,312.08 225.79,311.79 225.79,311.363L225.79,303.873L223.153,303.873C222.78,303.873 222.5,304.073 222.317,304.467C222.227,304.66 222.137,305.023 222.043,305.553L221.777,305.553L222.013,303.097L222.3,303.097C222.327,303.25 222.487,303.327 222.777,303.327L230.067,303.327C230.353,303.327 230.51,303.25 230.533,303.097L230.82,303.097L231.067,305.553ZM192.75,307.907L191.417,304.37L190.127,307.907L192.75,307.907ZM196.783,312.757L192.617,312.757L192.617,312.47L193.007,312.47C193.373,312.47 193.62,312.453 193.75,312.423C194.043,312.353 194.193,312.197 194.193,311.95C194.193,311.827 194.137,311.62 194.03,311.33L193.007,308.573L189.87,308.573L188.997,310.95C188.79,311.503 188.693,311.823 188.693,311.907C188.693,312.283 189.1,312.47 189.92,312.47L190.157,312.47L190.157,312.757L186.657,312.757L186.657,312.47C187.273,312.45 187.673,312.283 187.857,311.973C187.973,311.763 188.12,311.43 188.293,310.963L191.053,303.43L190.92,303.097L192.237,303.097L195.407,311.513C195.593,312.007 195.84,312.3 196.147,312.393C196.303,312.443 196.517,312.47 196.783,312.47L196.783,312.757ZM159.91,307.97C159.91,306.427 159.433,305.277 158.48,304.517C157.61,303.827 156.387,303.483 154.803,303.483C154.487,303.483 154.08,303.5 153.587,303.543L153.587,311.633C153.587,312.057 153.72,312.307 153.977,312.39C154.163,312.44 154.447,312.47 154.83,312.47C156.13,312.47 157.08,312.303 157.687,311.977C158.5,311.547 159.12,310.85 159.54,309.89C159.783,309.33 159.91,308.687 159.91,307.97ZM161.337,307.723C161.337,308.617 161.11,309.443 160.65,310.2C160.203,310.937 159.59,311.54 158.807,312C157.953,312.503 156.923,312.757 155.727,312.757L150.877,312.757L150.877,312.47L151.137,312.47C151.7,312.47 152.057,312.323 152.203,312.03C152.287,311.87 152.33,311.647 152.33,311.363L152.33,304.843C152.33,304.217 152.18,303.843 151.883,303.717C151.717,303.65 151.48,303.617 151.18,303.617L150.877,303.617L150.877,303.327C152.677,303.237 154.237,303.193 155.563,303.193C157.207,303.193 158.537,303.53 159.55,304.2C160.74,304.99 161.337,306.163 161.337,307.723ZM125.96,303.617C125.513,303.617 125.203,303.643 125.033,303.703C124.733,303.81 124.58,304.047 124.58,304.407L124.58,312.86L124.19,312.86L116.337,304.643L116.337,311.15C116.337,311.84 116.52,312.243 116.887,312.363C117.103,312.433 117.43,312.47 117.87,312.47L117.87,312.757L114.347,312.757L114.347,312.47L114.413,312.47C115.24,312.47 115.657,312.13 115.657,311.453L115.657,303.993C115.31,303.757 114.89,303.63 114.383,303.617L114.383,303.327L116.76,303.327L123.903,310.773L123.903,304.74C123.903,304.163 123.717,303.823 123.34,303.717C123.127,303.657 122.82,303.623 122.413,303.617L122.413,303.327L125.96,303.327L125.96,303.617ZM89.28,303.617C88.783,303.623 88.433,303.737 88.223,303.95C88.01,304.16 87.903,304.513 87.903,305.007L87.903,309.1C87.903,309.94 87.693,310.67 87.273,311.293C86.853,311.913 86.253,312.373 85.477,312.67C84.893,312.89 84.207,313 83.417,313C82.153,313 81.123,312.687 80.333,312.053C79.467,311.367 79.037,310.41 79.037,309.18L79.037,304.753C79.037,304.163 78.88,303.813 78.563,303.71C78.393,303.657 78.12,303.623 77.73,303.617L77.73,303.327L81.623,303.327L81.623,303.617L81.493,303.617C81.063,303.617 80.76,303.69 80.583,303.843C80.39,304.007 80.293,304.3 80.293,304.723L80.293,308.937C80.293,310.003 80.607,310.817 81.233,311.387C81.833,311.933 82.673,312.207 83.75,312.207C86.053,312.207 87.207,311.113 87.207,308.92L87.207,305.393C87.207,304.48 87.037,303.943 86.697,303.783C86.51,303.697 86.183,303.64 85.72,303.617L85.72,303.327L89.28,303.327L89.28,303.617ZM50.797,308.287C50.797,306.94 50.423,305.817 49.677,304.92C48.89,303.96 47.833,303.483 46.507,303.483C45.3,303.483 44.357,303.96 43.673,304.91C43.077,305.75 42.78,306.707 42.78,307.78C42.78,308.66 42.957,309.46 43.313,310.183C43.687,310.96 44.23,311.567 44.94,312C45.617,312.413 46.353,312.623 47.147,312.623C48.697,312.623 49.777,311.88 50.39,310.393C50.66,309.737 50.797,309.03 50.797,308.287ZM52.223,307.78C52.223,309.287 51.697,310.54 50.647,311.533C49.617,312.513 48.343,313 46.827,313C45.867,313 44.98,312.817 44.173,312.447C43.303,312.053 42.61,311.477 42.097,310.72C41.603,310 41.357,309.18 41.357,308.257C41.357,307.273 41.593,306.393 42.057,305.607C42.523,304.823 43.187,304.203 44.053,303.757C44.9,303.317 45.853,303.097 46.903,303.097C48.323,303.097 49.547,303.517 50.577,304.357C51.673,305.247 52.223,306.393 52.223,307.78ZM15.52,305.12L15.263,305.12C15.253,304.663 15.153,304.343 14.963,304.157C14.773,303.97 14.45,303.873 14.003,303.873L11.123,303.873L11.123,307.437L14.123,307.437C14.663,307.437 14.96,307.113 15.003,306.463L15.263,306.463L15.263,309.137L15.003,309.137C14.987,308.737 14.907,308.453 14.76,308.28C14.597,308.08 14.32,307.983 13.927,307.983L11.123,307.983L11.123,311.297C11.123,311.88 11.287,312.233 11.603,312.357C11.8,312.43 12.077,312.47 12.443,312.47L12.443,312.757L8.757,312.757L8.757,312.47C9.057,312.45 9.267,312.413 9.387,312.363C9.61,312.27 9.757,312.073 9.82,311.763C9.85,311.62 9.867,311.36 9.867,310.983L9.867,305.043C9.867,304.51 9.81,304.157 9.697,303.977C9.543,303.743 9.22,303.62 8.727,303.617L8.727,303.327L15.52,303.327L15.52,305.12Z" style="fill:rgb(40,31,39);fill-rule:nonzero;"/>
    </g>
    <g transform="matrix(5.78466,0,0,5.78466,980.106,-1065.43)">
        <path d="M205.87,216.437C205.87,216.407 205.877,216.38 205.893,216.36C205.91,216.337 205.93,216.323 205.957,216.31C206,216.3 206.06,216.29 206.143,216.283C206.23,216.27 206.327,216.263 206.433,216.257C206.54,216.25 206.653,216.243 206.767,216.243C207.17,216.243 207.517,216.33 207.807,216.497C208.097,216.667 208.323,216.907 208.48,217.227C208.633,217.543 208.713,217.933 208.717,218.387C208.717,218.663 208.683,218.913 208.627,219.133C208.567,219.353 208.483,219.54 208.383,219.693C208.283,219.85 208.167,219.97 208.037,220.053C207.9,220.143 207.76,220.197 207.613,220.22C207.467,220.243 207.327,220.25 207.19,220.247C207.02,220.247 206.85,220.24 206.68,220.223C206.51,220.21 206.363,220.19 206.23,220.163C206.1,220.14 206.003,220.11 205.947,220.08C205.92,220.063 205.9,220.043 205.887,220.02C205.873,219.997 205.87,219.973 205.87,219.94L205.87,216.437ZM204.893,220.94C204.893,221.293 204.893,221.62 204.89,221.92C204.89,222.22 204.883,222.49 204.873,222.723C204.867,222.957 204.85,223.15 204.83,223.3C204.813,223.407 204.797,223.5 204.78,223.58C204.76,223.663 204.733,223.727 204.697,223.777C204.66,223.827 204.607,223.86 204.533,223.88C204.48,223.89 204.423,223.903 204.36,223.913C204.3,223.923 204.24,223.93 204.19,223.93C204.157,223.933 204.13,223.94 204.12,223.96C204.103,223.98 204.097,223.997 204.097,224.02C204.097,224.05 204.113,224.073 204.147,224.087C204.173,224.103 204.22,224.11 204.277,224.11C204.367,224.11 204.473,224.107 204.597,224.103C204.72,224.1 204.84,224.093 204.96,224.09C205.08,224.083 205.18,224.08 205.263,224.077C205.343,224.073 205.387,224.073 205.393,224.073C205.41,224.073 205.46,224.073 205.543,224.077C205.63,224.08 205.74,224.083 205.873,224.09C206.007,224.093 206.153,224.1 206.31,224.103C206.467,224.107 206.623,224.11 206.78,224.11C206.843,224.11 206.887,224.1 206.917,224.083C206.947,224.067 206.96,224.043 206.96,224.02C206.96,223.997 206.953,223.98 206.943,223.96C206.93,223.94 206.91,223.933 206.87,223.93C206.83,223.93 206.787,223.927 206.727,223.923C206.67,223.917 206.61,223.91 206.543,223.903C206.48,223.893 206.42,223.887 206.37,223.88C206.253,223.86 206.167,223.827 206.107,223.777C206.047,223.727 206.003,223.663 205.973,223.58C205.95,223.5 205.93,223.407 205.92,223.3C205.903,223.15 205.89,222.957 205.883,222.727C205.877,222.493 205.873,222.23 205.87,221.93C205.87,221.633 205.87,221.303 205.87,220.953L205.87,220.697C205.87,220.663 205.873,220.64 205.887,220.627C205.9,220.613 205.92,220.607 205.947,220.607L207.38,220.633C207.417,220.633 207.45,220.637 207.47,220.647C207.49,220.653 207.51,220.67 207.537,220.697C207.62,220.797 207.727,220.937 207.853,221.11C207.987,221.283 208.127,221.473 208.283,221.677C208.44,221.883 208.593,222.087 208.753,222.287C208.967,222.56 209.16,222.803 209.33,223.01C209.503,223.22 209.667,223.397 209.823,223.543C209.977,223.69 210.133,223.807 210.293,223.89C210.387,223.943 210.483,223.983 210.59,224.017C210.693,224.047 210.82,224.073 210.963,224.087C211.11,224.103 211.287,224.11 211.5,224.11L212.207,224.11C212.307,224.11 212.377,224.103 212.417,224.087C212.457,224.073 212.477,224.05 212.473,224.02C212.473,223.997 212.467,223.98 212.447,223.96C212.43,223.94 212.403,223.933 212.373,223.93C212.34,223.93 212.297,223.93 212.23,223.923C212.17,223.923 212.083,223.91 211.973,223.89C211.88,223.88 211.777,223.857 211.657,223.813C211.537,223.773 211.403,223.7 211.247,223.593C211.093,223.49 210.92,223.337 210.717,223.133C210.39,222.793 210.03,222.38 209.64,221.903C209.247,221.42 208.82,220.89 208.357,220.313C208.707,220.013 208.98,219.727 209.183,219.45C209.387,219.167 209.53,218.897 209.617,218.627C209.703,218.36 209.743,218.093 209.743,217.823C209.74,217.633 209.713,217.46 209.66,217.3C209.61,217.14 209.537,216.997 209.457,216.87C209.373,216.747 209.29,216.637 209.2,216.547C209.113,216.457 209.033,216.387 208.96,216.333C208.76,216.2 208.543,216.097 208.31,216.03C208.08,215.963 207.837,215.917 207.59,215.893C207.34,215.87 207.097,215.86 206.857,215.86C206.787,215.86 206.697,215.86 206.587,215.863C206.48,215.867 206.363,215.867 206.243,215.87C206.12,215.87 206.003,215.877 205.89,215.877C205.777,215.88 205.683,215.883 205.603,215.883L205.28,215.883C205.19,215.88 205.08,215.877 204.947,215.873C204.813,215.87 204.673,215.867 204.527,215.867C204.38,215.863 204.24,215.86 204.11,215.86C204.047,215.86 204,215.867 203.973,215.883C203.943,215.893 203.93,215.92 203.93,215.95C203.933,215.97 203.94,215.99 203.96,216.01C203.98,216.03 204,216.037 204.02,216.04C204.057,216.04 204.097,216.04 204.147,216.043C204.193,216.047 204.243,216.05 204.287,216.053C204.337,216.057 204.373,216.063 204.407,216.067C204.527,216.083 204.62,216.117 204.687,216.16C204.75,216.21 204.793,216.277 204.82,216.36C204.843,216.443 204.86,216.543 204.87,216.667C204.87,216.733 204.877,216.807 204.88,216.883C204.883,216.96 204.887,217.05 204.887,217.157C204.89,217.263 204.89,217.397 204.89,217.557C204.893,217.72 204.893,217.917 204.893,218.153L204.893,220.94ZM185.393,217.193C185.31,216.973 185.237,216.783 185.177,216.63C185.12,216.47 185.09,216.357 185.087,216.283C185.083,216.243 185.09,216.21 185.11,216.177C185.123,216.147 185.16,216.117 185.217,216.09C185.27,216.073 185.337,216.06 185.413,216.05C185.487,216.043 185.56,216.04 185.627,216.04C185.663,216.037 185.693,216.027 185.713,216.007C185.733,215.987 185.743,215.963 185.743,215.937C185.743,215.883 185.64,215.86 185.433,215.86C185.287,215.86 185.137,215.863 184.993,215.867C184.847,215.87 184.72,215.877 184.61,215.88C184.5,215.883 184.42,215.883 184.38,215.883C184.347,215.883 184.28,215.883 184.19,215.883C184.1,215.88 183.997,215.877 183.87,215.873C183.747,215.87 183.613,215.867 183.477,215.867C183.333,215.863 183.197,215.86 183.06,215.86C182.97,215.86 182.897,215.867 182.847,215.877C182.79,215.883 182.767,215.907 182.767,215.937C182.767,215.957 182.77,215.98 182.787,216.003C182.8,216.023 182.823,216.037 182.853,216.04C182.89,216.037 182.95,216.04 183.03,216.043C183.11,216.05 183.2,216.06 183.29,216.077C183.413,216.103 183.52,216.147 183.603,216.193C183.69,216.243 183.77,216.323 183.84,216.433C183.91,216.54 183.99,216.697 184.073,216.9L186.843,223.58C186.917,223.757 186.973,223.893 187.023,223.99C187.07,224.087 187.113,224.157 187.15,224.193C187.187,224.233 187.227,224.253 187.267,224.25C187.303,224.253 187.34,224.23 187.377,224.183C187.413,224.133 187.46,224.05 187.52,223.933C187.577,223.813 187.653,223.647 187.757,223.43C187.84,223.247 187.953,223 188.09,222.687C188.23,222.37 188.393,221.997 188.58,221.567C188.767,221.133 188.973,220.653 189.207,220.12C189.35,219.783 189.49,219.457 189.627,219.137C189.763,218.823 189.887,218.53 190.003,218.26C190.117,217.99 190.213,217.763 190.293,217.573C190.373,217.383 190.43,217.247 190.463,217.17C190.56,216.923 190.647,216.733 190.723,216.6C190.8,216.467 190.867,216.367 190.927,216.307C190.983,216.243 191.04,216.197 191.09,216.167C191.16,216.123 191.233,216.097 191.303,216.077C191.377,216.06 191.443,216.05 191.5,216.043C191.56,216.04 191.6,216.037 191.63,216.04C191.673,216.037 191.707,216.027 191.73,216.007C191.75,215.987 191.757,215.963 191.757,215.937C191.757,215.913 191.743,215.893 191.71,215.88C191.68,215.867 191.637,215.86 191.58,215.86C191.493,215.86 191.403,215.863 191.31,215.867C191.21,215.867 191.123,215.87 191.037,215.873C190.95,215.877 190.873,215.88 190.813,215.883C190.75,215.883 190.71,215.883 190.693,215.883C190.643,215.883 190.56,215.883 190.447,215.88C190.33,215.877 190.197,215.87 190.047,215.867C189.893,215.863 189.74,215.86 189.59,215.86C189.5,215.86 189.437,215.867 189.397,215.883C189.353,215.893 189.333,215.92 189.333,215.95C189.337,215.977 189.35,215.997 189.373,216.013C189.4,216.033 189.427,216.04 189.46,216.04C189.527,216.037 189.59,216.04 189.653,216.043C189.717,216.05 189.783,216.06 189.847,216.077C189.903,216.1 189.943,216.133 189.967,216.173C189.99,216.217 190,216.263 190,216.31C190,216.353 189.99,216.413 189.967,216.483C189.95,216.557 189.927,216.633 189.9,216.72C189.86,216.833 189.803,217 189.723,217.22C189.643,217.44 189.547,217.697 189.437,217.99C189.323,218.283 189.2,218.597 189.07,218.933C188.937,219.273 188.8,219.617 188.657,219.97C188.517,220.323 188.377,220.663 188.24,221C188.1,221.333 187.97,221.647 187.85,221.933C187.727,222.223 187.62,222.473 187.523,222.687L185.393,217.193ZM172.483,219.67C172.483,219.073 172.567,218.56 172.723,218.113C172.887,217.67 173.11,217.3 173.397,217.003C173.69,216.707 174.03,216.487 174.427,216.337C174.82,216.19 175.257,216.117 175.73,216.117C176.09,216.117 176.433,216.17 176.763,216.28C177.097,216.387 177.407,216.55 177.687,216.767C177.97,216.983 178.217,217.25 178.43,217.573C178.64,217.893 178.803,218.263 178.923,218.687C179.04,219.11 179.1,219.58 179.103,220.107C179.1,220.63 179.05,221.087 178.947,221.473C178.847,221.863 178.71,222.197 178.537,222.467C178.363,222.74 178.17,222.963 177.957,223.14C177.743,223.313 177.52,223.45 177.29,223.543C177.063,223.64 176.843,223.71 176.627,223.747C176.413,223.783 176.22,223.803 176.05,223.8C175.537,223.8 175.063,223.703 174.633,223.513C174.2,223.323 173.82,223.05 173.5,222.69C173.18,222.327 172.933,221.897 172.753,221.387C172.577,220.88 172.483,220.307 172.483,219.67ZM171.317,219.967C171.317,220.293 171.353,220.627 171.43,220.963C171.503,221.3 171.617,221.63 171.773,221.95C171.927,222.27 172.123,222.57 172.363,222.843C172.6,223.12 172.887,223.367 173.21,223.573C173.537,223.787 173.91,223.95 174.33,224.07C174.75,224.187 175.213,224.247 175.73,224.25C176.273,224.247 176.78,224.17 177.243,224.023C177.707,223.87 178.13,223.657 178.497,223.383C178.87,223.113 179.183,222.79 179.447,222.417C179.707,222.047 179.91,221.64 180.047,221.197C180.187,220.753 180.257,220.287 180.257,219.797C180.253,219.16 180.14,218.59 179.917,218.087C179.693,217.583 179.38,217.153 178.98,216.797C178.577,216.447 178.103,216.173 177.563,215.99C177.023,215.803 176.433,215.707 175.79,215.707C175.273,215.707 174.803,215.773 174.38,215.9C173.957,216.027 173.58,216.2 173.247,216.42C172.913,216.643 172.63,216.893 172.387,217.177C172.143,217.463 171.943,217.763 171.783,218.08C171.627,218.4 171.51,218.717 171.43,219.04C171.353,219.36 171.317,219.67 171.317,219.967ZM165.243,224.25C165.49,224.25 165.74,224.243 165.993,224.227C166.247,224.213 166.487,224.187 166.71,224.15C166.937,224.113 167.127,224.067 167.283,224.007C167.347,223.983 167.393,223.957 167.427,223.933C167.46,223.91 167.49,223.88 167.507,223.843C167.527,223.807 167.547,223.75 167.563,223.687C167.587,223.61 167.61,223.517 167.637,223.407C167.663,223.293 167.687,223.177 167.71,223.053C167.733,222.933 167.753,222.817 167.77,222.707C167.79,222.593 167.807,222.5 167.817,222.427C167.827,222.35 167.833,222.303 167.833,222.287C167.833,222.247 167.823,222.213 167.803,222.18C167.783,222.15 167.76,222.137 167.73,222.133C167.693,222.133 167.67,222.143 167.653,222.167C167.64,222.19 167.627,222.23 167.617,222.287C167.603,222.357 167.577,222.45 167.54,222.56C167.503,222.673 167.453,222.783 167.393,222.9C167.33,223.017 167.26,223.117 167.18,223.2C167.03,223.347 166.867,223.457 166.687,223.533C166.507,223.603 166.303,223.653 166.077,223.68C165.853,223.703 165.603,223.713 165.32,223.71C164.837,223.71 164.387,223.637 163.97,223.5C163.553,223.363 163.18,223.17 162.847,222.923C162.513,222.673 162.23,222.387 161.99,222.053C161.753,221.723 161.57,221.363 161.443,220.973C161.317,220.587 161.253,220.183 161.25,219.76C161.25,219.393 161.277,219.04 161.33,218.7C161.387,218.367 161.483,218.047 161.633,217.75C161.78,217.447 161.99,217.17 162.267,216.913C162.397,216.783 162.567,216.663 162.78,216.55C162.99,216.437 163.263,216.343 163.59,216.27C163.92,216.197 164.327,216.157 164.807,216.153C165.143,216.153 165.45,216.183 165.74,216.237C166.027,216.29 166.277,216.363 166.497,216.453C166.717,216.543 166.89,216.643 167.027,216.76C167.123,216.833 167.21,216.933 167.28,217.05C167.35,217.163 167.407,217.29 167.443,217.43C167.48,217.567 167.5,217.707 167.5,217.85C167.5,217.923 167.503,217.983 167.517,218.023C167.527,218.06 167.553,218.08 167.59,218.08C167.623,218.08 167.65,218.063 167.673,218.027C167.697,217.99 167.71,217.93 167.72,217.85C167.723,217.807 167.723,217.743 167.727,217.66C167.73,217.573 167.73,217.477 167.73,217.367C167.733,217.26 167.737,217.147 167.737,217.037C167.737,216.923 167.74,216.823 167.743,216.733C167.753,216.603 167.76,216.493 167.77,216.417C167.777,216.337 167.783,216.273 167.79,216.227C167.793,216.183 167.797,216.147 167.797,216.117C167.797,216.083 167.787,216.057 167.767,216.037C167.75,216.013 167.71,216 167.653,216C167.47,215.993 167.283,215.973 167.097,215.94C166.91,215.91 166.71,215.877 166.5,215.833C166.313,215.803 166.123,215.78 165.927,215.763C165.733,215.743 165.543,215.73 165.36,215.72C165.177,215.71 165.01,215.707 164.857,215.707C164.283,215.707 163.78,215.763 163.35,215.863C162.917,215.963 162.54,216.103 162.23,216.28C161.913,216.453 161.643,216.653 161.42,216.873C161.17,217.12 160.963,217.377 160.8,217.647C160.633,217.917 160.503,218.187 160.41,218.453C160.313,218.72 160.247,218.973 160.207,219.213C160.167,219.453 160.15,219.663 160.15,219.85C160.147,220.2 160.183,220.563 160.26,220.937C160.337,221.313 160.477,221.687 160.677,222.053C160.877,222.42 161.16,222.763 161.52,223.083C161.813,223.34 162.143,223.557 162.503,223.73C162.867,223.903 163.27,224.03 163.723,224.117C164.173,224.203 164.68,224.25 165.243,224.25ZM153.203,224.25C153.41,224.25 153.62,224.24 153.84,224.217C154.05,224.197 154.26,224.157 154.46,224.103C154.66,224.043 154.84,223.967 155,223.863C155.267,223.687 155.477,223.497 155.633,223.293C155.787,223.087 155.893,222.873 155.957,222.657C156.02,222.437 156.053,222.22 156.05,222.007C156.053,221.697 155.997,221.4 155.877,221.117C155.757,220.83 155.563,220.55 155.29,220.263C155.023,219.983 154.66,219.687 154.203,219.373L153.883,219.157C153.603,218.97 153.37,218.8 153.183,218.647C152.997,218.493 152.847,218.347 152.733,218.21C152.62,218.07 152.54,217.93 152.49,217.783C152.443,217.64 152.42,217.483 152.42,217.31C152.423,217.053 152.493,216.837 152.627,216.663C152.763,216.487 152.94,216.353 153.167,216.263C153.393,216.173 153.643,216.13 153.92,216.13C154.173,216.133 154.39,216.153 154.567,216.197C154.747,216.24 154.89,216.29 155.003,216.35C155.12,216.41 155.203,216.473 155.267,216.53C155.327,216.587 155.367,216.633 155.383,216.667C155.403,216.71 155.427,216.763 155.45,216.83C155.477,216.9 155.5,216.967 155.517,217.037C155.533,217.103 155.547,217.163 155.55,217.207C155.553,217.253 155.567,217.287 155.58,217.313C155.59,217.333 155.617,217.347 155.653,217.347C155.69,217.353 155.717,217.337 155.727,217.3C155.74,217.26 155.747,217.2 155.743,217.117C155.747,216.747 155.753,216.467 155.77,216.28C155.783,216.093 155.793,215.987 155.793,215.963C155.793,215.933 155.787,215.913 155.77,215.903C155.753,215.89 155.723,215.883 155.677,215.883C155.637,215.883 155.587,215.883 155.53,215.88C155.47,215.873 155.39,215.86 155.28,215.833C155.19,215.81 155.083,215.783 154.96,215.763C154.833,215.743 154.7,215.727 154.557,215.713C154.413,215.7 154.267,215.693 154.113,215.693C153.613,215.697 153.177,215.777 152.803,215.94C152.427,216.103 152.14,216.337 151.93,216.643C151.72,216.95 151.617,217.317 151.61,217.743C151.61,217.997 151.66,218.243 151.76,218.487C151.863,218.727 152.03,218.98 152.27,219.24C152.503,219.5 152.823,219.78 153.23,220.08L153.743,220.463C153.993,220.65 154.207,220.817 154.387,220.967C154.567,221.117 154.713,221.26 154.83,221.4C154.943,221.54 155.03,221.69 155.083,221.843C155.14,221.997 155.167,222.17 155.167,222.363C155.167,222.64 155.1,222.887 154.973,223.103C154.847,223.323 154.66,223.493 154.407,223.623C154.157,223.747 153.847,223.813 153.473,223.813C153.283,223.813 153.09,223.797 152.9,223.76C152.71,223.72 152.53,223.657 152.363,223.573C152.2,223.49 152.053,223.377 151.937,223.24C151.82,223.103 151.737,222.937 151.69,222.737C151.67,222.657 151.66,222.583 151.653,222.513C151.65,222.443 151.65,222.387 151.65,222.34C151.65,222.293 151.643,222.263 151.623,222.24C151.607,222.22 151.58,222.21 151.55,222.21C151.517,222.21 151.493,222.227 151.48,222.257C151.463,222.287 151.457,222.33 151.457,222.39C151.45,222.483 151.437,222.633 151.42,222.833C151.403,223.033 151.397,223.273 151.393,223.543C151.393,223.64 151.397,223.717 151.403,223.763C151.41,223.817 151.427,223.857 151.45,223.88C151.473,223.907 151.51,223.933 151.56,223.953C151.717,224.027 151.887,224.083 152.073,224.127C152.26,224.17 152.453,224.203 152.647,224.223C152.84,224.243 153.027,224.25 153.203,224.25ZM146.347,219.017L146.347,217.557C146.35,217.397 146.35,217.263 146.35,217.157C146.35,217.05 146.35,216.96 146.353,216.883C146.353,216.807 146.357,216.733 146.36,216.667C146.363,216.54 146.383,216.437 146.407,216.353C146.427,216.273 146.467,216.21 146.52,216.163C146.577,216.117 146.657,216.083 146.757,216.067C146.817,216.053 146.873,216.047 146.917,216.043C146.96,216.04 147,216.04 147.037,216.04C147.06,216.037 147.08,216.027 147.1,216.01C147.117,215.99 147.127,215.97 147.13,215.95C147.13,215.92 147.117,215.893 147.087,215.883C147.06,215.867 147.013,215.86 146.95,215.86C146.86,215.86 146.753,215.863 146.633,215.867C146.513,215.867 146.393,215.87 146.273,215.873C146.157,215.877 146.053,215.88 145.97,215.883L145.667,215.883C145.583,215.88 145.48,215.877 145.363,215.873C145.247,215.87 145.127,215.867 145.003,215.867C144.883,215.863 144.777,215.86 144.677,215.86C144.617,215.86 144.57,215.867 144.543,215.883C144.513,215.893 144.5,215.92 144.5,215.95C144.5,215.97 144.507,215.99 144.523,216.01C144.543,216.027 144.563,216.037 144.59,216.04C144.63,216.04 144.68,216.043 144.743,216.05C144.807,216.053 144.87,216.067 144.937,216.077C145.053,216.103 145.143,216.16 145.197,216.253C145.25,216.343 145.283,216.483 145.297,216.667C145.3,216.733 145.303,216.807 145.307,216.883C145.31,216.96 145.313,217.05 145.313,217.157C145.317,217.263 145.317,217.397 145.317,217.557C145.32,217.72 145.32,217.917 145.32,218.153L145.32,220.94C145.32,221.293 145.317,221.62 145.317,221.92C145.31,222.22 145.303,222.49 145.297,222.723C145.287,222.957 145.273,223.15 145.257,223.3C145.247,223.407 145.23,223.5 145.21,223.58C145.19,223.663 145.163,223.727 145.127,223.777C145.087,223.827 145.033,223.86 144.96,223.88C144.907,223.89 144.85,223.903 144.787,223.913C144.727,223.923 144.667,223.93 144.617,223.93C144.58,223.933 144.56,223.94 144.547,223.96C144.53,223.98 144.523,223.997 144.523,224.02C144.523,224.05 144.54,224.073 144.573,224.087C144.6,224.103 144.647,224.11 144.703,224.11C144.793,224.11 144.897,224.107 145.017,224.103C145.133,224.1 145.25,224.093 145.37,224.09C145.487,224.083 145.583,224.08 145.67,224.077C145.75,224.073 145.8,224.073 145.82,224.073C145.837,224.073 145.887,224.073 145.977,224.077C146.06,224.08 146.173,224.083 146.31,224.09C146.443,224.093 146.593,224.1 146.753,224.103C146.913,224.107 147.073,224.11 147.23,224.11C147.293,224.11 147.34,224.1 147.37,224.083C147.4,224.067 147.41,224.043 147.41,224.02C147.41,223.997 147.403,223.98 147.39,223.96C147.377,223.94 147.353,223.933 147.32,223.93C147.287,223.93 147.237,223.927 147.18,223.923C147.12,223.917 147.06,223.91 146.993,223.903C146.927,223.893 146.867,223.887 146.81,223.88C146.7,223.86 146.617,223.827 146.563,223.777C146.507,223.727 146.467,223.663 146.447,223.58C146.427,223.5 146.407,223.407 146.397,223.3C146.38,223.15 146.37,222.957 146.36,222.723C146.353,222.49 146.35,222.22 146.35,221.92C146.347,221.62 146.347,221.293 146.347,220.94L146.347,219.017ZM132.87,217.923C132.87,217.677 132.87,217.413 132.87,217.143C132.87,216.87 132.87,216.61 132.873,216.353C132.873,216.097 132.873,215.867 132.877,215.663C132.877,215.463 132.88,215.303 132.883,215.193C132.883,215.123 132.893,215.07 132.917,215.033C132.94,214.99 132.98,214.96 133.037,214.937C133.067,214.923 133.11,214.91 133.173,214.9C133.24,214.89 133.313,214.88 133.397,214.873C133.48,214.863 133.563,214.857 133.647,214.853C133.73,214.85 133.803,214.847 133.87,214.847C134.253,214.843 134.63,214.86 135,214.893C135.37,214.927 135.737,214.997 136.087,215.093C136.443,215.197 136.783,215.34 137.117,215.533C137.447,215.73 137.763,215.98 138.067,216.297C138.2,216.433 138.337,216.603 138.48,216.807C138.623,217.007 138.757,217.243 138.88,217.507C139,217.777 139.103,218.077 139.18,218.413C139.257,218.75 139.293,219.123 139.297,219.53C139.297,219.827 139.277,220.12 139.23,220.413C139.187,220.707 139.123,220.99 139.037,221.26C138.95,221.53 138.84,221.78 138.713,222.007C138.583,222.233 138.437,222.43 138.27,222.593C138.017,222.847 137.73,223.063 137.41,223.24C137.087,223.42 136.743,223.553 136.373,223.647C136,223.74 135.62,223.787 135.217,223.787C134.84,223.787 134.523,223.773 134.26,223.743C134,223.713 133.787,223.673 133.623,223.623C133.457,223.573 133.33,223.52 133.237,223.46C133.143,223.397 133.08,223.337 133.037,223.277C133.003,223.223 132.977,223.14 132.957,223.03C132.94,222.92 132.923,222.797 132.917,222.663C132.907,222.53 132.9,222.41 132.897,222.3C132.89,222.24 132.89,222.123 132.887,221.953C132.883,221.783 132.88,221.577 132.88,221.327C132.877,221.077 132.873,220.8 132.873,220.49C132.87,220.183 132.87,219.86 132.87,219.517L132.87,217.923ZM131.793,220.39C131.793,220.8 131.793,221.183 131.79,221.54C131.787,221.89 131.78,222.207 131.773,222.483C131.763,222.763 131.75,222.99 131.727,223.173C131.713,223.297 131.69,223.41 131.667,223.513C131.64,223.61 131.603,223.693 131.557,223.753C131.507,223.82 131.443,223.86 131.357,223.88C131.297,223.89 131.23,223.903 131.163,223.913C131.097,223.923 131.033,223.93 130.973,223.93C130.933,223.93 130.907,223.937 130.893,223.953C130.877,223.967 130.87,223.987 130.87,224.007C130.87,224.043 130.887,224.073 130.92,224.083C130.953,224.103 131.003,224.11 131.073,224.11C131.173,224.107 131.29,224.103 131.423,224.097C131.557,224.087 131.69,224.083 131.82,224.083C131.953,224.077 132.073,224.073 132.167,224.073C132.26,224.073 132.317,224.073 132.33,224.073C132.357,224.073 132.417,224.073 132.51,224.08C132.607,224.09 132.73,224.1 132.883,224.113C133.037,224.12 133.207,224.133 133.397,224.15C133.58,224.16 133.777,224.173 133.98,224.183C134.187,224.197 134.39,224.203 134.593,224.213C134.8,224.22 134.993,224.223 135.18,224.223C135.723,224.22 136.207,224.17 136.63,224.073C137.053,223.98 137.42,223.857 137.733,223.703C138.05,223.55 138.313,223.393 138.533,223.223C138.75,223.053 138.927,222.897 139.067,222.75C139.247,222.56 139.42,222.343 139.587,222.093C139.75,221.843 139.9,221.567 140.03,221.263C140.16,220.957 140.26,220.627 140.337,220.273C140.41,219.917 140.45,219.533 140.453,219.13C140.447,218.623 140.39,218.167 140.273,217.757C140.157,217.347 140.003,216.987 139.813,216.673C139.63,216.363 139.423,216.097 139.207,215.873C138.9,215.56 138.567,215.307 138.21,215.113C137.85,214.923 137.48,214.777 137.103,214.677C136.723,214.577 136.35,214.507 135.983,214.47C135.617,214.433 135.267,214.413 134.94,214.41C134.61,214.407 134.32,214.407 134.063,214.41C133.87,214.41 133.677,214.413 133.49,214.417C133.3,214.42 133.127,214.427 132.967,214.43C132.807,214.433 132.67,214.44 132.56,214.443C132.447,214.447 132.373,214.45 132.33,214.45C132.313,214.45 132.257,214.447 132.16,214.443C132.063,214.44 131.94,214.433 131.8,214.43C131.657,214.427 131.503,214.42 131.343,214.417C131.183,214.413 131.03,214.41 130.88,214.41C130.81,214.41 130.76,214.417 130.727,214.433C130.693,214.45 130.677,214.473 130.677,214.513C130.677,214.537 130.69,214.56 130.71,214.573C130.73,214.583 130.753,214.59 130.78,214.59C130.82,214.59 130.867,214.59 130.92,214.593C130.977,214.597 131.03,214.603 131.083,214.607C131.137,214.613 131.18,214.62 131.217,214.63C131.353,214.657 131.463,214.7 131.54,214.763C131.62,214.82 131.673,214.897 131.707,214.997C131.74,215.093 131.76,215.213 131.767,215.36C131.77,215.44 131.777,215.523 131.78,215.613C131.78,215.7 131.787,215.81 131.787,215.933C131.787,216.063 131.79,216.22 131.79,216.41C131.793,216.6 131.793,216.833 131.793,217.113L131.793,220.39ZM195.627,220.94C195.627,221.293 195.627,221.62 195.623,221.92C195.62,222.22 195.613,222.49 195.607,222.723C195.597,222.957 195.583,223.15 195.56,223.3C195.547,223.407 195.53,223.5 195.51,223.587C195.493,223.667 195.467,223.733 195.43,223.783C195.393,223.833 195.337,223.863 195.267,223.88C195.21,223.887 195.157,223.893 195.093,223.907C195.03,223.923 194.973,223.927 194.92,223.93C194.887,223.933 194.863,223.94 194.85,223.96C194.837,223.98 194.83,223.997 194.83,224.02C194.83,224.05 194.843,224.073 194.877,224.087C194.907,224.103 194.953,224.11 195.01,224.11C195.1,224.11 195.207,224.107 195.32,224.1C195.44,224.097 195.553,224.09 195.663,224.083C195.79,224.077 195.897,224.073 195.99,224.073L196.503,224.073C196.657,224.077 196.85,224.083 197.09,224.097C197.32,224.103 197.6,224.113 197.923,224.12C198.253,224.127 198.627,224.133 199.05,224.133C199.193,224.137 199.307,224.133 199.39,224.123C199.473,224.117 199.537,224.09 199.58,224.05C199.62,224.01 199.657,223.943 199.68,223.853C199.697,223.793 199.713,223.707 199.73,223.603C199.75,223.493 199.767,223.383 199.78,223.27C199.797,223.153 199.807,223.053 199.817,222.963C199.83,222.877 199.833,222.823 199.833,222.8C199.833,222.76 199.83,222.72 199.817,222.687C199.807,222.653 199.79,222.637 199.757,222.633C199.723,222.633 199.7,222.643 199.683,222.667C199.667,222.693 199.653,222.737 199.64,222.8C199.62,222.943 199.587,223.067 199.543,223.163C199.5,223.257 199.447,223.34 199.38,223.403C199.31,223.463 199.227,223.517 199.127,223.557C199.027,223.593 198.91,223.623 198.77,223.637C198.63,223.657 198.493,223.663 198.357,223.667C198.22,223.673 198.1,223.673 198,223.673C197.72,223.673 197.497,223.663 197.32,223.637C197.147,223.617 197.01,223.573 196.917,223.513C196.82,223.45 196.753,223.36 196.717,223.243C196.677,223.13 196.657,222.983 196.65,222.8C196.65,222.753 196.65,222.673 196.65,222.56C196.643,222.443 196.643,222.313 196.643,222.16C196.65,222.007 196.65,221.853 196.65,221.693L196.65,220.94L196.65,220.03C196.65,220.01 196.657,219.99 196.667,219.977C196.677,219.96 196.697,219.953 196.73,219.953C196.77,219.953 196.843,219.953 196.95,219.953C197.06,219.953 197.18,219.957 197.323,219.96C197.467,219.96 197.61,219.967 197.757,219.97C197.903,219.973 198.037,219.98 198.157,219.983C198.28,219.99 198.37,219.993 198.437,220.003C198.58,220.023 198.69,220.047 198.77,220.077C198.85,220.11 198.91,220.15 198.94,220.193C198.977,220.237 199,220.287 199.013,220.337C199.037,220.407 199.05,220.47 199.057,220.533C199.063,220.59 199.067,220.647 199.063,220.697C199.063,220.73 199.07,220.753 199.08,220.773C199.093,220.79 199.117,220.8 199.14,220.8C199.177,220.797 199.203,220.773 199.22,220.733C199.237,220.69 199.243,220.64 199.243,220.593C199.243,220.563 199.247,220.507 199.25,220.427C199.257,220.343 199.263,220.25 199.27,220.153C199.277,220.05 199.287,219.963 199.293,219.89C199.31,219.71 199.33,219.573 199.35,219.477C199.37,219.38 199.38,219.313 199.383,219.287C199.383,219.253 199.38,219.23 199.367,219.217C199.353,219.203 199.34,219.197 199.32,219.197C199.3,219.197 199.277,219.21 199.25,219.237C199.223,219.263 199.19,219.297 199.153,219.337C199.097,219.393 199.027,219.43 198.933,219.45C198.847,219.467 198.737,219.48 198.6,219.49C198.547,219.493 198.453,219.5 198.32,219.503C198.19,219.507 198.037,219.51 197.87,219.51C197.7,219.513 197.53,219.513 197.367,219.513C197.2,219.517 197.06,219.517 196.943,219.517C196.823,219.517 196.75,219.517 196.717,219.517C196.687,219.517 196.667,219.507 196.66,219.487C196.653,219.467 196.65,219.44 196.65,219.4L196.65,216.437C196.65,216.4 196.657,216.367 196.663,216.35C196.673,216.33 196.69,216.323 196.717,216.323C196.743,216.323 196.813,216.323 196.917,216.323C197.023,216.323 197.147,216.323 197.287,216.33C197.433,216.33 197.58,216.333 197.727,216.333C197.873,216.34 198,216.343 198.113,216.343C198.23,216.35 198.303,216.353 198.347,216.36C198.547,216.387 198.703,216.41 198.81,216.443C198.92,216.47 198.997,216.503 199.047,216.543C199.093,216.587 199.13,216.633 199.153,216.693C199.177,216.76 199.197,216.83 199.203,216.907C199.213,216.98 199.217,217.037 199.217,217.077C199.217,217.123 199.223,217.157 199.24,217.183C199.25,217.207 199.277,217.22 199.307,217.22C199.333,217.217 199.353,217.203 199.373,217.183C199.39,217.157 199.403,217.133 199.41,217.103C199.417,217.07 199.423,217.02 199.43,216.953C199.437,216.883 199.44,216.813 199.447,216.733C199.453,216.657 199.457,216.587 199.46,216.523C199.467,216.46 199.47,216.413 199.473,216.387C199.49,216.233 199.51,216.12 199.53,216.043C199.55,215.963 199.563,215.91 199.563,215.873C199.563,215.847 199.56,215.823 199.553,215.803C199.543,215.78 199.533,215.773 199.513,215.773C199.487,215.773 199.46,215.78 199.437,215.793C199.41,215.803 199.383,215.813 199.36,215.823C199.313,215.827 199.243,215.84 199.153,215.853C199.06,215.867 198.957,215.877 198.847,215.883C198.8,215.89 198.707,215.89 198.563,215.89C198.42,215.89 198.25,215.893 198.05,215.893C197.85,215.893 197.647,215.89 197.433,215.89C197.217,215.89 197.017,215.89 196.827,215.89C196.64,215.89 196.483,215.89 196.36,215.883L195.993,215.883C195.903,215.88 195.797,215.877 195.667,215.873C195.537,215.87 195.4,215.867 195.253,215.867C195.11,215.863 194.973,215.86 194.843,215.86C194.78,215.86 194.733,215.867 194.707,215.883C194.677,215.893 194.663,215.92 194.663,215.95C194.667,215.97 194.673,215.99 194.693,216.01C194.713,216.03 194.73,216.037 194.753,216.04C194.79,216.04 194.83,216.04 194.88,216.043C194.927,216.047 194.977,216.05 195.02,216.053C195.07,216.057 195.107,216.063 195.137,216.067C195.26,216.083 195.353,216.117 195.417,216.16C195.48,216.21 195.527,216.277 195.55,216.36C195.577,216.443 195.593,216.543 195.6,216.667C195.603,216.733 195.61,216.807 195.613,216.883C195.613,216.96 195.62,217.05 195.62,217.157C195.62,217.263 195.623,217.397 195.623,217.557C195.627,217.72 195.627,217.917 195.627,218.153L195.627,220.94Z" style="fill:rgb(40,31,39);fill-rule:nonzero;"/>
    </g>
</svg>
