<?xml version="1.0" encoding="UTF-8" standalone="no"?>
<svg width="29px" height="29px" viewBox="0 0 29 29" version="1.1" xmlns="http://www.w3.org/2000/svg" xmlns:xlink="http://www.w3.org/1999/xlink" xmlns:sketch="http://www.bohemiancoding.com/sketch/ns">
    <!-- Generator: Sketch 3.3.2 (12043) - http://www.bohemiancoding.com/sketch -->
    <title>Fill 604 + Fill 603</title>
    <desc>Created with Sketch.</desc>
    <defs></defs>
    <g id="Page-1" stroke="none" stroke-width="1" fill="none" fill-rule="evenodd" sketch:type="MSPage">
        <g id="Desktop-Copy" sketch:type="MSArtboardGroup" transform="translate(-837.000000, -2323.000000)" fill="#FFFFFF">
            <g id="Fill-604-+-Fill-603" sketch:type="MSLayerGroup" transform="translate(837.000000, 2323.283000)">
                <path d="M14.426,0 C6.45884078,0 0,6.27085608 0,14.007 C0,21.7427548 6.45884078,28.014 14.426,28.014 C22.3931592,28.014 28.852,21.7427548 28.852,14.007 C28.852,6.27085608 22.3931592,0 14.426,0 L14.426,0 Z M21.148516,15.2835824 C20.4588731,16.9340739 18.4324208,20.1101612 13.0479163,20.1101612 C5.77440722,20.1101612 3.4009295,14.9065607 3.4009295,14.9065607 C3.4009295,14.9065607 6.70889144,16.4901298 10.2168138,15.2423396 C7.32560294,14.0540791 6.67483006,10.4134263 8.14788494,11.784556 C9.30917794,12.8650404 11.9371143,12.9358536 13.7155195,12.8420845 C13.9062633,12.6288668 14.0938013,12.3977513 14.2785342,12.1545743 C14.2777328,12.1176113 14.2729241,12.0822048 14.2729241,12.0448528 C14.2729241,9.76599167 16.1755532,7.91901308 18.5221826,7.91901308 C20.7698335,7.91901308 22.605542,9.61541642 22.7566143,11.761211 L25.4510705,13.0175611 L22.2613216,14.0054437 C21.9840218,14.5023031 21.6025343,14.9357419 21.148516,15.2835824 Z" id="Fill-604" sketch:type="MSShapeGroup"></path>
                <path d="M18.0325,10.8978351 C18.0325,11.5444916 18.5730743,12.0685868 19.2386739,12.0685868 C19.9042735,12.0685868 20.4444471,11.5444916 20.4444471,10.8978351 C20.4444471,10.2511786 19.9042735,9.72708333 19.2386739,9.72708333 C18.5730743,9.72708333 18.0325,10.2511786 18.0325,10.8978351 Z" id="Fill-603" sketch:type="MSShapeGroup"></path>
            </g>
        </g>
    </g>
</svg>